<svg width="30" height="31" viewBox="0 0 30 31" fill="none" xmlns="http://www.w3.org/2000/svg">
<g clip-path="url(#clip0_66_1263)">
<path d="M1.25 1.46H6.25L9.6 18.1975C9.71431 18.773 10.0274 19.2899 10.4844 19.6579C10.9415 20.0258 11.5134 20.2212 12.1 20.21H24.25C24.8366 20.2212 25.4085 20.0258 25.8656 19.6579C26.3226 19.2899 26.6357 18.773 26.75 18.1975L28.75 7.71H7.5M12.5 26.46C12.5 27.1504 11.9404 27.71 11.25 27.71C10.5596 27.71 10 27.1504 10 26.46C10 25.7696 10.5596 25.21 11.25 25.21C11.9404 25.21 12.5 25.7696 12.5 26.46ZM26.25 26.46C26.25 27.1504 25.6904 27.71 25 27.71C24.3096 27.71 23.75 27.1504 23.75 26.46C23.75 25.7696 24.3096 25.21 25 25.21C25.6904 25.21 26.25 25.7696 26.25 26.46Z" stroke="#090B2D" stroke-width="3" stroke-linecap="round" stroke-linejoin="round"/>
</g>
<defs>
<clipPath id="clip0_66_1263">
<rect width="30" height="30" fill="white" transform="translate(0 0.209999)"/>
</clipPath>
</defs>
</svg>
