<svg width="30" height="31" viewBox="0 0 30 31" fill="none" xmlns="http://www.w3.org/2000/svg">
<path d="M26.05 5.9225C25.4116 5.28376 24.6535 4.77706 23.8192 4.43136C22.9849 4.08566 22.0906 3.90772 21.1875 3.90772C20.2844 3.90772 19.3902 4.08566 18.5558 4.43136C17.7215 4.77706 16.9635 5.28376 16.325 5.9225L15 7.2475L13.675 5.9225C12.3854 4.63289 10.6363 3.90839 8.81253 3.90839C6.98874 3.90839 5.23964 4.63289 3.95003 5.9225C2.66041 7.21212 1.93591 8.96121 1.93591 10.785C1.93591 12.6088 2.66041 14.3579 3.95003 15.6475L15 26.6975L26.05 15.6475C26.6888 15.0091 27.1955 14.251 27.5412 13.4167C27.8869 12.5824 28.0648 11.6881 28.0648 10.785C28.0648 9.88189 27.8869 8.98763 27.5412 8.15331C27.1955 7.31899 26.6888 6.56095 26.05 5.9225Z" stroke="#090B2D" stroke-width="3" stroke-linecap="round" stroke-linejoin="round"/>
</svg>
