<svg width="564" height="246" viewBox="0 0 564 246" fill="none" xmlns="http://www.w3.org/2000/svg">
<path d="M341.677 98.414C341.873 99.59 341.824 100.57 341.53 101.354L341.089 102.089C340.795 102.775 340.256 103.265 339.472 103.559C339.276 103.951 339.08 104.392 338.884 104.882C338.688 105.372 338.492 105.862 338.296 106.352C338.198 106.548 338.1 106.793 338.002 107.087C338.002 107.479 337.904 107.626 337.708 107.528C337.512 107.234 337.414 106.744 337.414 106.058C337.316 106.058 337.267 106.058 337.267 106.058C337.267 106.156 337.218 106.205 337.12 106.205C336.924 108.067 336.826 109.929 336.826 111.791C336.826 113.653 336.679 115.515 336.385 117.377C336.385 117.573 336.287 117.475 336.091 117.083C335.895 116.789 335.797 116.544 335.797 116.348C335.111 114.878 334.866 113.506 335.062 112.232C335.356 111.056 335.601 109.929 335.797 108.851C336.091 107.773 335.748 106.695 334.768 105.617C334.572 106.303 334.474 107.087 334.474 107.969C334.474 108.851 334.376 109.684 334.18 110.468C334.18 110.566 333.984 110.615 333.592 110.615C333.494 110.713 333.347 110.811 333.151 110.909C333.053 111.007 333.004 111.007 333.004 110.909C332.808 110.125 332.71 109.292 332.71 108.41C332.808 107.626 332.759 106.842 332.563 106.058C332.269 106.548 331.975 107.038 331.681 107.528C331.387 108.018 331.044 108.508 330.652 108.998C330.554 108.998 330.407 109.047 330.211 109.145C330.113 109.341 330.064 109.439 330.064 109.439C329.868 109.635 329.672 109.733 329.476 109.733C329.378 109.929 329.182 110.223 328.888 110.615C328.692 111.007 328.496 111.252 328.3 111.35C327.908 111.546 327.663 111.497 327.565 111.203C327.565 111.007 327.418 110.909 327.124 110.909L326.242 111.791C326.242 111.791 326.193 111.791 326.095 111.791C326.095 111.889 326.046 111.938 325.948 111.938C325.752 112.134 325.556 112.232 325.36 112.232C325.262 112.82 325.262 113.555 325.36 114.437C325.458 115.417 325.507 116.201 325.507 116.789C325.605 117.475 325.36 117.72 324.772 117.524C323.89 117.034 323.645 116.201 324.037 115.025C324.429 113.849 324.527 112.771 324.331 111.791C324.233 111.595 324.135 111.399 324.037 111.203C323.939 111.007 323.792 110.86 323.596 110.762C323.302 110.272 323.008 109.782 322.714 109.292C322.518 108.802 322.224 108.361 321.832 107.969C321.636 107.773 321.342 107.626 320.95 107.528C320.558 107.43 320.215 107.479 319.921 107.675C319.823 107.773 319.676 107.969 319.48 108.263C319.284 108.655 319.088 108.949 318.892 109.145C318.5 109.831 318.108 110.027 317.716 109.733C317.52 109.537 317.324 109.243 317.128 108.851C316.932 108.557 316.736 108.263 316.54 107.969C316.05 107.577 315.462 106.793 314.776 105.617C314.776 105.421 314.678 105.323 314.482 105.323C314.384 105.715 314.237 106.107 314.041 106.499C313.943 106.891 313.6 107.038 313.012 106.94C312.914 106.94 312.669 106.842 312.277 106.646C312.179 106.842 312.032 107.038 311.836 107.234C311.64 107.43 311.444 107.577 311.248 107.675C310.856 107.675 310.66 107.626 310.66 107.528C310.464 109.488 310.366 111.497 310.366 113.555C310.464 115.613 310.366 117.622 310.072 119.582C309.974 120.17 309.876 119.827 309.778 118.553C309.68 117.377 309.582 116.495 309.484 115.907C309.19 113.555 308.994 111.987 308.896 111.203C308.896 110.517 308.896 110.076 308.896 109.88C308.896 109.684 308.798 109.194 308.602 108.41C308.504 107.724 308.161 106.205 307.573 103.853L306.838 103.412C305.564 102.726 304.927 101.599 304.927 100.031V73.718L304.339 71.954C304.241 72.052 304.143 72.248 304.045 72.542C304.045 72.738 303.947 72.934 303.751 73.13C303.163 74.208 302.624 75.09 302.134 75.776C301.938 75.972 301.742 76.168 301.546 76.364C301.35 76.56 301.154 76.707 300.958 76.805C300.566 77.197 300.37 77.295 300.37 77.099C300.174 76.413 300.076 76.021 300.076 75.923C300.076 75.825 300.076 75.678 300.076 75.482C300.174 75.286 300.076 74.747 299.782 73.865H299.635L299.194 74.306C299.096 74.6 299.047 74.992 299.047 75.482C299.047 75.874 298.9 76.168 298.606 76.364C298.508 76.462 298.41 76.364 298.312 76.07C298.214 75.678 298.116 75.384 298.018 75.188C297.92 75.09 297.871 74.992 297.871 74.894C297.871 74.796 297.822 74.698 297.724 74.6L296.842 76.511C296.744 76.903 296.548 77.344 296.254 77.834C296.058 78.324 295.862 78.814 295.666 79.304L294.637 81.656C294.539 81.95 294.392 82.244 294.196 82.538C294.098 82.832 293.951 83.077 293.755 83.273C293.069 85.135 292.285 86.948 291.403 88.712C290.619 90.378 289.786 92.191 288.904 94.151V94.298C288.512 95.278 288.022 96.454 287.434 97.826C286.944 99.1 286.307 100.276 285.523 101.354C285.425 101.55 285.229 101.795 284.935 102.089L284.494 102.53C284.2 102.824 283.955 103.02 283.759 103.118C283.661 103.51 283.514 103.853 283.318 104.147C283.22 104.539 283.073 104.882 282.877 105.176C282.485 105.96 281.995 106.744 281.407 107.528C280.917 108.312 280.378 109.047 279.79 109.733C279.692 110.027 279.496 110.321 279.202 110.615C278.908 110.909 278.663 111.154 278.467 111.35C278.075 111.742 277.781 111.987 277.585 112.085C277.487 112.673 277.34 113.751 277.144 115.319C277.046 116.985 276.801 118.161 276.409 118.847C276.409 118.945 276.311 118.994 276.115 118.994C276.017 119.092 275.919 119.092 275.821 118.994C275.625 118.798 275.478 118.504 275.38 118.112C275.282 117.818 275.184 117.524 275.086 117.23C274.988 116.74 274.89 116.25 274.792 115.76C274.792 115.27 274.694 114.829 274.498 114.437C274.302 113.065 274.204 112.379 274.204 112.379C274.302 112.477 274.106 112.085 273.616 111.203L273.175 110.762C272.881 110.468 272.587 110.174 272.293 109.88C271.999 109.586 271.656 109.292 271.264 108.998C270.872 108.802 270.431 108.851 269.941 109.145C269.451 109.537 269.059 109.831 268.765 110.027C268.079 110.615 267.393 111.203 266.707 111.791C266.119 112.477 265.482 113.163 264.796 113.849C264.6 114.143 264.306 114.388 263.914 114.584C263.522 114.878 263.081 114.976 262.591 114.878C262.199 114.682 261.856 114.339 261.562 113.849C261.268 113.457 261.023 113.065 260.827 112.673C260.435 111.791 260.141 110.909 259.945 110.027C259.749 109.145 259.504 108.214 259.21 107.234C259.014 107.038 258.769 106.793 258.475 106.499C258.279 106.303 258.083 106.058 257.887 105.764C257.887 105.764 257.789 105.617 257.593 105.323C257.495 105.127 257.348 104.931 257.152 104.735C257.054 105.029 256.613 105.176 255.829 105.176C255.731 105.666 255.584 106.254 255.388 106.94C255.192 107.724 255.045 108.116 254.947 108.116C254.849 108.508 254.751 109.047 254.653 109.733C254.653 110.517 254.555 110.762 254.359 110.468C253.967 109.88 253.82 109.194 253.918 108.41C254.016 107.626 253.967 106.891 253.771 106.205C253.575 106.303 253.232 106.352 252.742 106.352C252.35 106.352 252.154 106.352 252.154 106.352C251.958 107.724 251.86 109.145 251.86 110.615C251.86 112.183 251.664 113.653 251.272 115.025C251.174 115.319 251.076 115.172 250.978 114.584C250.88 113.996 250.733 113.555 250.537 113.261C250.439 112.771 250.292 112.281 250.096 111.791C249.998 111.399 249.9 111.007 249.802 110.615C249.802 110.517 249.753 109.929 249.655 108.851C249.655 107.871 249.557 106.793 249.361 105.617C249.263 104.539 249.018 103.902 248.626 103.706C247.254 103.216 246.568 102.236 246.568 100.766C246.568 100.374 246.715 99.884 247.009 99.296C247.499 97.826 248.234 96.405 249.214 95.033L254.8 84.89C255.584 82.93 256.319 81.117 257.005 79.451C257.691 77.785 258.475 76.413 259.357 75.335C259.553 75.139 259.7 74.943 259.798 74.747C259.896 74.453 259.994 74.257 260.092 74.159C260.386 73.669 260.68 73.277 260.974 72.983C261.268 72.591 261.513 72.248 261.709 71.954L262.885 69.896L264.502 66.809C264.012 66.613 263.816 66.515 263.914 66.515C264.11 66.417 264.257 66.417 264.355 66.515C264.551 66.515 264.453 66.515 264.061 66.515H263.914L262.885 65.633C262.493 65.143 262.15 64.653 261.856 64.163C261.66 63.575 261.415 63.085 261.121 62.693C260.729 62.301 260.337 61.958 259.945 61.664C259.553 61.272 259.161 60.88 258.769 60.488C258.671 60.292 258.524 60.145 258.328 60.047C258.132 59.851 257.936 59.655 257.74 59.459C257.544 59.263 257.446 59.116 257.446 59.018C256.662 58.528 255.976 57.744 255.388 56.666C254.8 55.784 254.212 54.902 253.624 54.02C253.134 53.04 252.644 52.06 252.154 51.08L251.272 48.728C249.9 44.906 249.214 40.888 249.214 36.674C249.214 30.598 250.439 25.208 252.889 20.504L253.183 19.769C253.379 19.475 253.575 19.23 253.771 19.034C253.967 18.74 254.114 18.446 254.212 18.152L254.8 17.27C255.192 16.78 255.584 16.29 255.976 15.8C256.368 15.31 256.76 14.82 257.152 14.33C259.798 11.194 263.228 8.597 267.442 6.53899C267.736 6.245 268.128 5.951 268.618 5.657C269.206 5.36299 269.549 5.21599 269.647 5.21599C270.725 4.72599 271.852 4.334 273.028 4.04C274.204 3.648 275.38 3.354 276.556 3.15799C279.79 2.27599 283.318 1.68799 287.14 1.394C287.826 1.29599 288.561 1.24699 289.345 1.24699C290.227 1.24699 291.109 1.19799 291.991 1.09999H330.652C331.926 1.09999 333.2 1.05099 334.474 0.952995C335.846 0.854996 337.169 0.903996 338.443 1.09999H338.59C338.688 1.19799 338.835 1.24699 339.031 1.24699C339.913 1.54099 340.55 2.031 340.942 2.717C341.138 2.913 341.334 3.30499 341.53 3.89299C341.628 4.18699 341.677 4.53 341.677 4.922C341.677 5.216 341.677 5.559 341.677 5.95099V92.534C341.677 93.514 341.677 94.494 341.677 95.474C341.775 96.454 341.775 97.434 341.677 98.414ZM304.927 44.024V28.442H303.751C303.261 28.54 302.722 28.638 302.134 28.736C301.644 28.834 301.105 28.932 300.517 29.03C298.851 29.03 296.989 28.932 294.931 28.736C292.971 28.54 291.305 28.981 289.933 30.059C288.267 31.529 287.434 33.685 287.434 36.527C287.434 38.095 287.728 39.467 288.316 40.643C289.002 41.623 289.688 42.358 290.374 42.848C291.256 43.436 292.089 43.779 292.873 43.877C293.755 43.975 294.588 44.024 295.372 44.024H304.927ZM439.771 99.296C439.771 99.884 439.673 100.57 439.477 101.354C439.379 101.746 439.183 102.089 438.889 102.383C438.693 102.579 438.448 102.775 438.154 102.971C437.958 103.167 437.713 103.363 437.419 103.559C437.321 103.657 437.125 104 436.831 104.588C436.537 105.274 436.341 105.617 436.243 105.617C436.145 105.617 436.047 105.568 435.949 105.47C435.949 105.568 435.9 105.617 435.802 105.617C435.802 105.617 435.802 105.666 435.802 105.764C435.41 106.45 434.969 107.136 434.479 107.822C433.989 108.508 433.499 109.243 433.009 110.027L432.127 111.791C432.029 112.085 431.882 112.379 431.686 112.673C431.49 113.065 431.294 113.408 431.098 113.702L430.657 114.584C430.265 115.564 429.824 116.495 429.334 117.377C428.942 118.259 428.501 119.19 428.011 120.17C427.717 120.562 427.423 121.003 427.129 121.493C426.933 121.983 426.688 122.473 426.394 122.963L425.953 123.698C425.855 123.796 425.806 123.845 425.806 123.845C425.806 123.943 425.757 124.041 425.659 124.139C424.679 125.609 423.699 126.687 422.719 127.373C422.523 127.765 422.376 128.206 422.278 128.696C422.278 129.284 422.033 129.774 421.543 130.166C421.151 130.558 420.759 130.264 420.367 129.284C419.975 128.304 419.534 127.52 419.044 126.932C418.554 126.442 418.162 125.854 417.868 125.168C417.574 124.482 417.28 123.845 416.986 123.257L414.34 116.348C414.046 115.564 413.703 114.731 413.311 113.849C413.017 113.065 412.674 112.281 412.282 111.497C411.498 109.635 410.371 107.724 408.901 105.764L407.578 103.853L406.549 102.824C405.961 102.236 405.618 101.648 405.52 101.06C405.52 100.962 405.471 100.913 405.373 100.913C405.373 100.815 405.373 100.717 405.373 100.619C405.275 99.737 405.226 98.855 405.226 97.973C405.324 97.091 405.373 96.209 405.373 95.327V80.039L404.785 78.275C404.687 78.373 404.589 78.569 404.491 78.863C404.393 79.157 404.295 79.402 404.197 79.598C404.001 79.99 403.707 80.48 403.315 81.068C402.923 81.656 402.433 81.95 401.845 81.95C401.355 81.852 400.914 81.558 400.522 81.068C400.13 80.48 399.836 79.99 399.64 79.598C399.542 79.794 399.395 79.99 399.199 80.186C398.905 80.48 398.611 80.774 398.317 81.068C398.121 81.264 397.876 81.46 397.582 81.656C397.386 81.852 397.239 82.146 397.141 82.538C397.043 83.518 396.945 84.498 396.847 85.478C396.847 86.36 396.749 87.291 396.553 88.271C396.455 88.565 396.308 88.957 396.112 89.447C396.014 89.839 395.965 89.937 395.965 89.741C395.671 88.663 395.524 87.585 395.524 86.507C395.622 85.331 395.573 84.204 395.377 83.126C395.279 83.028 395.181 82.93 395.083 82.832C394.985 82.734 394.887 82.636 394.789 82.538L394.348 81.656C394.25 81.46 394.152 81.264 394.054 81.068C394.054 80.872 393.956 80.725 393.76 80.627C393.76 80.529 393.711 80.48 393.613 80.48C393.613 80.48 393.613 80.431 393.613 80.333C393.319 80.137 393.074 79.892 392.878 79.598C392.78 79.892 392.731 80.235 392.731 80.627C392.731 80.921 392.633 81.166 392.437 81.362C392.339 81.46 392.241 81.362 392.143 81.068C392.045 80.774 391.947 80.529 391.849 80.333L390.673 79.451V84.596C390.673 85.282 390.673 86.066 390.673 86.948C390.673 87.83 390.722 88.761 390.82 89.741V91.505C390.82 92.485 390.82 93.808 390.82 95.474C390.918 97.14 390.869 98.708 390.673 100.178C390.673 100.57 390.575 101.06 390.379 101.648C390.281 101.942 390.036 102.285 389.644 102.677C389.448 102.873 389.35 102.971 389.35 102.971C389.154 103.167 388.86 103.363 388.468 103.559C388.37 105.127 388.272 106.744 388.174 108.41C388.174 110.076 388.076 111.742 387.88 113.408C387.782 114.584 387.684 115.76 387.586 116.936C387.586 118.21 387.488 119.435 387.292 120.611C387.194 121.003 387.194 121.542 387.292 122.228C387.39 122.914 387.194 123.306 386.704 123.404C386.312 123.502 386.116 123.208 386.116 122.522C386.116 121.836 386.116 121.297 386.116 120.905C385.92 118.847 385.822 116.593 385.822 114.143C385.822 111.693 385.724 109.39 385.528 107.234L384.94 108.263C384.842 108.361 384.744 108.606 384.646 108.998C384.548 109.39 384.45 109.488 384.352 109.292C384.156 108.802 384.058 108.263 384.058 107.675C384.156 107.087 384.107 106.499 383.911 105.911L383.176 106.793C382.882 107.087 382.637 107.43 382.441 107.822C382.147 108.214 381.853 108.606 381.559 108.998C381.265 109.488 381.02 109.978 380.824 110.468C380.726 110.566 380.628 110.713 380.53 110.909C380.432 111.105 380.285 111.301 380.089 111.497C379.893 111.889 379.648 112.232 379.354 112.526C379.158 112.918 378.962 113.261 378.766 113.555C378.178 114.339 377.59 115.074 377.002 115.76C376.414 116.544 375.875 117.328 375.385 118.112C375.189 118.406 374.944 118.651 374.65 118.847C374.454 119.141 374.209 119.386 373.915 119.582C373.719 121.738 373.621 124.286 373.621 127.226C373.621 130.166 373.523 132.763 373.327 135.017C373.229 135.115 373.082 135.066 372.886 134.87C372.788 134.674 372.69 134.527 372.592 134.429C372.494 132.175 372.445 129.578 372.445 126.638C372.445 123.698 372.347 121.15 372.151 118.994C371.759 118.602 371.416 118.063 371.122 117.377C370.828 116.789 370.583 116.25 370.387 115.76H370.24C369.554 114.29 368.917 112.82 368.329 111.35C367.741 109.88 367.055 108.459 366.271 107.087C365.977 106.597 365.683 106.156 365.389 105.764C365.095 105.47 364.85 105.127 364.654 104.735C364.262 104.931 364.017 105.029 363.919 105.029H362.89C362.498 105.225 362.253 105.323 362.155 105.323C361.763 105.323 361.567 105.225 361.567 105.029C361.567 104.833 361.469 104.686 361.273 104.588C361.077 104.49 360.881 104.343 360.685 104.147C360.489 104.147 360.342 104.147 360.244 104.147C360.146 104.245 359.95 104.196 359.656 104C359.558 104 359.46 104 359.362 104C359.362 103.902 359.264 103.853 359.068 103.853C358.284 103.559 357.647 103.069 357.157 102.383C356.961 102.187 356.765 101.795 356.569 101.207C356.373 100.521 356.275 99.737 356.275 98.855C356.373 97.973 356.422 97.189 356.422 96.503V31.529C356.422 30.745 356.667 29.961 357.157 29.177L358.039 28.295C359.117 27.511 360.342 27.217 361.714 27.413C363.184 27.511 364.556 27.56 365.83 27.56H386.704C387.782 27.56 388.664 27.903 389.35 28.589C389.84 28.883 390.232 29.471 390.526 30.353C390.624 30.745 390.673 31.137 390.673 31.529C390.771 31.823 390.82 32.166 390.82 32.558C390.82 33.048 390.771 33.587 390.673 34.175C390.673 34.665 390.673 35.155 390.673 35.645V52.55H405.373V35.645C405.373 34.763 405.324 33.832 405.226 32.852C405.226 31.872 405.324 30.99 405.52 30.206C405.814 29.324 406.353 28.638 407.137 28.148C407.529 27.952 407.872 27.805 408.166 27.707C408.558 27.609 408.95 27.56 409.342 27.56C410.126 27.462 410.861 27.462 411.547 27.56C412.331 27.56 413.017 27.56 413.605 27.56H430.951C431.833 27.56 432.764 27.511 433.744 27.413C434.822 27.315 435.851 27.413 436.831 27.707C438.399 28.197 439.33 29.226 439.624 30.794C439.82 31.676 439.869 32.607 439.771 33.587C439.673 34.567 439.624 35.498 439.624 36.38V96.503C439.624 96.601 439.624 96.993 439.624 97.679C439.722 98.267 439.771 98.806 439.771 99.296ZM532.981 98.708C532.981 99.1 532.932 99.394 532.834 99.59C532.834 100.864 532.589 101.795 532.099 102.383C532.001 102.579 531.805 102.824 531.511 103.118C531.217 103.314 530.923 103.51 530.629 103.706C529.551 104.784 529.061 105.666 529.159 106.352C529.257 107.038 529.551 107.626 530.041 108.116C530.531 108.606 530.825 109.194 530.923 109.88C531.021 110.566 530.531 111.448 529.453 112.526C529.355 112.82 529.257 113.114 529.159 113.408C529.159 113.8 529.061 114.094 528.865 114.29C528.767 114.388 528.571 114.143 528.277 113.555C528.179 113.065 528.081 112.526 527.983 111.938C527.885 111.35 527.787 110.762 527.689 110.174C527.591 108.508 527.542 107.528 527.542 107.234C527.64 107.038 527.444 106.401 526.954 105.323L526.366 105.911C526.072 106.205 525.778 106.45 525.484 106.646C525.288 106.842 525.043 107.136 524.749 107.528C524.357 108.116 523.965 108.704 523.573 109.292C523.181 109.88 522.789 110.468 522.397 111.056C522.299 111.154 522.152 111.399 521.956 111.791C521.76 112.183 521.564 112.428 521.368 112.526C520.878 112.722 520.486 112.477 520.192 111.791C519.898 111.105 519.653 110.664 519.457 110.468C519.359 110.174 519.261 109.88 519.163 109.586C519.163 109.292 519.065 108.998 518.869 108.704C518.673 108.606 518.379 108.361 517.987 107.969C517.791 107.773 517.644 107.577 517.546 107.381L516.076 105.617L515.341 104.882C515.145 104.98 514.9 104.931 514.606 104.735C514.312 104.539 514.067 104.392 513.871 104.294C513.381 104.784 513.136 105.078 513.136 105.176C512.352 105.862 511.666 106.646 511.078 107.528C510.588 108.508 510.098 109.488 509.608 110.468C509.51 110.664 509.314 110.909 509.02 111.203C508.824 111.497 508.579 111.742 508.285 111.938C508.089 112.134 507.942 112.232 507.844 112.232C507.746 112.82 507.648 113.408 507.55 113.996C507.55 114.682 507.452 115.319 507.256 115.907C507.158 116.005 507.011 115.956 506.815 115.76C506.717 115.662 506.668 115.564 506.668 115.466C506.472 114.682 506.374 114.094 506.374 113.702C506.472 113.408 506.325 112.673 505.933 111.497C505.835 111.497 505.737 111.448 505.639 111.35C505.639 111.252 505.541 111.105 505.345 110.909C505.345 110.713 505.247 110.566 505.051 110.468C504.953 110.37 504.904 110.321 504.904 110.321L503.581 108.116L501.817 105.323C501.719 104.931 501.572 104.539 501.376 104.147C501.18 103.853 500.984 103.559 500.788 103.265L500.641 103.118C500.249 102.824 499.857 102.334 499.465 101.648C499.465 101.55 499.416 101.501 499.318 101.501C499.318 101.403 499.318 101.305 499.318 101.207C499.22 100.717 499.171 100.178 499.171 99.59C499.171 98.904 499.171 98.071 499.171 97.091V95.915C498.975 96.111 498.828 96.307 498.73 96.503L498.289 96.944C497.407 98.022 496.427 99.002 495.349 99.884C494.957 100.864 494.663 101.893 494.467 102.971C494.271 103.951 493.928 104.931 493.438 105.911C493.34 106.303 493.144 106.695 492.85 107.087C492.654 107.577 492.36 107.969 491.968 108.263C491.87 108.361 491.576 108.459 491.086 108.557C490.694 108.655 490.449 108.655 490.351 108.557C490.253 108.263 490.204 107.92 490.204 107.528C490.204 107.234 490.204 106.94 490.204 106.646C490.106 106.94 489.959 107.185 489.763 107.381C489.665 107.675 489.518 107.92 489.322 108.116C489.224 108.312 489.077 108.459 488.881 108.557C488.685 108.753 488.489 108.949 488.293 109.145C487.999 110.713 487.754 112.183 487.558 113.555C487.46 115.025 487.313 116.544 487.117 118.112C487.019 118.504 486.921 118.896 486.823 119.288C486.725 119.778 486.578 120.268 486.382 120.758C486.382 121.248 486.235 121.64 485.941 121.934C485.843 122.032 485.647 121.934 485.353 121.64C485.255 121.444 485.157 121.199 485.059 120.905C484.961 120.709 484.863 120.513 484.765 120.317C484.667 119.827 484.471 118.994 484.177 117.818C483.883 116.74 483.638 116.005 483.442 115.613C483.344 115.221 483.246 114.78 483.148 114.29C483.05 113.898 482.952 113.506 482.854 113.114C482.756 112.82 482.658 112.477 482.56 112.085C482.56 111.791 482.462 111.448 482.266 111.056L481.825 110.615C481.531 110.223 481.237 109.782 480.943 109.292C480.649 108.9 480.355 108.508 480.061 108.116C479.963 107.822 479.816 107.528 479.62 107.234C479.424 107.038 479.228 106.744 479.032 106.352C478.934 106.156 478.836 105.96 478.738 105.764C478.64 105.666 478.493 105.568 478.297 105.47H477.121C470.751 105.274 465.263 103.755 460.657 100.913C456.149 98.071 453.013 94.445 451.249 90.035C451.151 89.741 451.053 89.447 450.955 89.153C450.857 88.859 450.759 88.565 450.661 88.271C450.661 88.173 450.612 88.075 450.514 87.977C450.514 87.879 450.514 87.781 450.514 87.683C450.416 87.193 450.318 86.752 450.22 86.36C450.122 85.87 450.024 85.429 449.926 85.037C449.828 84.449 449.779 83.861 449.779 83.273C449.779 82.587 449.779 81.95 449.779 81.362C449.779 80.97 449.779 80.627 449.779 80.333C449.877 80.039 449.926 79.696 449.926 79.304L450.073 78.275C450.367 76.707 450.808 75.286 451.396 74.012C452.768 70.876 454.875 68.181 457.717 65.927C458.305 65.437 458.893 64.996 459.481 64.604C460.069 64.212 460.706 63.82 461.392 63.428L463.303 62.399C463.499 62.203 463.744 62.007 464.038 61.811C464.332 61.615 464.626 61.468 464.92 61.37C465.116 61.174 465.361 61.027 465.655 60.929C465.949 60.831 466.243 60.733 466.537 60.635C467.615 60.145 468.693 59.753 469.771 59.459C470.947 59.165 472.123 58.871 473.299 58.577C474.671 58.185 476.043 57.842 477.415 57.548C478.885 57.254 480.404 56.96 481.972 56.666L485.5 56.078C486.872 55.882 488.195 55.686 489.469 55.49C490.841 55.196 492.213 54.951 493.585 54.755C493.977 54.755 494.222 54.706 494.32 54.608L497.554 54.02V51.668C497.554 52.06 497.505 51.962 497.407 51.374C497.407 50.786 497.407 50.443 497.407 50.345C497.407 50.443 497.358 50.345 497.26 50.051C497.26 49.659 497.26 49.512 497.26 49.61C497.26 49.512 497.211 49.414 497.113 49.316C497.113 49.218 497.113 49.12 497.113 49.022C496.917 48.434 496.525 47.846 495.937 47.258C495.839 47.258 495.79 47.258 495.79 47.258C495.79 47.16 495.692 47.111 495.496 47.111C495.3 47.209 495.055 47.405 494.761 47.699C494.565 47.993 494.418 48.238 494.32 48.434C494.026 48.924 493.683 49.561 493.291 50.345C492.899 51.031 492.409 51.521 491.821 51.815C491.135 52.207 490.498 51.962 489.91 51.08C489.322 50.198 488.832 49.561 488.44 49.169C488.244 48.973 488.097 48.875 487.999 48.875L486.676 50.198C486.382 50.394 486.088 50.59 485.794 50.786C485.5 50.982 485.206 51.178 484.912 51.374C484.324 51.668 483.687 51.913 483.001 52.109C482.413 52.207 481.825 52.354 481.237 52.55C480.061 52.942 478.885 53.383 477.709 53.873C476.631 54.265 475.504 54.559 474.328 54.755C472.858 54.951 471.486 54.657 470.212 53.873C468.938 52.991 467.566 52.599 466.096 52.697C464.724 52.697 463.352 52.648 461.98 52.55C460.706 52.452 459.383 52.207 458.011 51.815C457.619 51.619 457.374 51.521 457.276 51.521C457.178 51.521 457.08 51.57 456.982 51.668C456.884 51.766 456.786 51.766 456.688 51.668C456.59 51.57 456.492 51.472 456.394 51.374C456.394 51.276 456.296 51.178 456.1 51.08C456.002 50.884 455.855 50.688 455.659 50.492C455.463 50.296 455.365 50.198 455.365 50.198C455.267 50.1 455.12 49.855 454.924 49.463C454.728 48.875 454.679 48.287 454.777 47.699C454.875 47.013 455.022 46.376 455.218 45.788C455.316 45.494 455.414 45.2 455.512 44.906C455.61 44.612 455.708 44.269 455.806 43.877C456.786 42.015 457.864 40.398 459.04 39.026C460.118 37.654 461.392 36.331 462.862 35.057C464.43 33.783 466.194 32.656 468.154 31.676C468.938 30.99 469.869 30.402 470.947 29.912C471.927 29.422 472.956 29.03 474.034 28.736C475.21 28.442 476.386 28.197 477.562 28.001C479.816 27.413 482.266 26.972 484.912 26.678C487.558 26.286 490.449 26.09 493.585 26.09H496.525C497.113 26.09 497.652 26.09 498.142 26.09C498.632 26.09 499.024 26.139 499.318 26.237L500.347 26.384H501.082C502.356 26.384 503.287 26.531 503.875 26.825C505.541 26.923 507.207 27.217 508.873 27.707C510.049 27.903 511.176 28.148 512.254 28.442C513.43 28.736 514.459 29.128 515.341 29.618C516.615 30.01 517.84 30.598 519.016 31.382C520.29 32.166 521.417 32.95 522.397 33.734C522.397 33.832 522.397 33.881 522.397 33.881C522.495 33.881 522.544 33.881 522.544 33.881C522.838 34.077 523.083 34.322 523.279 34.616C523.573 34.812 523.818 35.008 524.014 35.204C528.718 39.418 531.511 45.053 532.393 52.109C532.491 52.207 532.54 52.354 532.54 52.55C532.834 54.608 532.932 56.666 532.834 58.724C532.834 60.782 532.834 62.84 532.834 64.898V95.327C532.834 95.817 532.834 96.356 532.834 96.944C532.932 97.532 532.981 98.12 532.981 98.708ZM497.995 74.159V72.395C497.995 72.297 497.897 72.297 497.701 72.395C497.603 72.395 497.456 72.444 497.26 72.542C497.162 72.542 497.064 72.542 496.966 72.542C496.574 72.738 496.133 72.934 495.643 73.13C495.153 73.228 494.663 73.375 494.173 73.571C493.193 73.963 492.164 74.257 491.086 74.453C490.106 74.551 489.077 74.698 487.999 74.894C487.509 74.992 486.97 75.139 486.382 75.335C485.794 75.531 485.255 75.776 484.765 76.07C484.373 76.364 484.079 76.658 483.883 76.952C483.197 77.834 482.854 78.716 482.854 79.598C482.854 80.284 483.197 81.166 483.883 82.244C484.079 82.342 484.275 82.489 484.471 82.685C484.765 82.783 485.059 82.93 485.353 83.126L486.088 83.42C487.362 83.518 488.048 83.616 488.146 83.714C488.244 83.714 488.832 83.665 489.91 83.567C494.124 82.979 496.672 80.578 497.554 76.364C497.75 75.776 497.848 75.237 497.848 74.747C497.848 74.453 497.897 74.257 497.995 74.159ZM94.8202 122.767C94.8202 123.453 94.8692 124.237 94.9672 125.119C95.0652 125.903 95.0162 126.687 94.8202 127.471C94.8202 127.275 94.7712 127.373 94.6732 127.765C94.5752 128.059 94.5752 128.157 94.6732 128.059C94.5752 128.157 94.5262 128.255 94.5262 128.353C94.5262 128.451 94.4772 128.549 94.3792 128.647L93.6442 129.529L93.2032 129.97C93.1052 129.97 92.9582 130.068 92.7622 130.264C92.6642 130.46 92.5662 130.607 92.4682 130.705C92.0762 131.097 91.7332 131.636 91.4392 132.322C91.1452 132.91 90.7532 133.596 90.2632 134.38C89.8712 135.262 89.4792 136.144 89.0872 137.026C88.6952 137.908 88.2542 138.79 87.7642 139.672C87.0782 141.24 86.3432 142.857 85.5592 144.523C84.8732 146.091 83.9912 147.708 82.9132 149.374C82.2272 150.354 81.5902 151.04 81.0022 151.432C80.9042 151.628 80.8062 151.873 80.7082 152.167C80.7082 152.461 80.6102 152.706 80.4142 152.902C80.4142 152.902 80.2182 152.755 79.8262 152.461C79.7282 152.363 79.6302 152.216 79.5322 152.02C79.5322 151.824 79.2382 151.432 78.6502 150.844L78.3562 150.55C78.0622 150.06 77.7682 149.619 77.4742 149.227C77.2782 148.737 77.0822 148.296 76.8862 147.904L76.4452 147.022L76.2982 146.875L74.9752 144.376C74.0932 142.808 73.1622 141.289 72.1822 139.819C71.3002 138.251 70.3692 136.683 69.3892 135.115C68.9972 134.527 68.6542 133.988 68.3602 133.498L67.3312 132.028C67.0372 131.734 66.7432 131.44 66.4492 131.146V131.881V195.091C66.5472 195.875 66.5472 196.61 66.4492 197.296C66.4492 197.982 66.4492 198.472 66.4492 198.766V199.06C66.3512 199.158 66.3022 199.256 66.3022 199.354C66.1062 199.746 65.9592 199.991 65.8612 200.089C65.8612 200.187 65.8122 200.285 65.7142 200.383C65.3222 200.873 64.8322 201.265 64.2442 201.559C64.1462 201.657 64.0482 201.755 63.9502 201.853C63.8522 201.951 63.7542 202.049 63.6562 202.147C63.5582 202.343 63.4112 202.539 63.2152 202.735C63.0192 203.029 62.8232 203.274 62.6272 203.47C62.2352 203.862 61.7942 204.009 61.3042 203.911C61.1082 203.813 60.9122 203.617 60.7162 203.323C60.5202 203.127 60.3242 203.029 60.1282 203.029C59.9322 202.931 59.7362 202.98 59.5402 203.176C59.3442 203.47 59.1482 203.617 58.9522 203.617C58.1682 203.323 57.8252 203.029 57.9232 202.735C58.1192 202.441 57.7762 202.49 56.8942 202.882C56.6002 203.372 56.2572 204.009 55.8652 204.793C55.4732 205.675 54.9342 205.871 54.2482 205.381C54.0522 205.185 53.8562 204.891 53.6602 204.499C53.5622 204.205 53.3662 204.009 53.0722 203.911L52.9252 204.058C52.9252 204.156 52.8762 204.205 52.7782 204.205C52.7782 204.303 52.7782 204.352 52.7782 204.352L51.8962 204.94L51.3082 205.528C51.3082 205.626 51.2102 206.214 51.0142 207.292C50.8182 208.37 50.6222 209.448 50.4262 210.526C50.2302 211.604 50.1322 212.143 50.1322 212.143C50.0342 212.535 49.9362 212.976 49.8382 213.466C49.8382 213.956 49.7402 214.397 49.5442 214.789C49.4462 214.887 49.2992 214.936 49.1032 214.936C49.0052 215.034 48.9562 215.034 48.9562 214.936C48.7602 213.564 48.6622 212.192 48.6622 210.82C48.6622 209.448 48.5642 208.076 48.3682 206.704C48.3682 206.214 48.2212 205.675 47.9272 205.087C47.7312 204.891 47.3882 204.499 46.8982 203.911C46.5062 203.421 46.1632 203.029 45.8692 202.735H45.4282C44.9382 202.735 44.5952 202.686 44.3992 202.588C44.3012 202.784 44.1542 202.931 43.9582 203.029C43.7622 203.225 43.6642 203.372 43.6642 203.47L43.5172 203.617C43.0272 204.205 42.5372 204.793 42.0472 205.381C41.6552 205.969 41.2142 206.655 40.7242 207.439C40.5282 207.635 40.3812 207.831 40.2832 208.027C40.1852 208.125 40.0872 208.223 39.9892 208.321C39.8912 208.419 39.7442 208.566 39.5482 208.762C39.3522 208.958 39.1562 209.105 38.9602 209.203C38.8622 210.281 38.8132 211.849 38.8132 213.907C38.8132 216.063 38.7642 218.317 38.6662 220.669C38.6662 223.021 38.6172 225.226 38.5192 227.284C38.5192 229.44 38.4702 231.057 38.3722 232.135C38.3722 232.233 38.2742 232.184 38.0782 231.988C37.8822 231.792 37.7842 231.645 37.7842 231.547C37.1962 230.469 36.9512 228.901 37.0492 226.843C37.2452 224.883 37.4902 222.678 37.7842 220.228C38.0782 217.876 38.1762 215.622 38.0782 213.466C38.0782 211.408 37.6372 209.742 36.7552 208.468C36.7552 208.272 36.6572 208.125 36.4612 208.027C36.3632 207.929 36.3142 207.88 36.3142 207.88C35.9222 207.096 35.5302 206.361 35.1382 205.675C34.7462 204.989 34.3542 204.303 33.9622 203.617C33.9622 203.519 33.9132 203.421 33.8152 203.323C33.8152 203.323 33.8152 203.274 33.8152 203.176C33.7172 203.078 33.5702 202.833 33.3742 202.441C33.0802 202.147 32.7372 202 32.3452 202C32.2472 202 32.1492 202 32.0512 202C32.0512 201.902 31.9532 201.853 31.7572 201.853C30.9732 201.559 30.3362 201.069 29.8462 200.383C29.6502 200.187 29.4542 199.795 29.2582 199.207C29.0622 198.423 28.9642 197.688 28.9642 197.002C28.9642 196.512 28.9642 196.12 28.9642 195.826C29.0622 195.434 29.1112 195.042 29.1112 194.65V131.881L28.5232 130.705C28.5232 130.705 28.4252 130.901 28.2292 131.293C28.1312 131.391 28.0822 131.538 28.0822 131.734C27.9842 132.126 27.8862 132.518 27.7882 132.91C27.6902 133.302 27.5432 133.645 27.3472 133.939L26.4652 135.703C26.2692 136.095 26.0242 136.487 25.7302 136.879C25.4362 137.271 25.0932 137.663 24.7012 138.055C24.5052 138.251 24.4072 138.349 24.4072 138.349C24.2112 138.447 24.0152 138.594 23.8192 138.79C23.5252 139.182 23.3782 139.427 23.3782 139.525C23.3782 139.623 22.9862 140.015 22.2022 140.701C21.8102 140.701 21.6142 140.701 21.6142 140.701C21.4182 141.093 21.3692 141.583 21.4672 142.171C21.5652 142.759 21.3692 143.151 20.8792 143.347C20.5852 143.445 20.4382 143.249 20.4382 142.759C20.4382 142.171 20.3892 141.73 20.2912 141.436L19.8502 139.378C19.5562 139.182 19.2622 138.937 18.9682 138.643C18.6742 138.251 18.4292 137.957 18.2332 137.761C18.3312 137.859 18.2332 137.81 17.9392 137.614C17.6452 137.32 17.4492 137.124 17.3512 137.026L17.0572 136.732C16.8612 136.83 16.7142 137.026 16.6162 137.32C16.5182 137.614 16.4202 137.859 16.3222 138.055C16.2242 138.545 16.0772 138.986 15.8812 139.378C15.7832 139.77 15.7342 140.113 15.7342 140.407C15.7342 139.525 15.5382 138.447 15.1462 137.173C15.1462 137.271 15.0972 137.32 14.9992 137.32C14.9992 137.32 14.9992 137.369 14.9992 137.467C14.9012 137.467 14.8522 137.516 14.8522 137.614C14.7542 137.712 14.6562 137.81 14.5582 137.908C14.4602 138.006 14.2642 138.3 13.9702 138.79C13.7742 139.182 13.5782 139.476 13.3822 139.672C13.3822 139.672 13.3332 139.721 13.2352 139.819C13.2352 139.819 13.1862 139.819 13.0882 139.819C13.0882 139.819 13.0392 139.868 12.9412 139.966C12.9412 139.966 12.8922 139.966 12.7942 139.966C12.6962 140.946 12.6472 141.877 12.6472 142.759C12.7452 143.641 12.8432 144.572 12.9412 145.552C12.7452 144.278 12.3042 143.69 11.6182 143.788C11.0302 143.984 10.6872 144.278 10.5892 144.67C10.5892 143.788 10.5892 142.906 10.5892 142.024C10.6872 141.044 10.6872 140.113 10.5892 139.231C10.2952 139.035 10.0012 138.79 9.70721 138.496C9.41321 138.104 9.11921 137.761 8.82521 137.467L7.64921 136.291C6.86521 135.409 6.47321 134.968 6.47321 134.968C6.47321 134.968 6.37521 134.87 6.17921 134.674C5.98321 134.478 5.15021 133.596 3.68021 132.028C3.68021 132.224 3.58221 132.322 3.38621 132.322C3.28821 132.322 3.19021 132.175 3.09221 131.881C3.09221 131.587 3.04321 131.342 2.94521 131.146C3.04321 131.244 2.94521 131.097 2.65121 130.705C2.45521 130.215 2.30821 129.921 2.21021 129.823C1.23021 129.039 0.740211 128.01 0.740211 126.736V107.773C0.740211 107.283 0.691211 106.45 0.593211 105.274C0.593211 104 0.691211 102.922 0.887211 102.04C0.985211 101.844 1.03421 101.697 1.03421 101.599C1.03421 101.403 1.08321 101.256 1.18121 101.158C1.47521 100.57 1.86721 100.129 2.35721 99.835C2.45521 99.835 2.50421 99.835 2.50421 99.835C2.50421 99.737 2.55321 99.688 2.65121 99.688L2.79821 99.541C3.38621 99.247 3.92521 99.1 4.41521 99.1C5.19921 99.002 5.93421 99.002 6.62021 99.1C7.40421 99.1 8.13921 99.1 8.82521 99.1H85.5592C86.6372 99.1 87.7642 99.051 88.9402 98.953C90.1162 98.855 91.1942 98.953 92.1742 99.247C92.4682 99.345 92.7132 99.492 92.9092 99.688C93.2032 99.786 93.3992 99.933 93.4972 100.129C94.1832 100.619 94.5752 101.158 94.6732 101.746C94.7712 102.334 94.8202 102.971 94.8202 103.657C94.9182 105.225 94.9182 106.891 94.8202 108.655C94.8202 110.321 94.8202 111.987 94.8202 113.653V122.767ZM11.0302 153.49C11.2262 154.372 11.1772 154.274 10.8832 153.196C10.5892 152.118 10.3442 150.697 10.1482 148.933C10.0502 147.071 10.1972 145.65 10.5892 144.67C10.4912 146.238 10.4422 147.757 10.4422 149.227C10.5402 150.697 10.7362 152.118 11.0302 153.49ZM12.2062 153.343C12.0102 153.931 11.9612 153.931 12.0592 153.343C12.2552 152.657 12.4512 151.677 12.6472 150.403C12.8432 149.129 12.9412 147.953 12.9412 146.875C12.9412 147.953 12.8922 149.031 12.7942 150.109C12.7942 151.187 12.5982 152.265 12.2062 153.343ZM186.523 183.919C186.327 184.801 186.082 185.683 185.788 186.565C185.494 187.349 185.102 188.035 184.612 188.623C184.612 188.623 184.612 188.672 184.612 188.77C184.612 188.77 184.563 188.77 184.465 188.77C183.975 189.848 183.289 190.877 182.407 191.857C181.623 192.739 180.692 193.621 179.614 194.503C178.928 195.287 178.34 196.169 177.85 197.149C177.36 198.031 176.821 198.913 176.233 199.795C176.233 200.089 176.184 200.334 176.086 200.53C175.988 200.922 175.988 201.51 176.086 202.294C176.282 203.176 176.135 203.519 175.645 203.323C175.253 203.127 175.057 202.784 175.057 202.294C175.057 201.902 175.106 201.51 175.204 201.118C174.322 202.098 173.391 203.029 172.411 203.911C171.431 204.793 170.5 205.724 169.618 206.704C169.324 206.998 169.03 207.292 168.736 207.586C168.54 207.978 168.295 208.321 168.001 208.615C167.903 208.713 167.805 208.811 167.707 208.909C167.609 209.007 167.511 209.105 167.413 209.203C167.315 209.301 167.168 209.399 166.972 209.497C166.874 209.693 166.825 209.742 166.825 209.644C166.629 208.468 166.531 207.635 166.531 207.145C166.629 206.655 166.678 206.165 166.678 205.675C166.678 205.185 166.433 204.45 165.943 203.47C165.649 203.764 165.355 204.009 165.061 204.205H164.914C164.718 204.401 164.571 204.499 164.473 204.499C164.375 206.655 164.277 209.105 164.179 211.849C164.179 214.691 164.081 217.239 163.885 219.493C163.885 219.591 163.787 219.738 163.591 219.934C163.395 220.228 163.297 220.326 163.297 220.228C163.101 217.974 163.003 215.23 163.003 211.996C163.003 208.86 162.905 206.214 162.709 204.058C162.611 203.96 162.513 203.862 162.415 203.764C162.415 203.666 162.366 203.568 162.268 203.47H162.121C161.729 203.47 161.533 203.519 161.533 203.617C161.435 205.185 161.337 206.753 161.239 208.321C161.239 209.889 161.141 211.506 160.945 213.172C160.945 213.074 160.749 213.025 160.357 213.025C159.965 213.025 159.769 213.025 159.769 213.025C159.573 211.065 159.475 209.791 159.475 209.203C159.573 208.615 159.622 208.076 159.622 207.586C159.622 207.194 159.328 206.312 158.74 204.94C158.348 205.136 157.956 205.381 157.564 205.675C157.172 206.067 156.731 206.41 156.241 206.704C156.045 206.802 155.849 206.9 155.653 206.998C155.457 207.096 155.261 207.047 155.065 206.851C154.281 206.067 154.085 205.626 154.477 205.528C154.967 205.43 155.359 205.479 155.653 205.675C156.045 205.871 155.653 205.969 154.477 205.969H154.183C154.183 206.067 154.134 206.116 154.036 206.116C154.036 206.214 154.036 206.263 154.036 206.263L152.713 208.468C152.615 208.664 152.419 208.909 152.125 209.203C151.929 209.595 151.733 209.889 151.537 210.085C151.439 210.183 151.243 210.33 150.949 210.526C150.753 210.722 150.557 210.918 150.361 211.114C150.165 211.506 149.969 211.702 149.773 211.702C149.675 211.702 149.577 211.653 149.479 211.555C149.381 211.457 149.234 211.359 149.038 211.261C148.842 211.359 148.695 211.506 148.597 211.702C148.499 211.898 148.401 212.094 148.303 212.29C148.107 212.682 147.862 213.172 147.568 213.76C147.274 214.446 147.029 214.985 146.833 215.377C146.833 215.475 146.686 215.818 146.392 216.406C146.098 217.092 145.853 217.533 145.657 217.729C145.461 217.925 145.265 217.925 145.069 217.729C144.873 217.533 144.677 217.141 144.481 216.553C144.089 215.377 143.893 214.691 143.893 214.495C143.893 214.299 143.893 214.054 143.893 213.76C143.991 213.466 143.844 212.682 143.452 211.408C143.354 211.114 143.06 210.82 142.57 210.526C141.982 209.938 141.345 209.693 140.659 209.791C140.071 209.987 139.483 210.281 138.895 210.673C138.699 210.771 138.503 210.918 138.307 211.114C138.111 211.31 137.915 211.457 137.719 211.555C137.425 211.849 137.131 212.094 136.837 212.29C136.641 212.584 136.298 212.584 135.808 212.29C135.122 211.8 134.583 211.212 134.191 210.526C133.799 209.84 133.407 209.203 133.015 208.615C133.015 208.517 132.966 208.419 132.868 208.321C132.868 208.321 132.868 208.272 132.868 208.174C132.77 208.076 132.672 207.978 132.574 207.88C132.476 207.782 132.378 207.684 132.28 207.586L131.398 206.704C131.006 207.194 130.761 207.782 130.663 208.468C130.663 209.154 130.516 209.791 130.222 210.379C130.222 210.771 130.075 210.967 129.781 210.967C129.389 210.967 129.095 210.575 128.899 209.791C128.801 209.105 128.703 208.86 128.605 209.056C128.507 209.742 128.409 210.673 128.311 211.849C128.311 213.123 128.311 214.152 128.311 214.936C128.409 215.72 128.36 215.818 128.164 215.23C126.988 213.76 126.596 212.339 126.988 210.967C127.38 209.693 127.772 208.468 128.164 207.292C128.654 206.116 128.311 205.038 127.135 204.058L126.253 203.176C126.155 203.372 126.106 203.568 126.106 203.764C126.106 204.058 126.057 204.303 125.959 204.499C125.861 204.695 125.665 204.793 125.371 204.793C125.175 204.793 124.979 204.842 124.783 204.94C124.391 205.136 124.195 205.234 124.195 205.234C124.097 205.038 123.999 204.793 123.901 204.499C123.901 204.205 123.852 203.96 123.754 203.764L122.431 205.087C122.039 205.675 121.647 206.263 121.255 206.851C120.961 207.439 120.569 207.978 120.079 208.468L118.756 209.791C118.462 210.379 118.266 210.624 118.168 210.526C117.972 209.84 117.874 209.154 117.874 208.468C117.874 207.88 117.776 207.292 117.58 206.704C117.58 206.606 117.482 206.508 117.286 206.41C117.09 206.41 116.992 206.459 116.992 206.557C116.894 207.145 116.894 207.88 116.992 208.762C117.188 209.644 117.286 210.428 117.286 211.114C117.286 211.8 116.992 212.094 116.404 211.996C115.522 211.8 115.228 211.065 115.522 209.791C115.914 208.517 116.012 207.39 115.816 206.41C115.816 206.312 115.767 206.263 115.669 206.263C115.571 206.361 115.473 206.361 115.375 206.263C115.081 206.263 114.885 206.214 114.787 206.116C114.493 206.116 114.297 206.067 114.199 205.969C114.101 205.969 114.003 205.92 113.905 205.822C113.807 205.724 113.709 205.724 113.611 205.822C113.513 206.704 113.611 207.831 113.905 209.203C114.199 210.673 114.346 211.898 114.346 212.878C114.444 213.956 114.052 214.348 113.17 214.054C112.288 213.662 111.847 212.927 111.847 211.849C111.847 210.869 111.994 209.742 112.288 208.468C112.582 207.292 112.68 206.214 112.582 205.234C112.582 205.234 112.435 205.234 112.141 205.234C112.141 205.136 112.092 205.087 111.994 205.087C111.896 204.989 111.798 204.94 111.7 204.94C111.602 204.94 111.504 204.891 111.406 204.793C111.308 204.695 111.21 204.646 111.112 204.646C111.014 204.646 110.916 204.597 110.818 204.499C110.426 204.107 110.23 204.009 110.23 204.205C110.132 204.793 110.132 205.626 110.23 206.704C110.328 207.782 110.377 208.664 110.377 209.35C110.475 210.036 110.23 210.232 109.642 209.938C108.76 209.35 108.564 208.37 109.054 206.998C109.544 205.626 109.544 204.45 109.054 203.47C108.858 202.98 108.76 203.323 108.76 204.499C108.858 205.675 108.76 206.508 108.466 206.998C108.368 207.292 108.27 207.145 108.172 206.557C108.074 206.067 107.976 205.675 107.878 205.381C107.878 205.283 107.78 204.695 107.584 203.617C107.388 202.539 107.241 202 107.143 202L106.114 201.559C105.526 201.265 105.036 200.873 104.644 200.383C104.448 200.187 104.252 199.795 104.056 199.207C103.958 198.815 103.86 198.423 103.762 198.031C103.762 197.639 103.762 197.247 103.762 196.855C103.762 196.071 103.762 195.287 103.762 194.503C103.86 193.621 103.909 192.837 103.909 192.151V133.057C103.909 132.469 103.86 131.881 103.762 131.293C103.762 130.607 103.811 129.921 103.909 129.235L104.056 128.206C104.154 128.108 104.203 128.01 104.203 127.912C104.203 127.814 104.252 127.716 104.35 127.618C104.546 127.226 104.742 126.981 104.938 126.883C105.33 126.393 105.82 126.05 106.408 125.854C106.604 125.756 106.8 125.707 106.996 125.707C107.29 125.609 107.633 125.56 108.025 125.56H124.93C126.106 125.56 127.772 125.56 129.928 125.56C132.084 125.56 134.387 125.56 136.837 125.56C139.385 125.462 141.688 125.462 143.746 125.56H145.657C146.735 125.56 147.764 125.56 148.744 125.56C149.822 125.56 150.851 125.609 151.831 125.707C153.595 125.707 155.408 125.805 157.27 126.001C159.132 126.099 160.896 126.393 162.562 126.883L163.297 127.177C167.021 127.961 170.206 129.039 172.852 130.411C175.498 131.783 177.752 133.498 179.614 135.556C180.3 136.34 180.888 137.222 181.378 138.202C181.966 139.084 182.407 140.015 182.701 140.995C182.995 141.387 183.191 141.877 183.289 142.465C183.387 143.053 183.485 143.592 183.583 144.082C183.877 144.964 184.024 145.846 184.024 146.728C184.122 147.512 184.122 148.296 184.024 149.08C184.024 149.766 183.975 150.501 183.877 151.285C183.779 153.049 183.387 154.47 182.701 155.548C182.505 155.842 182.309 156.283 182.113 156.871C181.329 158.243 180.202 159.762 178.732 161.428L178.585 161.575C178.291 161.869 178.046 162.065 177.85 162.163C177.752 162.261 177.654 162.359 177.556 162.457C177.458 162.555 177.36 162.653 177.262 162.751L178.438 163.486C178.634 163.584 178.83 163.731 179.026 163.927C179.32 164.123 179.81 164.466 180.496 164.956C181.378 165.642 182.26 166.475 183.142 167.455C183.926 168.435 184.612 169.415 185.2 170.395C186.18 172.159 186.768 174.462 186.964 177.304C187.16 178.578 187.16 179.803 186.964 180.979C186.866 182.057 186.719 183.037 186.523 183.919ZM136.837 151.873V154.078C136.739 155.352 136.641 155.989 136.543 155.989C136.543 155.989 136.543 155.744 136.543 155.254C136.641 154.666 136.788 154.127 136.984 153.637C137.18 153.049 137.523 152.902 138.013 153.196H147.127C147.617 153.196 148.058 153.196 148.45 153.196C148.94 153.196 149.381 153.147 149.773 153.049C149.871 152.951 150.018 152.902 150.214 152.902C150.998 152.608 151.586 152.167 151.978 151.579L152.272 150.844C152.37 150.648 152.419 150.207 152.419 149.521V148.786C152.223 148.198 152.076 147.806 151.978 147.61C151.88 147.414 151.635 147.12 151.243 146.728C151.145 146.532 150.998 146.434 150.802 146.434C150.606 146.336 150.41 146.238 150.214 146.14C149.724 146.042 149.185 146.042 148.597 146.14C148.107 146.238 147.617 146.336 147.127 146.434C146.441 146.532 145.706 146.63 144.922 146.728C144.236 146.728 143.501 146.679 142.717 146.581C142.129 146.483 141.541 146.385 140.953 146.287C140.365 146.189 139.777 146.091 139.189 145.993C139.385 145.993 139.189 145.993 138.601 145.993C138.013 145.895 137.621 145.846 137.425 145.846C137.425 145.846 137.376 145.846 137.278 145.846C137.278 145.748 137.131 145.699 136.837 145.699V151.873ZM136.837 181.861H147.127C148.793 181.861 150.067 181.616 150.949 181.126C151.929 180.636 152.419 179.656 152.419 178.186V177.451C152.223 176.863 152.076 176.471 151.978 176.275C151.88 176.079 151.635 175.785 151.243 175.393C150.655 175.001 150.165 174.805 149.773 174.805C149.381 174.805 148.94 174.854 148.45 174.952C148.058 174.952 147.617 175.001 147.127 175.099C146.245 175.295 145.363 175.491 144.481 175.687C143.697 175.785 142.864 175.785 141.982 175.687C141.296 175.687 140.61 175.589 139.924 175.393C139.336 175.197 138.699 175.001 138.013 174.805C137.915 174.707 137.817 174.658 137.719 174.658C137.621 174.658 137.474 174.609 137.278 174.511C137.18 174.413 137.082 174.364 136.984 174.364C136.886 174.364 136.837 174.364 136.837 174.364V181.861ZM281.86 161.428C281.958 162.996 281.958 164.564 281.86 166.132C281.86 167.7 281.811 169.219 281.713 170.689C281.517 173.727 281.076 176.569 280.39 179.215C279.704 181.763 278.724 184.115 277.45 186.271C277.058 186.957 276.666 187.643 276.274 188.329C275.882 189.015 275.441 189.701 274.951 190.387C274.461 190.975 273.922 191.514 273.334 192.004C273.334 192.102 273.285 192.2 273.187 192.298C272.795 192.886 272.305 193.376 271.717 193.768C271.619 193.866 271.521 193.964 271.423 194.062C271.325 194.16 271.178 194.307 270.982 194.503C270.884 194.601 270.786 194.699 270.688 194.797C270.59 194.895 270.492 194.993 270.394 195.091L269.512 197.002C269.512 197.394 269.512 197.786 269.512 198.178C269.512 198.472 269.463 198.815 269.365 199.207C269.267 199.893 269.267 200.824 269.365 202C269.463 203.078 269.267 203.421 268.777 203.029C268.483 202.735 268.287 202.392 268.189 202C268.189 201.51 268.189 201.069 268.189 200.677C268.189 200.873 268.091 201.069 267.895 201.265C267.797 201.559 267.601 201.853 267.307 202.147C267.111 202.539 266.817 202.784 266.425 202.882C265.739 203.176 265.151 202.931 264.661 202.147C264.269 201.461 263.975 200.922 263.779 200.53C263.779 200.432 263.73 200.334 263.632 200.236C262.946 201.51 262.652 202.931 262.75 204.499C262.848 206.165 262.799 207.782 262.603 209.35C262.603 209.742 262.554 210.183 262.456 210.673C262.358 211.261 262.26 211.8 262.162 212.29C262.064 212.878 261.819 213.417 261.427 213.907C261.427 214.201 261.231 214.348 260.839 214.348C260.447 214.152 260.251 213.907 260.251 213.613C260.055 211.947 259.957 210.232 259.957 208.468C259.957 206.704 259.859 204.989 259.663 203.323C259.663 203.323 259.614 203.274 259.516 203.176C259.516 203.176 259.467 203.176 259.369 203.176C259.075 203.274 258.781 203.421 258.487 203.617C258.193 203.813 257.948 204.009 257.752 204.205C257.066 204.891 256.478 205.724 255.988 206.704C255.694 207.292 255.4 207.88 255.106 208.468C254.91 209.056 254.665 209.595 254.371 210.085C254.273 210.183 254.126 210.379 253.93 210.673C253.832 211.065 253.783 211.212 253.783 211.114C253.587 210.036 253.489 208.958 253.489 207.88C253.489 206.802 253.391 205.773 253.195 204.793C253.391 204.793 253.097 204.744 252.313 204.646C251.627 204.646 251.333 204.695 251.431 204.793C251.235 206.361 251.137 207.929 251.137 209.497C251.137 211.065 251.039 212.633 250.843 214.201C250.843 214.299 250.647 214.495 250.255 214.789C249.961 215.083 249.765 215.279 249.667 215.377C249.569 215.475 249.422 215.524 249.226 215.524C249.128 215.622 249.079 215.622 249.079 215.524C248.883 213.858 248.785 212.143 248.785 210.379C248.785 208.713 248.638 207.047 248.344 205.381C248.05 205.479 247.805 205.626 247.609 205.822C247.413 206.018 247.315 206.116 247.315 206.116C247.217 206.214 247.119 206.361 247.021 206.557C247.021 206.851 246.923 207.096 246.727 207.292C246.629 207.292 246.384 207.096 245.992 206.704C245.894 206.508 245.796 206.312 245.698 206.116C245.698 205.92 245.6 205.773 245.404 205.675C245.404 205.577 245.355 205.528 245.257 205.528C245.159 205.43 245.11 205.381 245.11 205.381C245.11 205.479 245.061 205.479 244.963 205.381H244.081C244.081 205.773 244.081 206.165 244.081 206.557C244.081 206.949 243.983 207.39 243.787 207.88C243.787 207.88 243.395 207.439 242.611 206.557C242.121 206.067 241.876 205.822 241.876 205.822C241.876 205.92 241.729 205.92 241.435 205.822C241.043 205.822 240.847 205.773 240.847 205.675C240.749 207.047 240.651 208.37 240.553 209.644C240.553 211.016 240.455 212.388 240.259 213.76C240.259 213.956 240.161 213.858 239.965 213.466C239.867 213.074 239.769 212.78 239.671 212.584C239.573 212.29 239.475 211.996 239.377 211.702C239.279 211.506 239.181 211.261 239.083 210.967C238.789 209.693 238.544 208.419 238.348 207.145C238.25 205.969 238.103 204.744 237.907 203.47H237.025C223.697 203.176 213.652 200.089 206.89 194.209L206.008 193.327C200.226 187.839 197.041 180.293 196.453 170.689C196.159 166.083 196.159 161.477 196.453 156.871C197.237 145.993 201.353 137.81 208.801 132.322C216.347 126.834 226.637 124.09 239.671 124.09H240.994C242.366 124.09 243.738 124.139 245.11 124.237C246.482 124.335 247.805 124.482 249.079 124.678C249.275 124.678 249.422 124.727 249.52 124.825C259.614 126.295 267.699 130.117 273.775 136.291C273.971 136.487 274.216 136.83 274.51 137.32C274.902 137.712 275.147 138.006 275.245 138.202C277.989 141.828 279.851 145.895 280.831 150.403C280.831 150.501 280.831 150.599 280.831 150.697C280.929 150.795 280.978 150.893 280.978 150.991C281.37 152.657 281.615 154.421 281.713 156.283C281.811 158.047 281.86 159.762 281.86 161.428ZM235.114 178.921C235.408 179.117 235.751 179.313 236.143 179.509C237.221 179.803 238.054 179.95 238.642 179.95C239.23 179.95 239.818 179.901 240.406 179.803H241.288C241.68 179.607 242.023 179.46 242.317 179.362C242.709 179.166 243.052 178.97 243.346 178.774C244.13 177.99 244.62 177.059 244.816 175.981C245.11 174.903 245.306 173.874 245.404 172.894C245.502 172.306 245.551 171.669 245.551 170.983C245.649 170.297 245.698 169.611 245.698 168.925C245.796 167.553 245.845 165.936 245.845 164.074C245.845 162.212 245.796 160.546 245.698 159.076C245.698 158.586 245.698 158.096 245.698 157.606C245.698 157.116 245.649 156.675 245.551 156.283C245.551 155.891 245.502 155.548 245.404 155.254C245.404 154.862 245.404 154.47 245.404 154.078C245.11 151.53 244.424 149.815 243.346 148.933C242.954 148.541 242.66 148.345 242.464 148.345C242.366 148.247 242.219 148.198 242.023 148.198C241.925 148.198 241.827 148.198 241.729 148.198C241.631 148.1 241.533 148.1 241.435 148.198C241.337 148.296 241.239 148.541 241.141 148.933C241.141 149.227 241.043 149.472 240.847 149.668C240.749 149.864 240.455 150.011 239.965 150.109C239.573 150.109 239.279 150.06 239.083 149.962C238.495 149.864 237.956 149.57 237.466 149.08H236.584C236.486 148.982 236.388 148.884 236.29 148.786C236.192 148.59 236.045 148.443 235.849 148.345C235.555 148.345 235.261 148.492 234.967 148.786C234.281 149.374 233.791 150.207 233.497 151.285C233.203 152.265 232.958 153.441 232.762 154.813C232.664 155.107 232.615 155.499 232.615 155.989C232.615 156.283 232.566 156.626 232.468 157.018C232.468 157.312 232.468 157.655 232.468 158.047C232.37 158.831 232.321 159.762 232.321 160.84C232.321 161.918 232.321 162.996 232.321 164.074C232.321 164.76 232.321 165.446 232.321 166.132C232.419 166.72 232.468 167.357 232.468 168.043C232.468 168.729 232.468 169.415 232.468 170.101C232.468 170.787 232.517 171.375 232.615 171.865C232.811 173.629 233.007 175.001 233.203 175.981C233.497 176.961 234.134 177.941 235.114 178.921ZM378.822 166.132C378.822 166.818 378.822 167.455 378.822 168.043C378.822 168.631 378.773 169.17 378.675 169.66C378.577 170.934 378.479 172.208 378.381 173.482C378.283 174.658 378.136 175.834 377.94 177.01C377.744 178.48 377.45 179.95 377.058 181.42C376.764 182.89 376.274 184.311 375.588 185.683L374.412 187.888C373.432 189.946 372.109 191.906 370.443 193.768C370.345 193.964 370.1 194.258 369.708 194.65C369.316 195.14 368.826 195.63 368.238 196.12C367.65 196.512 367.111 196.953 366.621 197.443C366.033 198.129 365.445 198.766 364.857 199.354C364.367 199.844 363.877 200.432 363.387 201.118C363.387 201.118 363.338 201.167 363.24 201.265C363.24 201.265 363.191 201.265 363.093 201.265L361.77 203.47C360.594 204.94 359.516 206.851 358.536 209.203C357.556 211.653 356.625 214.103 355.743 216.553C354.861 219.003 353.881 220.963 352.803 222.433C352.705 222.531 352.607 222.678 352.509 222.874C352.509 223.168 352.411 223.413 352.215 223.609C352.215 223.707 352.166 223.756 352.068 223.756C352.068 223.854 351.97 224.099 351.774 224.491C351.48 224.981 351.186 225.471 350.892 225.961C350.696 226.451 350.353 226.941 349.863 227.431C349.765 227.725 349.569 227.921 349.275 228.019L348.834 228.46C348.638 230.616 348.491 233.262 348.393 236.398C348.393 239.632 348.295 242.376 348.099 244.63C348.099 244.728 347.952 244.826 347.658 244.924C347.462 245.12 347.364 245.169 347.364 245.071C347.07 242.817 346.923 239.975 346.923 236.545C346.923 233.213 346.825 230.469 346.629 228.313C346.335 228.117 346.188 227.921 346.188 227.725C346.09 227.627 346.041 227.382 346.041 226.99C346.041 226.696 346.041 226.5 346.041 226.402C346.041 226.108 346.09 225.863 346.188 225.667C346.09 225.863 345.796 226.059 345.306 226.255C345.208 226.255 345.11 226.206 345.012 226.108C345.012 226.108 344.963 226.108 344.865 226.108C344.669 226.01 344.473 225.863 344.277 225.667C344.375 226.941 344.473 228.166 344.571 229.342C344.767 230.518 344.473 230.91 343.689 230.518C342.709 230.028 342.415 229.048 342.807 227.578C343.199 226.108 343.297 224.785 343.101 223.609C343.003 223.609 342.856 223.56 342.66 223.462C342.562 223.364 342.562 223.315 342.66 223.315C342.66 223.217 342.611 223.119 342.513 223.021C342.611 224.001 342.66 224.883 342.66 225.667C342.758 226.549 342.513 226.843 341.925 226.549C341.631 226.353 341.386 226.108 341.19 225.814C341.386 227.088 341.337 228.019 341.043 228.607C340.847 229.293 340.357 229.391 339.573 228.901C338.397 228.019 337.809 226.794 337.809 225.226C337.907 223.756 338.152 222.139 338.544 220.375C339.034 218.611 339.23 216.994 339.132 215.524C338.936 215.328 338.74 215.034 338.544 214.642C338.446 214.544 338.397 214.446 338.397 214.348C338.201 213.76 338.103 213.172 338.103 212.584C338.103 211.506 338.25 210.526 338.544 209.644C338.74 208.762 338.887 207.88 338.985 206.998C339.083 206.214 339.083 205.479 338.985 204.793C338.789 204.597 338.593 204.45 338.397 204.352C338.299 204.352 338.201 204.254 338.103 204.058C338.005 203.862 338.005 203.862 338.103 204.058H337.809V205.675C337.809 205.871 337.809 206.116 337.809 206.41C337.907 206.704 337.956 206.998 337.956 207.292C338.054 207.684 338.103 208.076 338.103 208.468C338.201 208.958 338.25 209.595 338.25 210.379C338.152 210.967 337.956 211.163 337.662 210.967C337.466 210.771 337.221 210.575 336.927 210.379C336.829 210.379 336.78 210.33 336.78 210.232C336.388 209.644 336.241 208.909 336.339 208.027C336.437 207.243 336.535 206.508 336.633 205.822C336.731 205.332 336.78 204.842 336.78 204.352C336.878 203.96 336.878 203.568 336.78 203.176C336.78 203.078 336.731 203.029 336.633 203.029C336.633 203.029 336.633 202.98 336.633 202.882L335.604 202.441L335.457 202.294C335.359 202.294 335.31 202.245 335.31 202.147C335.31 202.147 335.261 202.147 335.163 202.147C334.575 201.755 334.085 201.265 333.693 200.677C333.399 200.481 333.105 200.285 332.811 200.089C332.517 199.795 332.272 199.501 332.076 199.207C331.88 198.815 331.684 198.57 331.488 198.472C331.292 198.276 331.096 198.129 330.9 198.031C330.704 197.835 330.459 197.639 330.165 197.443C329.871 197.149 329.626 196.855 329.43 196.561C329.234 196.365 329.038 196.169 328.842 195.973C328.646 195.679 328.45 195.385 328.254 195.091C328.058 194.895 327.911 194.748 327.813 194.65C327.617 194.356 327.617 194.356 327.813 194.65C328.009 194.846 328.058 195.238 327.96 195.826V224.197C327.96 224.687 327.96 225.177 327.96 225.667C328.058 226.255 328.009 226.794 327.813 227.284C327.813 227.284 327.715 227.48 327.519 227.872C327.421 227.97 327.372 228.019 327.372 228.019C327.372 228.117 327.323 228.215 327.225 228.313C327.029 228.607 326.637 228.95 326.049 229.342C325.755 229.734 325.412 230.126 325.02 230.518C324.628 231.008 324.138 231.302 323.55 231.4C323.158 231.498 322.766 231.449 322.374 231.253C322.08 231.155 321.786 231.057 321.492 230.959C321.1 231.351 320.757 231.743 320.463 232.135C320.169 232.625 319.826 233.066 319.434 233.458C318.454 234.34 317.474 234.536 316.494 234.046C315.612 233.556 314.632 233.262 313.554 233.164H312.378C312.28 233.164 312.182 233.213 312.084 233.311C311.986 233.409 311.888 233.409 311.79 233.311C311.692 233.017 311.643 232.625 311.643 232.135L310.467 233.311C310.369 233.409 310.222 233.507 310.026 233.605C309.83 233.703 309.634 233.85 309.438 234.046C309.34 234.144 309.193 234.34 308.997 234.634C308.899 235.026 308.703 235.222 308.409 235.222C308.017 235.222 307.723 235.026 307.527 234.634C307.429 234.34 307.282 234.144 307.086 234.046C307.086 234.046 307.086 233.997 307.086 233.899C307.086 233.899 307.037 233.899 306.939 233.899C306.743 233.801 306.449 233.556 306.057 233.164L305.028 232.282L304.587 231.841C304.587 231.841 304.587 231.792 304.587 231.694C304.587 231.694 304.538 231.694 304.44 231.694C304.048 231.302 303.754 231.057 303.558 230.959L302.088 231.106C301.99 231.204 301.745 231.351 301.353 231.547C300.765 231.841 300.177 231.841 299.589 231.547C299.491 231.645 299.393 231.645 299.295 231.547C299.197 231.449 299.05 231.4 298.854 231.4C298.854 231.4 298.266 231.106 297.09 230.518C296.012 229.93 295.473 229.685 295.473 229.783C295.081 229.587 294.738 229.391 294.444 229.195C293.366 228.411 292.827 227.333 292.827 225.961V129.529C292.827 128.941 292.876 128.5 292.974 128.206C293.17 127.912 293.366 127.569 293.562 127.177C294.444 126.099 295.473 125.56 296.649 125.56C296.943 125.56 297.237 125.56 297.531 125.56C297.825 125.462 298.119 125.413 298.413 125.413C299.001 125.413 299.54 125.462 300.03 125.56C300.618 125.56 301.157 125.56 301.647 125.56H315.318C316.102 125.56 316.886 125.56 317.67 125.56C318.552 125.462 319.385 125.413 320.169 125.413C320.561 125.413 320.953 125.413 321.345 125.413C321.737 125.413 322.129 125.462 322.521 125.56C322.619 125.56 322.717 125.609 322.815 125.707C322.913 125.707 323.011 125.707 323.109 125.707C323.991 126.001 324.677 126.589 325.167 127.471C325.363 127.863 325.51 128.206 325.608 128.5C325.706 128.794 325.755 129.48 325.755 130.558V133.939C325.951 133.743 326.049 133.596 326.049 133.498C326.147 133.498 326.196 133.498 326.196 133.498C326.196 133.4 326.196 133.351 326.196 133.351L326.343 133.204C326.735 132.812 326.98 132.518 327.078 132.322C326.98 132.42 327.176 132.224 327.666 131.734C328.156 131.146 328.499 130.803 328.695 130.705C328.989 130.509 329.234 130.313 329.43 130.117C329.724 129.823 329.969 129.627 330.165 129.529C330.949 128.941 331.684 128.402 332.37 127.912C333.154 127.422 333.938 126.981 334.722 126.589C334.918 126.393 335.114 126.295 335.31 126.295C336.486 125.609 337.76 125.119 339.132 124.825C340.602 124.531 342.023 124.335 343.395 124.237C344.081 124.237 344.62 124.188 345.012 124.09H347.364C349.618 123.992 351.725 124.09 353.685 124.384C355.645 124.58 357.115 124.923 358.095 125.413C359.663 125.805 361.084 126.344 362.358 127.03C363.73 127.618 364.857 128.304 365.739 129.088L367.062 129.97C367.454 130.264 367.797 130.558 368.091 130.852C368.483 131.146 368.826 131.489 369.12 131.881C371.864 134.625 374.069 138.153 375.735 142.465C377.401 146.679 378.381 151.873 378.675 158.047C378.773 159.419 378.822 160.644 378.822 161.722C378.822 162.8 378.822 164.025 378.822 165.397V166.132ZM328.107 171.13C328.303 172.012 328.548 172.894 328.842 173.776C329.234 174.56 329.773 175.246 330.459 175.834C331.439 176.52 332.615 176.912 333.987 177.01C334.183 177.108 334.428 177.157 334.722 177.157C335.016 177.157 335.261 177.157 335.457 177.157L336.633 177.01C337.025 176.912 337.368 176.863 337.662 176.863C338.054 176.765 338.397 176.667 338.691 176.569L339.426 176.128C340.504 175.344 341.239 174.413 341.631 173.335C342.121 172.159 342.464 170.591 342.66 168.631C342.758 168.141 342.807 167.651 342.807 167.161C342.807 166.671 342.807 166.23 342.807 165.838V161.575C342.807 161.085 342.758 160.546 342.66 159.958C342.66 159.37 342.611 158.782 342.513 158.194C342.513 157.704 342.464 157.312 342.366 157.018C342.268 155.842 341.974 154.813 341.484 153.931C340.994 152.951 340.455 152.216 339.867 151.726C339.475 151.432 339.083 151.285 338.691 151.285C338.397 151.285 338.005 151.285 337.515 151.285C336.731 151.285 335.898 151.285 335.016 151.285C334.134 151.285 333.301 151.334 332.517 151.432C332.223 151.53 331.88 151.628 331.488 151.726C331.096 151.726 330.753 151.824 330.459 152.02C329.773 152.706 329.234 153.49 328.842 154.372C328.548 155.254 328.303 156.185 328.107 157.165C328.107 157.557 328.058 157.998 327.96 158.488C327.96 158.88 327.96 159.272 327.96 159.664C327.862 160.154 327.813 160.693 327.813 161.281C327.813 161.771 327.813 162.261 327.813 162.751C327.715 163.829 327.666 164.907 327.666 165.985C327.764 167.063 327.862 168.337 327.96 169.807V170.542C328.058 170.64 328.107 170.836 328.107 171.13ZM340.749 211.555C340.847 211.359 340.896 211.114 340.896 210.82C340.896 210.624 340.945 210.428 341.043 210.232C341.141 209.644 341.19 209.056 341.19 208.468C341.288 207.978 341.337 207.439 341.337 206.851C341.337 206.459 341.337 206.263 341.337 206.263C341.337 206.263 341.19 206.214 340.896 206.116C340.896 206.116 340.847 206.067 340.749 205.969C340.651 205.871 340.504 205.724 340.308 205.528H340.161V206.851C340.161 207.341 340.161 207.831 340.161 208.321C340.259 208.909 340.357 209.448 340.455 209.938C340.553 210.134 340.602 210.379 340.602 210.673C340.602 210.967 340.651 211.261 340.749 211.555ZM342.513 206.851V208.174L342.807 211.114C342.905 210.624 342.954 210.183 342.954 209.791C343.052 209.497 343.101 209.007 343.101 208.321V207.145C342.905 206.949 342.709 206.851 342.513 206.851ZM344.571 208.174C344.963 208.958 345.159 209.938 345.159 211.114C345.159 211.408 345.159 211.702 345.159 211.996C345.159 212.29 345.11 212.584 345.012 212.878V213.025C345.208 214.593 345.453 216.21 345.747 217.876C346.041 219.542 346.237 221.208 346.335 222.874V223.756C346.433 223.462 346.482 223.168 346.482 222.874C346.482 222.678 346.531 222.482 346.629 222.286C346.629 222.09 346.629 221.796 346.629 221.404C346.727 221.012 346.776 220.816 346.776 220.816C347.07 218.562 347.217 216.21 347.217 213.76C347.315 211.408 346.727 209.546 345.453 208.174C345.159 207.782 344.914 207.586 344.718 207.586C344.62 207.684 344.571 207.831 344.571 208.027H344.424C344.424 208.027 344.424 207.978 344.424 207.88C344.424 207.88 344.375 207.831 344.277 207.733C343.983 207.341 343.787 207.145 343.689 207.145C343.591 207.243 343.542 207.488 343.542 207.88C343.64 208.37 343.689 208.664 343.689 208.762C343.787 209.546 343.885 210.33 343.983 211.114C344.179 211.898 344.326 212.682 344.424 213.466L344.718 215.083C344.816 214.789 344.865 214.495 344.865 214.201C344.865 213.907 344.914 213.613 345.012 213.319V213.172C344.718 211.506 344.522 210.33 344.424 209.644C344.424 209.056 344.473 208.566 344.571 208.174ZM341.043 224.344C341.141 223.658 341.239 222.972 341.337 222.286C341.435 221.6 341.435 220.963 341.337 220.375C341.239 220.375 341.092 220.326 340.896 220.228C340.798 220.13 340.798 220.081 340.896 220.081C340.798 219.983 340.749 219.885 340.749 219.787C340.749 219.787 340.7 219.738 340.602 219.64C340.504 219.542 340.455 219.395 340.455 219.199C340.455 219.101 340.406 219.003 340.308 218.905C340.406 219.787 340.504 220.669 340.602 221.551C340.798 222.531 340.945 223.462 341.043 224.344ZM476.302 193.18C476.302 193.866 476.302 194.552 476.302 195.238C476.4 195.826 476.4 196.463 476.302 197.149V198.472C476.204 199.354 475.91 200.089 475.42 200.677L474.538 201.559C474.146 201.853 473.656 202.147 473.068 202.441C472.578 202.735 472.137 203.029 471.745 203.323C471.451 203.519 471.157 203.715 470.863 203.911C470.569 204.205 470.275 204.499 469.981 204.793C469.883 204.891 469.785 205.038 469.687 205.234C469.589 205.43 469.491 205.479 469.393 205.381C468.707 204.303 468.511 203.764 468.805 203.764C469.197 203.862 469.54 204.009 469.834 204.205C470.128 204.499 469.785 204.499 468.805 204.205H468.658H468.511C468.511 204.205 468.413 204.303 468.217 204.499C468.119 204.793 468.021 205.087 467.923 205.381C467.923 205.773 467.825 206.165 467.629 206.557C467.531 206.753 467.433 206.998 467.335 207.292C467.335 207.586 467.237 207.831 467.041 208.027C466.845 208.223 466.649 208.223 466.453 208.027C466.257 207.733 466.159 207.39 466.159 206.998C466.159 206.606 466.061 206.263 465.865 205.969C465.669 206.067 465.473 206.214 465.277 206.41C464.983 206.704 464.738 207.047 464.542 207.439C464.052 208.125 463.611 208.811 463.219 209.497C462.925 210.281 462.533 211.016 462.043 211.702C461.945 211.8 461.847 211.898 461.749 211.996C461.651 212.192 461.504 212.339 461.308 212.437C461.112 212.633 460.867 212.731 460.573 212.731C460.181 212.731 459.838 212.486 459.544 211.996C459.446 211.8 459.348 211.604 459.25 211.408C459.152 211.212 459.054 211.065 458.956 210.967C458.368 209.889 457.829 208.811 457.339 207.733C456.947 206.655 456.506 205.626 456.016 204.646C455.624 204.646 455.428 204.646 455.428 204.646C455.036 206.116 454.938 207.635 455.134 209.203C455.428 210.771 455.526 212.094 455.428 213.172C455.33 214.348 454.546 215.034 453.076 215.23C452.39 215.328 451.802 215.181 451.312 214.789C450.92 214.397 450.528 213.907 450.136 213.319C449.352 212.143 448.666 210.869 448.078 209.497C447.49 208.223 446.853 206.949 446.167 205.675L445.285 204.499C445.187 204.303 445.089 204.058 444.991 203.764C444.991 203.47 444.893 203.372 444.697 203.47C444.501 203.764 444.403 204.254 444.403 204.94C444.403 205.724 444.305 205.969 444.109 205.675C443.815 204.989 443.717 204.254 443.815 203.47C443.913 202.784 443.864 202.098 443.668 201.412C443.276 201.02 442.982 200.677 442.786 200.383C442.59 199.991 442.443 199.746 442.345 199.648C442.345 199.55 442.296 199.501 442.198 199.501C442.198 199.403 442.198 199.305 442.198 199.207C442.1 198.913 442.051 198.619 442.051 198.325C442.051 197.933 442.051 197.541 442.051 197.149C441.953 195.973 441.904 194.797 441.904 193.621C442.002 192.445 442.051 191.318 442.051 190.24V168.19C441.659 168.876 441.218 169.611 440.728 170.395C440.238 171.081 439.748 171.816 439.258 172.6L435.142 178.774C434.456 180.048 433.77 181.322 433.084 182.596C432.398 183.772 431.663 184.899 430.879 185.977C430.683 186.271 430.487 186.565 430.291 186.859C430.095 187.153 429.899 187.398 429.703 187.594C429.311 188.182 428.919 188.721 428.527 189.211C428.135 189.701 427.743 190.191 427.351 190.681L426.322 192.298C425.636 193.474 424.901 194.699 424.117 195.973C423.431 197.149 422.549 198.423 421.471 199.795C421.177 200.187 420.834 200.53 420.442 200.824C420.344 200.922 420.246 201.02 420.148 201.118C420.05 201.216 419.952 201.314 419.854 201.412C419.462 202.784 419.217 204.205 419.119 205.675C419.021 207.145 418.874 208.566 418.678 209.938C418.58 210.428 418.482 210.967 418.384 211.555C418.286 212.143 418.139 212.731 417.943 213.319C417.845 213.711 417.747 214.299 417.649 215.083C417.551 215.867 417.453 216.063 417.355 215.671C416.473 214.593 416.032 213.515 416.032 212.437C416.13 211.359 416.326 210.33 416.62 209.35C417.012 208.468 417.208 207.635 417.208 206.851C417.306 206.165 416.865 205.626 415.885 205.234C415.689 205.43 415.444 205.626 415.15 205.822C414.856 206.018 414.611 206.214 414.415 206.41C414.023 206.704 413.631 206.949 413.239 207.145C412.945 207.341 412.553 207.439 412.063 207.439C411.965 207.439 411.867 207.439 411.769 207.439C411.671 207.537 411.573 207.537 411.475 207.439C411.377 206.949 411.328 206.41 411.328 205.822C411.328 205.234 411.279 204.695 411.181 204.205C410.985 204.499 410.789 205.038 410.593 205.822C410.103 207.292 409.613 208.762 409.123 210.232C408.633 211.702 408.143 213.172 407.653 214.642C407.555 215.034 407.31 215.573 406.918 216.259C406.624 217.043 406.183 217.435 405.595 217.435C405.301 217.435 405.105 217.386 405.007 217.288C404.615 217.092 404.272 216.749 403.978 216.259C403.782 215.867 403.586 215.524 403.39 215.23C403.194 214.838 402.998 214.446 402.802 214.054C402.606 213.76 402.41 213.466 402.214 213.172C401.92 212.584 401.577 211.996 401.185 211.408C400.891 210.918 400.646 210.379 400.45 209.791C400.058 209.007 399.666 208.223 399.274 207.439C398.98 206.655 398.588 205.92 398.098 205.234C397.902 205.038 397.706 204.842 397.51 204.646C397.314 204.548 397.118 204.45 396.922 204.352C396.432 204.646 396.138 205.43 396.04 206.704C396.04 207.978 396.04 209.105 396.04 210.085C396.138 211.065 396.04 211.261 395.746 210.673C395.648 210.477 395.648 209.693 395.746 208.321C395.844 207.047 395.795 205.822 395.599 204.646C395.599 204.94 395.452 205.185 395.158 205.381C394.864 205.577 394.717 205.43 394.717 204.94C394.717 204.45 394.668 204.058 394.57 203.764C394.472 203.47 394.374 203.176 394.276 202.882C394.178 202.686 394.08 202.441 393.982 202.147C393.884 202.147 393.786 202.098 393.688 202C393.59 202 393.443 202 393.247 202C393.149 202 393.051 202 392.953 202C392.953 201.902 392.855 201.853 392.659 201.853C391.875 201.559 391.238 201.069 390.748 200.383C390.552 200.187 390.356 199.795 390.16 199.207C389.964 198.521 389.866 197.737 389.866 196.855C389.964 195.973 390.013 195.189 390.013 194.503V142.465C390.013 140.701 389.964 138.643 389.866 136.291C389.866 133.939 389.915 131.685 390.013 129.529C390.013 128.451 390.405 127.52 391.189 126.736C391.385 126.54 391.581 126.344 391.777 126.148C392.071 125.952 392.414 125.805 392.806 125.707C393.296 125.511 393.786 125.462 394.276 125.56C394.864 125.56 395.403 125.56 395.893 125.56H416.179C416.865 125.56 417.6 125.56 418.384 125.56C419.168 125.462 419.903 125.462 420.589 125.56C420.883 125.56 421.177 125.609 421.471 125.707C421.765 125.805 422.059 125.952 422.353 126.148C422.549 126.246 422.745 126.393 422.941 126.589C423.235 126.687 423.431 126.883 423.529 127.177C423.725 127.373 423.823 127.569 423.823 127.765C424.019 128.157 424.117 128.549 424.117 128.941C424.215 129.333 424.264 129.676 424.264 129.97V159.37L429.85 150.844C429.948 150.746 430.095 150.501 430.291 150.109C431.075 148.737 431.908 147.316 432.79 145.846C433.672 144.376 434.554 142.955 435.436 141.583L437.053 139.084C438.229 137.418 439.209 136.193 439.993 135.409C439.993 135.311 439.993 135.262 439.993 135.262C440.091 135.164 440.14 135.115 440.14 135.115L441.022 133.645L443.374 129.97C443.962 128.99 444.648 128.01 445.432 127.03C445.922 126.638 446.363 126.344 446.755 126.148C447.245 125.854 447.784 125.658 448.372 125.56H472.333C472.725 125.56 473.215 125.658 473.803 125.854C473.901 125.854 473.95 125.903 473.95 126.001C474.048 126.001 474.146 126.001 474.244 126.001C475.028 126.393 475.567 126.981 475.861 127.765C476.155 128.157 476.302 128.647 476.302 129.235C476.4 129.921 476.4 130.656 476.302 131.44C476.302 132.224 476.302 132.959 476.302 133.645V193.18ZM563.78 143.935C563.78 144.523 563.78 145.16 563.78 145.846C563.878 146.434 563.878 147.022 563.78 147.61C563.78 148.1 563.731 148.443 563.633 148.639C563.535 148.737 563.486 148.835 563.486 148.933C563.486 149.031 563.437 149.129 563.339 149.227C563.535 149.031 563.437 149.129 563.045 149.521C562.751 149.913 562.653 150.06 562.751 149.962C562.653 150.06 562.555 150.158 562.457 150.256C562.359 150.354 562.261 150.452 562.163 150.55C562.163 150.55 562.114 150.599 562.016 150.697C562.016 150.697 561.967 150.697 561.869 150.697C561.869 150.697 561.82 150.746 561.722 150.844C561.722 150.844 561.673 150.844 561.575 150.844C561.477 151.04 561.379 151.285 561.281 151.579C561.281 151.873 561.183 152.118 560.987 152.314C560.791 152.902 560.595 153.392 560.399 153.784C560.301 153.98 560.203 154.323 560.105 154.813C560.105 155.205 560.007 155.303 559.811 155.107C559.615 154.911 559.517 154.47 559.517 153.784C559.419 153.882 559.321 153.98 559.223 154.078C559.125 154.176 559.027 154.274 558.929 154.372C558.733 154.568 558.635 154.666 558.635 154.666C558.537 154.764 558.439 154.862 558.341 154.96C558.243 154.96 558.145 155.009 558.047 155.107C557.949 156.381 557.851 157.655 557.753 158.929C557.753 160.203 557.655 161.477 557.459 162.751C557.459 163.437 557.459 164.466 557.459 165.838C557.459 167.21 557.41 168.337 557.312 169.219C557.312 170.101 557.165 170.199 556.871 169.513C556.381 167.847 556.185 166.132 556.283 164.368C556.479 162.506 556.479 160.742 556.283 159.076C556.283 158.88 556.234 158.88 556.136 159.076C556.038 159.272 555.94 159.37 555.842 159.37C555.744 159.468 555.646 159.517 555.548 159.517C555.45 159.419 555.352 159.37 555.254 159.37C555.156 159.272 555.009 159.076 554.813 158.782C554.715 158.488 554.666 158.439 554.666 158.635C554.47 160.595 554.421 162.604 554.519 164.662C554.715 166.72 554.568 168.729 554.078 170.689C553.882 171.375 553.735 171.277 553.637 170.395C553.637 169.415 553.637 168.239 553.637 166.867C553.637 165.397 553.588 164.27 553.49 163.486C553.392 161.918 553.343 160.84 553.343 160.252C553.343 159.664 553.294 159.076 553.196 158.488C553.196 157.9 553 156.871 552.608 155.401C552.608 155.401 552.559 155.45 552.461 155.548C552.461 155.548 552.412 155.548 552.314 155.548L551.873 155.989C551.775 157.557 551.677 159.125 551.579 160.693C551.579 162.261 551.481 163.829 551.285 165.397C551.285 165.495 551.187 165.642 550.991 165.838C550.795 166.034 550.648 166.083 550.55 165.985C549.864 164.515 549.619 163.192 549.815 162.016C550.011 160.84 550.207 159.713 550.403 158.635C550.599 157.459 550.207 156.136 549.227 154.666L548.345 153.049C548.149 154.029 548.051 155.009 548.051 155.989C548.051 156.871 547.953 157.802 547.757 158.782C547.659 158.978 547.561 158.88 547.463 158.488C547.365 157.998 547.267 157.655 547.169 157.459C547.071 157.165 546.875 156.871 546.581 156.577C546.385 156.283 546.189 155.989 545.993 155.695C545.601 155.107 544.866 154.519 543.788 153.931C542.71 153.245 541.73 152.559 540.848 151.873C540.064 150.305 539.672 149.521 539.672 149.521C539.672 149.521 539.77 149.913 539.966 150.697C540.26 151.383 540.358 151.971 540.26 152.461C540.358 153.049 540.358 153.637 540.26 154.225C540.26 154.813 540.26 155.45 540.26 156.136V197.443C540.26 197.737 540.26 198.08 540.26 198.472C540.26 198.766 540.211 199.06 540.113 199.354L539.672 200.236L539.231 200.677C539.133 200.775 539.035 200.873 538.937 200.971C538.937 201.069 538.839 201.167 538.643 201.265C538.643 201.265 538.594 201.314 538.496 201.412C538.496 201.412 538.447 201.412 538.349 201.412C538.349 201.412 538.3 201.461 538.202 201.559C538.202 201.559 538.153 201.559 538.055 201.559C537.957 201.853 537.614 202.343 537.026 203.029L536.879 203.176C536.781 203.274 536.585 203.568 536.291 204.058C536.095 204.646 535.801 205.185 535.409 205.675C535.213 206.067 534.968 206.508 534.674 206.998C534.478 207.488 534.282 207.978 534.086 208.468L532.763 211.261C532.665 211.457 532.567 211.653 532.469 211.849C532.371 212.045 532.224 212.241 532.028 212.437C531.342 213.907 530.509 215.475 529.529 217.141C528.941 217.925 528.5 218.366 528.206 218.464C528.108 219.248 528.157 220.277 528.353 221.551C528.549 222.825 528.647 223.903 528.647 224.785C528.745 225.765 528.353 226.157 527.471 225.961C526.687 225.765 526.295 225.177 526.295 224.197C526.295 223.315 526.393 222.286 526.589 221.11C526.883 220.032 526.981 219.052 526.883 218.17C526.785 218.072 526.736 217.974 526.736 217.876C526.638 217.876 526.54 217.827 526.442 217.729L525.707 216.553C525.707 216.553 525.707 216.504 525.707 216.406C525.707 216.406 525.658 216.406 525.56 216.406C525.56 216.308 525.511 216.21 525.413 216.112C525.413 216.112 525.413 216.063 525.413 215.965C525.217 215.573 525.119 215.328 525.119 215.23C524.727 214.152 524.286 213.123 523.796 212.143C523.404 211.163 522.914 210.232 522.326 209.35C522.228 209.252 522.13 209.154 522.032 209.056C521.934 208.958 521.836 208.86 521.738 208.762C521.444 208.566 521.15 208.468 520.856 208.468C520.562 208.468 520.268 208.517 519.974 208.615C519.68 208.909 519.288 209.056 518.798 209.056C518.112 209.056 517.426 208.811 516.74 208.321C516.054 207.929 515.466 207.488 514.976 206.998L513.8 205.822C513.31 205.136 512.82 204.401 512.33 203.617C511.938 202.931 511.35 202.392 510.566 202C510.468 202.882 510.566 203.96 510.86 205.234C511.252 206.606 511.056 207.243 510.272 207.145C509.488 207.047 509.194 206.361 509.39 205.087C509.684 203.911 509.635 202.833 509.243 201.853L508.361 201.412C507.185 200.53 506.597 199.354 506.597 197.884C506.499 196.806 506.45 195.728 506.45 194.65C506.548 193.572 506.597 192.592 506.597 191.71V153.637L506.009 151.285C506.009 151.383 505.813 151.922 505.421 152.902C505.029 153.784 504.833 154.225 504.833 154.225C504.441 155.499 504 156.822 503.51 158.194C503.02 159.468 502.53 160.791 502.04 162.163C501.648 163.045 501.256 163.78 500.864 164.368C500.766 164.564 500.619 164.809 500.423 165.103C500.325 165.397 500.276 165.495 500.276 165.397C500.08 163.535 499.982 161.673 499.982 159.811C499.982 157.949 499.884 156.087 499.688 154.225C499.688 154.323 499.443 154.372 498.953 154.372C498.757 154.764 498.561 155.156 498.365 155.548C498.169 155.94 497.924 156.332 497.63 156.724C497.238 157.606 496.601 158.292 495.719 158.782C495.719 158.88 495.474 159.272 494.984 159.958C494.592 160.546 494.396 160.84 494.396 160.84C494.004 161.036 493.808 160.84 493.808 160.252C493.514 159.566 493.367 159.223 493.367 159.223C493.465 159.125 493.514 159.027 493.514 158.929C493.514 158.831 493.22 158.439 492.632 157.753L489.986 155.107C489.692 154.813 489.398 154.519 489.104 154.225C488.81 153.833 488.32 153.441 487.634 153.049C487.438 152.853 487.242 152.755 487.046 152.755C486.85 153.245 486.752 153.882 486.752 154.666C486.85 155.352 486.703 155.94 486.311 156.43C486.213 156.626 486.115 156.43 486.017 155.842C486.017 155.254 485.919 154.764 485.723 154.372L485.282 152.461C485.184 152.265 485.086 152.02 484.988 151.726C484.988 151.432 484.939 151.138 484.841 150.844C484.057 150.256 483.518 149.472 483.224 148.492C483.126 148.296 483.077 148.002 483.077 147.61C482.979 146.826 482.93 146.091 482.93 145.405C483.028 144.719 483.077 144.033 483.077 143.347V129.529C483.077 128.059 483.714 126.932 484.988 126.148C485.086 126.05 485.184 126.001 485.282 126.001C485.478 125.805 485.674 125.707 485.87 125.707C486.164 125.707 486.409 125.658 486.605 125.56H555.107C555.597 125.56 556.087 125.56 556.577 125.56C557.067 125.462 557.557 125.413 558.047 125.413C558.635 125.413 559.223 125.462 559.811 125.56C560.399 125.56 560.938 125.658 561.428 125.854C561.82 126.05 562.065 126.197 562.163 126.295C562.751 126.589 563.192 127.177 563.486 128.059C563.682 128.451 563.78 128.843 563.78 129.235C563.878 129.627 563.927 130.019 563.927 130.411C563.927 130.803 563.927 131.195 563.927 131.587C563.829 133.645 563.78 135.703 563.78 137.761C563.78 139.819 563.78 141.877 563.78 143.935Z" fill="white"/>
</svg>
