<svg width="297" height="58" viewBox="0 0 297 58" fill="none" xmlns="http://www.w3.org/2000/svg">
<g clip-path="url(#clip0_72_115)">
<path d="M77.0883 40.48C77.1416 40.8 77.1283 41.0667 77.0483 41.28L76.9283 41.48C76.8483 41.6667 76.7016 41.8 76.4883 41.88C76.4349 41.9867 76.3816 42.1067 76.3283 42.24C76.2749 42.3733 76.2216 42.5067 76.1683 42.64C76.1416 42.6933 76.1149 42.76 76.0883 42.84C76.0883 42.9467 76.0616 42.9867 76.0083 42.96C75.9549 42.88 75.9283 42.7467 75.9283 42.56C75.9016 42.56 75.8883 42.56 75.8883 42.56C75.8883 42.5867 75.8749 42.6 75.8483 42.6C75.7949 43.1067 75.7683 43.6133 75.7683 44.12C75.7683 44.6267 75.7283 45.1333 75.6483 45.64C75.6483 45.6933 75.6216 45.6667 75.5683 45.56C75.5149 45.48 75.4883 45.4133 75.4883 45.36C75.3016 44.96 75.2349 44.5867 75.2883 44.24C75.3683 43.92 75.4349 43.6133 75.4883 43.32C75.5683 43.0267 75.4749 42.7333 75.2083 42.44C75.1549 42.6267 75.1283 42.84 75.1283 43.08C75.1283 43.32 75.1016 43.5467 75.0483 43.76C75.0483 43.7867 74.9949 43.8 74.8883 43.8C74.8616 43.8267 74.8216 43.8533 74.7683 43.88C74.7416 43.9067 74.7283 43.9067 74.7283 43.88C74.6749 43.6667 74.6483 43.44 74.6483 43.2C74.6749 42.9867 74.6616 42.7733 74.6083 42.56C74.5283 42.6933 74.4483 42.8267 74.3683 42.96C74.2883 43.0933 74.1949 43.2267 74.0883 43.36C74.0616 43.36 74.0216 43.3733 73.9683 43.4C73.9416 43.4533 73.9283 43.48 73.9283 43.48C73.8749 43.5333 73.8216 43.56 73.7683 43.56C73.7416 43.6133 73.6883 43.6933 73.6083 43.8C73.5549 43.9067 73.5016 43.9733 73.4483 44C73.3416 44.0533 73.2749 44.04 73.2483 43.96C73.2483 43.9067 73.2083 43.88 73.1283 43.88L72.8883 44.12C72.8883 44.12 72.8749 44.12 72.8483 44.12C72.8483 44.1467 72.8349 44.16 72.8083 44.16C72.7549 44.2133 72.7016 44.24 72.6483 44.24C72.6216 44.4 72.6216 44.6 72.6483 44.84C72.6749 45.1067 72.6883 45.32 72.6883 45.48C72.7149 45.6667 72.6483 45.7333 72.4883 45.68C72.2483 45.5467 72.1816 45.32 72.2883 45C72.3949 44.68 72.4216 44.3867 72.3683 44.12C72.3416 44.0667 72.3149 44.0133 72.2883 43.96C72.2616 43.9067 72.2216 43.8667 72.1683 43.84C72.0883 43.7067 72.0083 43.5733 71.9283 43.44C71.8749 43.3067 71.7949 43.1867 71.6883 43.08C71.6349 43.0267 71.5549 42.9867 71.4483 42.96C71.3416 42.9333 71.2483 42.9467 71.1683 43C71.1416 43.0267 71.1016 43.08 71.0483 43.16C70.9949 43.2667 70.9416 43.3467 70.8883 43.4C70.7816 43.5867 70.6749 43.64 70.5683 43.56C70.5149 43.5067 70.4616 43.4267 70.4083 43.32C70.3549 43.24 70.3016 43.16 70.2483 43.08C70.1149 42.9733 69.9549 42.76 69.7683 42.44C69.7683 42.3867 69.7416 42.36 69.6883 42.36C69.6616 42.4667 69.6216 42.5733 69.5683 42.68C69.5416 42.7867 69.4483 42.8267 69.2883 42.8C69.2616 42.8 69.1949 42.7733 69.0883 42.72C69.0616 42.7733 69.0216 42.8267 68.9683 42.88C68.9149 42.9333 68.8616 42.9733 68.8083 43C68.7016 43 68.6483 42.9867 68.6483 42.96C68.5949 43.4933 68.5683 44.04 68.5683 44.6C68.5949 45.16 68.5683 45.7067 68.4883 46.24C68.4616 46.4 68.4349 46.3067 68.4083 45.96C68.3816 45.64 68.3549 45.4 68.3283 45.24C68.2483 44.6 68.1949 44.1733 68.1683 43.96C68.1683 43.7733 68.1683 43.6533 68.1683 43.6C68.1683 43.5467 68.1416 43.4133 68.0883 43.2C68.0616 43.0133 67.9683 42.6 67.8083 41.96L67.6083 41.84C67.2616 41.6533 67.0883 41.3467 67.0883 40.92V33.76L66.9283 33.28C66.9016 33.3067 66.8749 33.36 66.8483 33.44C66.8483 33.4933 66.8216 33.5467 66.7683 33.6C66.6083 33.8933 66.4616 34.1333 66.3283 34.32C66.2749 34.3733 66.2216 34.4267 66.1683 34.48C66.1149 34.5333 66.0616 34.5733 66.0083 34.6C65.9016 34.7067 65.8483 34.7333 65.8483 34.68C65.7949 34.4933 65.7683 34.3867 65.7683 34.36C65.7683 34.3333 65.7683 34.2933 65.7683 34.24C65.7949 34.1867 65.7683 34.04 65.6883 33.8H65.6483L65.5283 33.92C65.5016 34 65.4883 34.1067 65.4883 34.24C65.4883 34.3467 65.4483 34.4267 65.3683 34.48C65.3416 34.5067 65.3149 34.48 65.2883 34.4C65.2616 34.2933 65.2349 34.2133 65.2083 34.16C65.1816 34.1333 65.1683 34.1067 65.1683 34.08C65.1683 34.0533 65.1549 34.0267 65.1283 34L64.8883 34.52C64.8616 34.6267 64.8083 34.7467 64.7283 34.88C64.6749 35.0133 64.6216 35.1467 64.5683 35.28L64.2883 35.92C64.2616 36 64.2216 36.08 64.1683 36.16C64.1416 36.24 64.1016 36.3067 64.0483 36.36C63.8616 36.8667 63.6483 37.36 63.4083 37.84C63.1949 38.2933 62.9683 38.7867 62.7283 39.32V39.36C62.6216 39.6267 62.4883 39.9467 62.3283 40.32C62.1949 40.6667 62.0216 40.9867 61.8083 41.28C61.7816 41.3333 61.7283 41.4 61.6483 41.48L61.5283 41.6C61.4483 41.68 61.3816 41.7333 61.3283 41.76C61.3016 41.8667 61.2616 41.96 61.2083 42.04C61.1816 42.1467 61.1416 42.24 61.0883 42.32C60.9816 42.5333 60.8483 42.7467 60.6883 42.96C60.5549 43.1733 60.4083 43.3733 60.2483 43.56C60.2216 43.64 60.1683 43.72 60.0883 43.8C60.0083 43.88 59.9416 43.9467 59.8883 44C59.7816 44.1067 59.7016 44.1733 59.6483 44.2C59.6216 44.36 59.5816 44.6533 59.5283 45.08C59.5016 45.5333 59.4349 45.8533 59.3283 46.04C59.3283 46.0667 59.3016 46.08 59.2483 46.08C59.2216 46.1067 59.1949 46.1067 59.1683 46.08C59.1149 46.0267 59.0749 45.9467 59.0483 45.84C59.0216 45.76 58.9949 45.68 58.9683 45.6C58.9416 45.4667 58.9149 45.3333 58.8883 45.2C58.8883 45.0667 58.8616 44.9467 58.8083 44.84C58.7549 44.4667 58.7283 44.28 58.7283 44.28C58.7549 44.3067 58.7016 44.2 58.5683 43.96L58.4483 43.84C58.3683 43.76 58.2883 43.68 58.2083 43.6C58.1283 43.52 58.0349 43.44 57.9283 43.36C57.8216 43.3067 57.7016 43.32 57.5683 43.4C57.4349 43.5067 57.3283 43.5867 57.2483 43.64C57.0616 43.8 56.8749 43.96 56.6883 44.12C56.5283 44.3067 56.3549 44.4933 56.1683 44.68C56.1149 44.76 56.0349 44.8267 55.9283 44.88C55.8216 44.96 55.7016 44.9867 55.5683 44.96C55.4616 44.9067 55.3683 44.8133 55.2883 44.68C55.2083 44.5733 55.1416 44.4667 55.0883 44.36C54.9816 44.12 54.9016 43.88 54.8483 43.64C54.7949 43.4 54.7283 43.1467 54.6483 42.88C54.5949 42.8267 54.5283 42.76 54.4483 42.68C54.3949 42.6267 54.3416 42.56 54.2883 42.48C54.2883 42.48 54.2616 42.44 54.2083 42.36C54.1816 42.3067 54.1416 42.2533 54.0883 42.2C54.0616 42.28 53.9416 42.32 53.7283 42.32C53.7016 42.4533 53.6616 42.6133 53.6083 42.8C53.5549 43.0133 53.5149 43.12 53.4883 43.12C53.4616 43.2267 53.4349 43.3733 53.4083 43.56C53.4083 43.7733 53.3816 43.84 53.3283 43.76C53.2216 43.6 53.1816 43.4133 53.2083 43.2C53.2349 42.9867 53.2216 42.7867 53.1683 42.6C53.1149 42.6267 53.0216 42.64 52.8883 42.64C52.7816 42.64 52.7283 42.64 52.7283 42.64C52.6749 43.0133 52.6483 43.4 52.6483 43.8C52.6483 44.2267 52.5949 44.6267 52.4883 45C52.4616 45.08 52.4349 45.04 52.4083 44.88C52.3816 44.72 52.3416 44.6 52.2883 44.52C52.2616 44.3867 52.2216 44.2533 52.1683 44.12C52.1416 44.0133 52.1149 43.9067 52.0883 43.8C52.0883 43.7733 52.0749 43.6133 52.0483 43.32C52.0483 43.0533 52.0216 42.76 51.9683 42.44C51.9416 42.1467 51.8749 41.9733 51.7683 41.92C51.3949 41.7867 51.2083 41.52 51.2083 41.12C51.2083 41.0133 51.2483 40.88 51.3283 40.72C51.4616 40.32 51.6616 39.9333 51.9283 39.56L53.4483 36.8C53.6616 36.2667 53.8616 35.7733 54.0483 35.32C54.2349 34.8667 54.4483 34.4933 54.6883 34.2C54.7416 34.1467 54.7816 34.0933 54.8083 34.04C54.8349 33.96 54.8616 33.9067 54.8883 33.88C54.9683 33.7467 55.0483 33.64 55.1283 33.56C55.2083 33.4533 55.2749 33.36 55.3283 33.28L55.6483 32.72L56.0883 31.88C55.9549 31.8267 55.9016 31.8 55.9283 31.8C55.9816 31.7733 56.0216 31.7733 56.0483 31.8C56.1016 31.8 56.0749 31.8 55.9683 31.8H55.9283L55.6483 31.56C55.5416 31.4267 55.4483 31.2933 55.3683 31.16C55.3149 31 55.2483 30.8667 55.1683 30.76C55.0616 30.6533 54.9549 30.56 54.8483 30.48C54.7416 30.3733 54.6349 30.2667 54.5283 30.16C54.5016 30.1067 54.4616 30.0667 54.4083 30.04C54.3549 29.9867 54.3016 29.9333 54.2483 29.88C54.1949 29.8267 54.1683 29.7867 54.1683 29.76C53.9549 29.6267 53.7683 29.4133 53.6083 29.12C53.4483 28.88 53.2883 28.64 53.1283 28.4C52.9949 28.1333 52.8616 27.8667 52.7283 27.6L52.4883 26.96C52.1149 25.92 51.9283 24.8267 51.9283 23.68C51.9283 22.0267 52.2616 20.56 52.9283 19.28L53.0083 19.08C53.0616 19 53.1149 18.9333 53.1683 18.88C53.2216 18.8 53.2616 18.72 53.2883 18.64L53.4483 18.4C53.5549 18.2667 53.6616 18.1333 53.7683 18C53.8749 17.8667 53.9816 17.7333 54.0883 17.6C54.8083 16.7467 55.7416 16.04 56.8883 15.48C56.9683 15.4 57.0749 15.32 57.2083 15.24C57.3683 15.16 57.4616 15.12 57.4883 15.12C57.7816 14.9867 58.0883 14.88 58.4083 14.8C58.7283 14.6933 59.0483 14.6133 59.3683 14.56C60.2483 14.32 61.2083 14.16 62.2483 14.08C62.4349 14.0533 62.6349 14.04 62.8483 14.04C63.0883 14.04 63.3283 14.0267 63.5683 14H74.0883C74.4349 14 74.7816 13.9867 75.1283 13.96C75.5016 13.9333 75.8616 13.9467 76.2083 14H76.2483C76.2749 14.0267 76.3149 14.04 76.3683 14.04C76.6083 14.12 76.7816 14.2533 76.8883 14.44C76.9416 14.4933 76.9949 14.6 77.0483 14.76C77.0749 14.84 77.0883 14.9333 77.0883 15.04C77.0883 15.12 77.0883 15.2133 77.0883 15.32V38.88C77.0883 39.1467 77.0883 39.4133 77.0883 39.68C77.1149 39.9467 77.1149 40.2133 77.0883 40.48ZM67.0883 25.68V21.44H66.7683C66.6349 21.4667 66.4883 21.4933 66.3283 21.52C66.1949 21.5467 66.0483 21.5733 65.8883 21.6C65.4349 21.6 64.9283 21.5733 64.3683 21.52C63.8349 21.4667 63.3816 21.5867 63.0083 21.88C62.5549 22.28 62.3283 22.8667 62.3283 23.64C62.3283 24.0667 62.4083 24.44 62.5683 24.76C62.7549 25.0267 62.9416 25.2267 63.1283 25.36C63.3683 25.52 63.5949 25.6133 63.8083 25.64C64.0483 25.6667 64.2749 25.68 64.4883 25.68H67.0883ZM103.82 40.72C103.82 40.88 103.794 41.0667 103.74 41.28C103.714 41.3867 103.66 41.48 103.58 41.56C103.527 41.6133 103.46 41.6667 103.38 41.72C103.327 41.7733 103.26 41.8267 103.18 41.88C103.154 41.9067 103.1 42 103.02 42.16C102.94 42.3467 102.887 42.44 102.86 42.44C102.834 42.44 102.807 42.4267 102.78 42.4C102.78 42.4267 102.767 42.44 102.74 42.44C102.74 42.44 102.74 42.4533 102.74 42.48C102.634 42.6667 102.514 42.8533 102.38 43.04C102.247 43.2267 102.114 43.4267 101.98 43.64L101.74 44.12C101.714 44.2 101.674 44.28 101.62 44.36C101.567 44.4667 101.514 44.56 101.46 44.64L101.34 44.88C101.234 45.1467 101.114 45.4 100.98 45.64C100.874 45.88 100.754 46.1333 100.62 46.4C100.54 46.5067 100.46 46.6267 100.38 46.76C100.327 46.8933 100.26 47.0267 100.18 47.16L100.06 47.36C100.034 47.3867 100.02 47.4 100.02 47.4C100.02 47.4267 100.007 47.4533 99.9805 47.48C99.7138 47.88 99.4471 48.1733 99.1805 48.36C99.1271 48.4667 99.0871 48.5867 99.0605 48.72C99.0605 48.88 98.9938 49.0133 98.8605 49.12C98.7538 49.2267 98.6471 49.1467 98.5405 48.88C98.4338 48.6133 98.3138 48.4 98.1805 48.24C98.0471 48.1067 97.9405 47.9467 97.8605 47.76C97.7805 47.5733 97.7005 47.4 97.6205 47.24L96.9005 45.36C96.8205 45.1467 96.7271 44.92 96.6205 44.68C96.5405 44.4667 96.4471 44.2533 96.3405 44.04C96.1271 43.5333 95.8205 43.0133 95.4205 42.48L95.0605 41.96L94.7805 41.68C94.6205 41.52 94.5271 41.36 94.5005 41.2C94.5005 41.1733 94.4871 41.16 94.4605 41.16C94.4605 41.1333 94.4605 41.1067 94.4605 41.08C94.4338 40.84 94.4205 40.6 94.4205 40.36C94.4471 40.12 94.4605 39.88 94.4605 39.64V35.48L94.3005 35C94.2738 35.0267 94.2471 35.08 94.2205 35.16C94.1938 35.24 94.1671 35.3067 94.1405 35.36C94.0871 35.4667 94.0071 35.6 93.9005 35.76C93.7938 35.92 93.6605 36 93.5005 36C93.3671 35.9733 93.2471 35.8933 93.1405 35.76C93.0338 35.6 92.9538 35.4667 92.9005 35.36C92.8738 35.4133 92.8338 35.4667 92.7805 35.52C92.7005 35.6 92.6205 35.68 92.5405 35.76C92.4871 35.8133 92.4205 35.8667 92.3405 35.92C92.2871 35.9733 92.2471 36.0533 92.2205 36.16C92.1938 36.4267 92.1671 36.6933 92.1405 36.96C92.1405 37.2 92.1138 37.4533 92.0605 37.72C92.0338 37.8 91.9938 37.9067 91.9405 38.04C91.9138 38.1467 91.9005 38.1733 91.9005 38.12C91.8205 37.8267 91.7805 37.5333 91.7805 37.24C91.8071 36.92 91.7938 36.6133 91.7405 36.32C91.7138 36.2933 91.6871 36.2667 91.6605 36.24C91.6338 36.2133 91.6071 36.1867 91.5805 36.16L91.4605 35.92C91.4338 35.8667 91.4071 35.8133 91.3805 35.76C91.3805 35.7067 91.3538 35.6667 91.3005 35.64C91.3005 35.6133 91.2871 35.6 91.2605 35.6C91.2605 35.6 91.2605 35.5867 91.2605 35.56C91.1805 35.5067 91.1138 35.44 91.0605 35.36C91.0338 35.44 91.0205 35.5333 91.0205 35.64C91.0205 35.72 90.9938 35.7867 90.9405 35.84C90.9138 35.8667 90.8871 35.84 90.8605 35.76C90.8338 35.68 90.8071 35.6133 90.7805 35.56L90.4605 35.32V36.72C90.4605 36.9067 90.4605 37.12 90.4605 37.36C90.4605 37.6 90.4738 37.8533 90.5005 38.12V38.6C90.5005 38.8667 90.5005 39.2267 90.5005 39.68C90.5271 40.1333 90.5138 40.56 90.4605 40.96C90.4605 41.0667 90.4338 41.2 90.3805 41.36C90.3538 41.44 90.2871 41.5333 90.1805 41.64C90.1271 41.6933 90.1005 41.72 90.1005 41.72C90.0471 41.7733 89.9671 41.8267 89.8605 41.88C89.8338 42.3067 89.8071 42.7467 89.7805 43.2C89.7805 43.6533 89.7538 44.1067 89.7005 44.56C89.6738 44.88 89.6471 45.2 89.6205 45.52C89.6205 45.8667 89.5938 46.2 89.5405 46.52C89.5138 46.6267 89.5138 46.7733 89.5405 46.96C89.5671 47.1467 89.5138 47.2533 89.3805 47.28C89.2738 47.3067 89.2205 47.2267 89.2205 47.04C89.2205 46.8533 89.2205 46.7067 89.2205 46.6C89.1671 46.04 89.1405 45.4267 89.1405 44.76C89.1405 44.0933 89.1138 43.4667 89.0605 42.88L88.9005 43.16C88.8738 43.1867 88.8471 43.2533 88.8205 43.36C88.7938 43.4667 88.7671 43.4933 88.7405 43.44C88.6871 43.3067 88.6605 43.16 88.6605 43C88.6871 42.84 88.6738 42.68 88.6205 42.52L88.4205 42.76C88.3405 42.84 88.2738 42.9333 88.2205 43.04C88.1405 43.1467 88.0605 43.2533 87.9805 43.36C87.9005 43.4933 87.8338 43.6267 87.7805 43.76C87.7538 43.7867 87.7271 43.8267 87.7005 43.88C87.6738 43.9333 87.6338 43.9867 87.5805 44.04C87.5271 44.1467 87.4605 44.24 87.3805 44.32C87.3271 44.4267 87.2738 44.52 87.2205 44.6C87.0605 44.8133 86.9005 45.0133 86.7405 45.2C86.5805 45.4133 86.4338 45.6267 86.3005 45.84C86.2471 45.92 86.1805 45.9867 86.1005 46.04C86.0471 46.12 85.9805 46.1867 85.9005 46.24C85.8471 46.8267 85.8205 47.52 85.8205 48.32C85.8205 49.12 85.7938 49.8267 85.7405 50.44C85.7138 50.4667 85.6738 50.4533 85.6205 50.4C85.5938 50.3467 85.5671 50.3067 85.5405 50.28C85.5138 49.6667 85.5005 48.96 85.5005 48.16C85.5005 47.36 85.4738 46.6667 85.4205 46.08C85.3138 45.9733 85.2205 45.8267 85.1405 45.64C85.0605 45.48 84.9938 45.3333 84.9405 45.2H84.9005C84.7138 44.8 84.5405 44.4 84.3805 44C84.2205 43.6 84.0338 43.2133 83.8205 42.84C83.7405 42.7067 83.6605 42.5867 83.5805 42.48C83.5005 42.4 83.4338 42.3067 83.3805 42.2C83.2738 42.2533 83.2071 42.28 83.1805 42.28H82.9005C82.7938 42.3333 82.7271 42.36 82.7005 42.36C82.5938 42.36 82.5405 42.3333 82.5405 42.28C82.5405 42.2267 82.5138 42.1867 82.4605 42.16C82.4071 42.1333 82.3538 42.0933 82.3005 42.04C82.2471 42.04 82.2071 42.04 82.1805 42.04C82.1538 42.0667 82.1005 42.0533 82.0205 42C81.9938 42 81.9671 42 81.9405 42C81.9405 41.9733 81.9138 41.96 81.8605 41.96C81.6471 41.88 81.4738 41.7467 81.3405 41.56C81.2871 41.5067 81.2338 41.4 81.1805 41.24C81.1271 41.0533 81.1005 40.84 81.1005 40.6C81.1271 40.36 81.1405 40.1467 81.1405 39.96V22.28C81.1405 22.0667 81.2071 21.8533 81.3405 21.64L81.5805 21.4C81.8738 21.1867 82.2071 21.1067 82.5805 21.16C82.9805 21.1867 83.3538 21.2 83.7005 21.2H89.3805C89.6738 21.2 89.9138 21.2933 90.1005 21.48C90.2338 21.56 90.3405 21.72 90.4205 21.96C90.4471 22.0667 90.4605 22.1733 90.4605 22.28C90.4871 22.36 90.5005 22.4533 90.5005 22.56C90.5005 22.6933 90.4871 22.84 90.4605 23C90.4605 23.1333 90.4605 23.2667 90.4605 23.4V28H94.4605V23.4C94.4605 23.16 94.4471 22.9067 94.4205 22.64C94.4205 22.3733 94.4471 22.1333 94.5005 21.92C94.5805 21.68 94.7271 21.4933 94.9405 21.36C95.0471 21.3067 95.1405 21.2667 95.2205 21.24C95.3271 21.2133 95.4338 21.2 95.5405 21.2C95.7538 21.1733 95.9538 21.1733 96.1405 21.2C96.3538 21.2 96.5405 21.2 96.7005 21.2H101.42C101.66 21.2 101.914 21.1867 102.18 21.16C102.474 21.1333 102.754 21.16 103.02 21.24C103.447 21.3733 103.7 21.6533 103.78 22.08C103.834 22.32 103.847 22.5733 103.82 22.84C103.794 23.1067 103.78 23.36 103.78 23.6V39.96C103.78 39.9867 103.78 40.0933 103.78 40.28C103.807 40.44 103.82 40.5867 103.82 40.72ZM129.224 40.56C129.224 40.6667 129.211 40.7467 129.184 40.8C129.184 41.1467 129.117 41.4 128.984 41.56C128.957 41.6133 128.904 41.68 128.824 41.76C128.744 41.8133 128.664 41.8667 128.584 41.92C128.291 42.2133 128.157 42.4533 128.184 42.64C128.211 42.8267 128.291 42.9867 128.424 43.12C128.557 43.2533 128.637 43.4133 128.664 43.6C128.691 43.7867 128.557 44.0267 128.264 44.32C128.237 44.4 128.211 44.48 128.184 44.56C128.184 44.6667 128.157 44.7467 128.104 44.8C128.077 44.8267 128.024 44.76 127.944 44.6C127.917 44.4667 127.891 44.32 127.864 44.16C127.837 44 127.811 43.84 127.784 43.68C127.757 43.2267 127.744 42.96 127.744 42.88C127.771 42.8267 127.717 42.6533 127.584 42.36L127.424 42.52C127.344 42.6 127.264 42.6667 127.184 42.72C127.131 42.7733 127.064 42.8533 126.984 42.96C126.877 43.12 126.771 43.28 126.664 43.44C126.557 43.6 126.451 43.76 126.344 43.92C126.317 43.9467 126.277 44.0133 126.224 44.12C126.171 44.2267 126.117 44.2933 126.064 44.32C125.931 44.3733 125.824 44.3067 125.744 44.12C125.664 43.9333 125.597 43.8133 125.544 43.76C125.517 43.68 125.491 43.6 125.464 43.52C125.464 43.44 125.437 43.36 125.384 43.28C125.331 43.2533 125.251 43.1867 125.144 43.08C125.091 43.0267 125.051 42.9733 125.024 42.92L124.624 42.44L124.424 42.24C124.371 42.2667 124.304 42.2533 124.224 42.2C124.144 42.1467 124.077 42.1067 124.024 42.08C123.891 42.2133 123.824 42.2933 123.824 42.32C123.611 42.5067 123.424 42.72 123.264 42.96C123.131 43.2267 122.997 43.4933 122.864 43.76C122.837 43.8133 122.784 43.88 122.704 43.96C122.651 44.04 122.584 44.1067 122.504 44.16C122.451 44.2133 122.411 44.24 122.384 44.24C122.357 44.4 122.331 44.56 122.304 44.72C122.304 44.9067 122.277 45.08 122.224 45.24C122.197 45.2667 122.157 45.2533 122.104 45.2C122.077 45.1733 122.064 45.1467 122.064 45.12C122.011 44.9067 121.984 44.7467 121.984 44.64C122.011 44.56 121.971 44.36 121.864 44.04C121.837 44.04 121.811 44.0267 121.784 44C121.784 43.9733 121.757 43.9333 121.704 43.88C121.704 43.8267 121.677 43.7867 121.624 43.76C121.597 43.7333 121.584 43.72 121.584 43.72L121.224 43.12L120.744 42.36C120.717 42.2533 120.677 42.1467 120.624 42.04C120.571 41.96 120.517 41.88 120.464 41.8L120.424 41.76C120.317 41.68 120.211 41.5467 120.104 41.36C120.104 41.3333 120.091 41.32 120.064 41.32C120.064 41.2933 120.064 41.2667 120.064 41.24C120.037 41.1067 120.024 40.96 120.024 40.8C120.024 40.6133 120.024 40.3867 120.024 40.12V39.8C119.971 39.8533 119.931 39.9067 119.904 39.96L119.784 40.08C119.544 40.3733 119.277 40.64 118.984 40.88C118.877 41.1467 118.797 41.4267 118.744 41.72C118.691 41.9867 118.597 42.2533 118.464 42.52C118.437 42.6267 118.384 42.7333 118.304 42.84C118.251 42.9733 118.171 43.08 118.064 43.16C118.037 43.1867 117.957 43.2133 117.824 43.24C117.717 43.2667 117.651 43.2667 117.624 43.24C117.597 43.16 117.584 43.0667 117.584 42.96C117.584 42.88 117.584 42.8 117.584 42.72C117.557 42.8 117.517 42.8667 117.464 42.92C117.437 43 117.397 43.0667 117.344 43.12C117.317 43.1733 117.277 43.2133 117.224 43.24C117.171 43.2933 117.117 43.3467 117.064 43.4C116.984 43.8267 116.917 44.2267 116.864 44.6C116.837 45 116.797 45.4133 116.744 45.84C116.717 45.9467 116.691 46.0533 116.664 46.16C116.637 46.2933 116.597 46.4267 116.544 46.56C116.544 46.6933 116.504 46.8 116.424 46.88C116.397 46.9067 116.344 46.88 116.264 46.8C116.237 46.7467 116.211 46.68 116.184 46.6C116.157 46.5467 116.131 46.4933 116.104 46.44C116.077 46.3067 116.024 46.08 115.944 45.76C115.864 45.4667 115.797 45.2667 115.744 45.16C115.717 45.0533 115.691 44.9333 115.664 44.8C115.637 44.6933 115.611 44.5867 115.584 44.48C115.557 44.4 115.531 44.3067 115.504 44.2C115.504 44.12 115.477 44.0267 115.424 43.92L115.304 43.8C115.224 43.6933 115.144 43.5733 115.064 43.44C114.984 43.3333 114.904 43.2267 114.824 43.12C114.797 43.04 114.757 42.96 114.704 42.88C114.651 42.8267 114.597 42.7467 114.544 42.64C114.517 42.5867 114.491 42.5333 114.464 42.48C114.437 42.4533 114.397 42.4267 114.344 42.4H114.024C112.291 42.3467 110.797 41.9333 109.544 41.16C108.317 40.3867 107.464 39.4 106.984 38.2C106.957 38.12 106.931 38.04 106.904 37.96C106.877 37.88 106.851 37.8 106.824 37.72C106.824 37.6933 106.811 37.6667 106.784 37.64C106.784 37.6133 106.784 37.5867 106.784 37.56C106.757 37.4267 106.731 37.3067 106.704 37.2C106.677 37.0667 106.651 36.9467 106.624 36.84C106.597 36.68 106.584 36.52 106.584 36.36C106.584 36.1733 106.584 36 106.584 35.84C106.584 35.7333 106.584 35.64 106.584 35.56C106.611 35.48 106.624 35.3867 106.624 35.28L106.664 35C106.744 34.5733 106.864 34.1867 107.024 33.84C107.397 32.9867 107.971 32.2533 108.744 31.64C108.904 31.5067 109.064 31.3867 109.224 31.28C109.384 31.1733 109.557 31.0667 109.744 30.96L110.264 30.68C110.317 30.6267 110.384 30.5733 110.464 30.52C110.544 30.4667 110.624 30.4267 110.704 30.4C110.757 30.3467 110.824 30.3067 110.904 30.28C110.984 30.2533 111.064 30.2267 111.144 30.2C111.437 30.0667 111.731 29.96 112.024 29.88C112.344 29.8 112.664 29.72 112.984 29.64C113.357 29.5333 113.731 29.44 114.104 29.36C114.504 29.28 114.917 29.2 115.344 29.12L116.304 28.96C116.677 28.9067 117.037 28.8533 117.384 28.8C117.757 28.72 118.131 28.6533 118.504 28.6C118.611 28.6 118.677 28.5867 118.704 28.56L119.584 28.4V27.76C119.584 27.8667 119.571 27.84 119.544 27.68C119.544 27.52 119.544 27.4267 119.544 27.4C119.544 27.4267 119.531 27.4 119.504 27.32C119.504 27.2133 119.504 27.1733 119.504 27.2C119.504 27.1733 119.491 27.1467 119.464 27.12C119.464 27.0933 119.464 27.0667 119.464 27.04C119.411 26.88 119.304 26.72 119.144 26.56C119.117 26.56 119.104 26.56 119.104 26.56C119.104 26.5333 119.077 26.52 119.024 26.52C118.971 26.5467 118.904 26.6 118.824 26.68C118.771 26.76 118.731 26.8267 118.704 26.88C118.624 27.0133 118.531 27.1867 118.424 27.4C118.317 27.5867 118.184 27.72 118.024 27.8C117.837 27.9067 117.664 27.84 117.504 27.6C117.344 27.36 117.211 27.1867 117.104 27.08C117.051 27.0267 117.011 27 116.984 27L116.624 27.36C116.544 27.4133 116.464 27.4667 116.384 27.52C116.304 27.5733 116.224 27.6267 116.144 27.68C115.984 27.76 115.811 27.8267 115.624 27.88C115.464 27.9067 115.304 27.9467 115.144 28C114.824 28.1067 114.504 28.2267 114.184 28.36C113.891 28.4667 113.584 28.5467 113.264 28.6C112.864 28.6533 112.491 28.5733 112.144 28.36C111.797 28.12 111.424 28.0133 111.024 28.04C110.651 28.04 110.277 28.0267 109.904 28C109.557 27.9733 109.197 27.9067 108.824 27.8C108.717 27.7467 108.651 27.72 108.624 27.72C108.597 27.72 108.571 27.7333 108.544 27.76C108.517 27.7867 108.491 27.7867 108.464 27.76C108.437 27.7333 108.411 27.7067 108.384 27.68C108.384 27.6533 108.357 27.6267 108.304 27.6C108.277 27.5467 108.237 27.4933 108.184 27.44C108.131 27.3867 108.104 27.36 108.104 27.36C108.077 27.3333 108.037 27.2667 107.984 27.16C107.931 27 107.917 26.84 107.944 26.68C107.971 26.4933 108.011 26.32 108.064 26.16C108.091 26.08 108.117 26 108.144 25.92C108.171 25.84 108.197 25.7467 108.224 25.64C108.491 25.1333 108.784 24.6933 109.104 24.32C109.397 23.9467 109.744 23.5867 110.144 23.24C110.571 22.8933 111.051 22.5867 111.584 22.32C111.797 22.1333 112.051 21.9733 112.344 21.84C112.611 21.7067 112.891 21.6 113.184 21.52C113.504 21.44 113.824 21.3733 114.144 21.32C114.757 21.16 115.424 21.04 116.144 20.96C116.864 20.8533 117.651 20.8 118.504 20.8H119.304C119.464 20.8 119.611 20.8 119.744 20.8C119.877 20.8 119.984 20.8133 120.064 20.84L120.344 20.88H120.544C120.891 20.88 121.144 20.92 121.304 21C121.757 21.0267 122.211 21.1067 122.664 21.24C122.984 21.2933 123.291 21.36 123.584 21.44C123.904 21.52 124.184 21.6267 124.424 21.76C124.771 21.8667 125.104 22.0267 125.424 22.24C125.771 22.4533 126.077 22.6667 126.344 22.88C126.344 22.9067 126.344 22.92 126.344 22.92C126.371 22.92 126.384 22.92 126.384 22.92C126.464 22.9733 126.531 23.04 126.584 23.12C126.664 23.1733 126.731 23.2267 126.784 23.28C128.064 24.4267 128.824 25.96 129.064 27.88C129.091 27.9067 129.104 27.9467 129.104 28C129.184 28.56 129.211 29.12 129.184 29.68C129.184 30.24 129.184 30.8 129.184 31.36V39.64C129.184 39.7733 129.184 39.92 129.184 40.08C129.211 40.24 129.224 40.4 129.224 40.56ZM119.704 33.88V33.4C119.704 33.3733 119.677 33.3733 119.624 33.4C119.597 33.4 119.557 33.4133 119.504 33.44C119.477 33.44 119.451 33.44 119.424 33.44C119.317 33.4933 119.197 33.5467 119.064 33.6C118.931 33.6267 118.797 33.6667 118.664 33.72C118.397 33.8267 118.117 33.9067 117.824 33.96C117.557 33.9867 117.277 34.0267 116.984 34.08C116.851 34.1067 116.704 34.1467 116.544 34.2C116.384 34.2533 116.237 34.32 116.104 34.4C115.997 34.48 115.917 34.56 115.864 34.64C115.677 34.88 115.584 35.12 115.584 35.36C115.584 35.5467 115.677 35.7867 115.864 36.08C115.917 36.1067 115.971 36.1467 116.024 36.2C116.104 36.2267 116.184 36.2667 116.264 36.32L116.464 36.4C116.811 36.4267 116.997 36.4533 117.024 36.48C117.051 36.48 117.211 36.4667 117.504 36.44C118.651 36.28 119.344 35.6267 119.584 34.48C119.637 34.32 119.664 34.1733 119.664 34.04C119.664 33.96 119.677 33.9067 119.704 33.88ZM160.849 26.2C160.849 26.36 160.849 26.5333 160.849 26.72C160.875 26.88 160.875 27.04 160.849 27.2C160.849 27.3333 160.835 27.4267 160.809 27.48C160.782 27.5067 160.769 27.5333 160.769 27.56C160.769 27.5867 160.755 27.6133 160.729 27.64C160.782 27.5867 160.755 27.6133 160.649 27.72C160.569 27.8267 160.542 27.8667 160.569 27.84C160.542 27.8667 160.515 27.8933 160.489 27.92C160.462 27.9467 160.435 27.9733 160.409 28C160.409 28 160.395 28.0133 160.369 28.04C160.369 28.04 160.355 28.04 160.329 28.04C160.329 28.04 160.315 28.0533 160.289 28.08C160.289 28.08 160.275 28.08 160.249 28.08C160.222 28.1333 160.195 28.2 160.169 28.28C160.169 28.36 160.142 28.4267 160.089 28.48C160.035 28.64 159.982 28.7733 159.929 28.88C159.902 28.9333 159.875 29.0267 159.849 29.16C159.849 29.2667 159.822 29.2933 159.769 29.24C159.715 29.1867 159.689 29.0667 159.689 28.88C159.662 28.9067 159.635 28.9333 159.609 28.96C159.582 28.9867 159.555 29.0133 159.529 29.04C159.475 29.0933 159.449 29.12 159.449 29.12C159.422 29.1467 159.395 29.1733 159.369 29.2C159.342 29.2 159.315 29.2133 159.289 29.24C159.262 29.5867 159.235 29.9333 159.209 30.28C159.209 30.6267 159.182 30.9733 159.129 31.32C159.129 31.5067 159.129 31.7867 159.129 32.16C159.129 32.5333 159.115 32.84 159.089 33.08C159.089 33.32 159.049 33.3467 158.969 33.16C158.835 32.7067 158.782 32.24 158.809 31.76C158.862 31.2533 158.862 30.7733 158.809 30.32C158.809 30.2667 158.795 30.2667 158.769 30.32C158.742 30.3733 158.715 30.4 158.689 30.4C158.662 30.4267 158.635 30.44 158.609 30.44C158.582 30.4133 158.555 30.4 158.529 30.4C158.502 30.3733 158.462 30.32 158.409 30.24C158.382 30.16 158.369 30.1467 158.369 30.2C158.315 30.7333 158.302 31.28 158.329 31.84C158.382 32.4 158.342 32.9467 158.209 33.48C158.155 33.6667 158.115 33.64 158.089 33.4C158.089 33.1333 158.089 32.8133 158.089 32.44C158.089 32.04 158.075 31.7333 158.049 31.52C158.022 31.0933 158.009 30.8 158.009 30.64C158.009 30.48 157.995 30.32 157.969 30.16C157.969 30 157.915 29.72 157.809 29.32C157.809 29.32 157.795 29.3333 157.769 29.36C157.769 29.36 157.755 29.36 157.729 29.36L157.609 29.48C157.582 29.9067 157.555 30.3333 157.529 30.76C157.529 31.1867 157.502 31.6133 157.449 32.04C157.449 32.0667 157.422 32.1067 157.369 32.16C157.315 32.2133 157.275 32.2267 157.249 32.2C157.062 31.8 156.995 31.44 157.049 31.12C157.102 30.8 157.155 30.4933 157.209 30.2C157.262 29.88 157.155 29.52 156.889 29.12L156.649 28.68C156.595 28.9467 156.569 29.2133 156.569 29.48C156.569 29.72 156.542 29.9733 156.489 30.24C156.462 30.2933 156.435 30.2667 156.409 30.16C156.382 30.0267 156.355 29.9333 156.329 29.88C156.302 29.8 156.249 29.72 156.169 29.64C156.115 29.56 156.062 29.48 156.009 29.4C155.902 29.24 155.702 29.08 155.409 28.92C155.115 28.7333 154.849 28.5467 154.609 28.36C154.395 27.9333 154.289 27.72 154.289 27.72C154.289 27.72 154.315 27.8267 154.369 28.04C154.449 28.2267 154.475 28.3867 154.449 28.52C154.475 28.68 154.475 28.84 154.449 29C154.449 29.16 154.449 29.3333 154.449 29.52V40.76C154.449 40.84 154.449 40.9333 154.449 41.04C154.449 41.12 154.435 41.2 154.409 41.28L154.289 41.52L154.169 41.64C154.142 41.6667 154.115 41.6933 154.089 41.72C154.089 41.7467 154.062 41.7733 154.009 41.8C154.009 41.8 153.995 41.8133 153.969 41.84C153.969 41.84 153.955 41.84 153.929 41.84C153.929 41.84 153.915 41.8533 153.889 41.88C153.889 41.88 153.875 41.88 153.849 41.88C153.822 41.96 153.729 42.0933 153.569 42.28L153.529 42.32C153.502 42.3467 153.449 42.4267 153.369 42.56C153.315 42.72 153.235 42.8667 153.129 43C153.075 43.1067 153.009 43.2267 152.929 43.36C152.875 43.4933 152.822 43.6267 152.769 43.76L152.409 44.52C152.382 44.5733 152.355 44.6267 152.329 44.68C152.302 44.7333 152.262 44.7867 152.209 44.84C152.022 45.24 151.795 45.6667 151.529 46.12C151.369 46.3333 151.249 46.4533 151.169 46.48C151.142 46.6933 151.155 46.9733 151.209 47.32C151.262 47.6667 151.289 47.96 151.289 48.2C151.315 48.4667 151.209 48.5733 150.969 48.52C150.755 48.4667 150.649 48.3067 150.649 48.04C150.649 47.8 150.675 47.52 150.729 47.2C150.809 46.9067 150.835 46.64 150.809 46.4C150.782 46.3733 150.769 46.3467 150.769 46.32C150.742 46.32 150.715 46.3067 150.689 46.28L150.489 45.96C150.489 45.96 150.489 45.9467 150.489 45.92C150.489 45.92 150.475 45.92 150.449 45.92C150.449 45.8933 150.435 45.8667 150.409 45.84C150.409 45.84 150.409 45.8267 150.409 45.8C150.355 45.6933 150.329 45.6267 150.329 45.6C150.222 45.3067 150.102 45.0267 149.969 44.76C149.862 44.4933 149.729 44.24 149.569 44C149.542 43.9733 149.515 43.9467 149.489 43.92C149.462 43.8933 149.435 43.8667 149.409 43.84C149.329 43.7867 149.249 43.76 149.169 43.76C149.089 43.76 149.009 43.7733 148.929 43.8C148.849 43.88 148.742 43.92 148.609 43.92C148.422 43.92 148.235 43.8533 148.049 43.72C147.862 43.6133 147.702 43.4933 147.569 43.36L147.249 43.04C147.115 42.8533 146.982 42.6533 146.849 42.44C146.742 42.2533 146.582 42.1067 146.369 42C146.342 42.24 146.369 42.5333 146.449 42.88C146.555 43.2533 146.502 43.4267 146.289 43.4C146.075 43.3733 145.995 43.1867 146.049 42.84C146.129 42.52 146.115 42.2267 146.009 41.96L145.769 41.84C145.449 41.6 145.289 41.28 145.289 40.88C145.262 40.5867 145.249 40.2933 145.249 40C145.275 39.7067 145.289 39.44 145.289 39.2V28.84L145.129 28.2C145.129 28.2267 145.075 28.3733 144.969 28.64C144.862 28.88 144.809 29 144.809 29C144.702 29.3467 144.582 29.7067 144.449 30.08C144.315 30.4267 144.182 30.7867 144.049 31.16C143.942 31.4 143.835 31.6 143.729 31.76C143.702 31.8133 143.662 31.88 143.609 31.96C143.582 32.04 143.569 32.0667 143.569 32.04C143.515 31.5333 143.489 31.0267 143.489 30.52C143.489 30.0133 143.462 29.5067 143.409 29C143.409 29.0267 143.342 29.04 143.209 29.04C143.155 29.1467 143.102 29.2533 143.049 29.36C142.995 29.4667 142.929 29.5733 142.849 29.68C142.742 29.92 142.569 30.1067 142.329 30.24C142.329 30.2667 142.262 30.3733 142.129 30.56C142.022 30.72 141.969 30.8 141.969 30.8C141.862 30.8533 141.809 30.8 141.809 30.64C141.729 30.4533 141.689 30.36 141.689 30.36C141.715 30.3333 141.729 30.3067 141.729 30.28C141.729 30.2533 141.649 30.1467 141.489 29.96L140.769 29.24C140.689 29.16 140.609 29.08 140.529 29C140.449 28.8933 140.315 28.7867 140.129 28.68C140.075 28.6267 140.022 28.6 139.969 28.6C139.915 28.7333 139.889 28.9067 139.889 29.12C139.915 29.3067 139.875 29.4667 139.769 29.6C139.742 29.6533 139.715 29.6 139.689 29.44C139.689 29.28 139.662 29.1467 139.609 29.04L139.489 28.52C139.462 28.4667 139.435 28.4 139.409 28.32C139.409 28.24 139.395 28.16 139.369 28.08C139.155 27.92 139.009 27.7067 138.929 27.44C138.902 27.3867 138.889 27.3067 138.889 27.2C138.862 26.9867 138.849 26.7867 138.849 26.6C138.875 26.4133 138.889 26.2267 138.889 26.04V22.28C138.889 21.88 139.062 21.5733 139.409 21.36C139.435 21.3333 139.462 21.32 139.489 21.32C139.542 21.2667 139.595 21.24 139.649 21.24C139.729 21.24 139.795 21.2267 139.849 21.2H158.489C158.622 21.2 158.755 21.2 158.889 21.2C159.022 21.1733 159.155 21.16 159.289 21.16C159.449 21.16 159.609 21.1733 159.769 21.2C159.929 21.2 160.075 21.2267 160.209 21.28C160.315 21.3333 160.382 21.3733 160.409 21.4C160.569 21.48 160.689 21.64 160.769 21.88C160.822 21.9867 160.849 22.0933 160.849 22.2C160.875 22.3067 160.889 22.4133 160.889 22.52C160.889 22.6267 160.889 22.7333 160.889 22.84C160.862 23.4 160.849 23.96 160.849 24.52C160.849 25.08 160.849 25.64 160.849 26.2ZM185.773 37.08C185.719 37.32 185.653 37.56 185.573 37.8C185.493 38.0133 185.386 38.2 185.253 38.36C185.253 38.36 185.253 38.3733 185.253 38.4C185.253 38.4 185.239 38.4 185.213 38.4C185.079 38.6933 184.893 38.9733 184.653 39.24C184.439 39.48 184.186 39.72 183.893 39.96C183.706 40.1733 183.546 40.4133 183.413 40.68C183.279 40.92 183.133 41.16 182.973 41.4C182.973 41.48 182.959 41.5467 182.933 41.6C182.906 41.7067 182.906 41.8667 182.933 42.08C182.986 42.32 182.946 42.4133 182.813 42.36C182.706 42.3067 182.653 42.2133 182.653 42.08C182.653 41.9733 182.666 41.8667 182.693 41.76C182.453 42.0267 182.199 42.28 181.933 42.52C181.666 42.76 181.413 43.0133 181.173 43.28C181.093 43.36 181.013 43.44 180.933 43.52C180.879 43.6267 180.813 43.72 180.733 43.8C180.706 43.8267 180.679 43.8533 180.653 43.88C180.626 43.9067 180.599 43.9333 180.573 43.96C180.546 43.9867 180.506 44.0133 180.453 44.04C180.426 44.0933 180.413 44.1067 180.413 44.08C180.359 43.76 180.333 43.5333 180.333 43.4C180.359 43.2667 180.373 43.1333 180.373 43C180.373 42.8667 180.306 42.6667 180.173 42.4C180.093 42.48 180.013 42.5467 179.933 42.6H179.893C179.839 42.6533 179.799 42.68 179.773 42.68C179.746 43.2667 179.719 43.9333 179.693 44.68C179.693 45.4533 179.666 46.1467 179.613 46.76C179.613 46.7867 179.586 46.8267 179.533 46.88C179.479 46.96 179.453 46.9867 179.453 46.96C179.399 46.3467 179.373 45.6 179.373 44.72C179.373 43.8667 179.346 43.1467 179.293 42.56C179.266 42.5333 179.239 42.5067 179.213 42.48C179.213 42.4533 179.199 42.4267 179.173 42.4H179.133C179.026 42.4 178.973 42.4133 178.973 42.44C178.946 42.8667 178.919 43.2933 178.893 43.72C178.893 44.1467 178.866 44.5867 178.813 45.04C178.813 45.0133 178.759 45 178.653 45C178.546 45 178.493 45 178.493 45C178.439 44.4667 178.413 44.12 178.413 43.96C178.439 43.8 178.453 43.6533 178.453 43.52C178.453 43.4133 178.373 43.1733 178.213 42.8C178.106 42.8533 177.999 42.92 177.893 43C177.786 43.1067 177.666 43.2 177.533 43.28C177.479 43.3067 177.426 43.3333 177.373 43.36C177.319 43.3867 177.266 43.3733 177.213 43.32C176.999 43.1067 176.946 42.9867 177.053 42.96C177.186 42.9333 177.293 42.9467 177.373 43C177.479 43.0533 177.373 43.08 177.053 43.08H176.973C176.973 43.1067 176.959 43.12 176.933 43.12C176.933 43.1467 176.933 43.16 176.933 43.16L176.573 43.76C176.546 43.8133 176.493 43.88 176.413 43.96C176.359 44.0667 176.306 44.1467 176.253 44.2C176.226 44.2267 176.173 44.2667 176.093 44.32C176.039 44.3733 175.986 44.4267 175.933 44.48C175.879 44.5867 175.826 44.64 175.773 44.64C175.746 44.64 175.719 44.6267 175.693 44.6C175.666 44.5733 175.626 44.5467 175.573 44.52C175.519 44.5467 175.479 44.5867 175.453 44.64C175.426 44.6933 175.399 44.7467 175.373 44.8C175.319 44.9067 175.253 45.04 175.173 45.2C175.093 45.3867 175.026 45.5333 174.973 45.64C174.973 45.6667 174.933 45.76 174.853 45.92C174.773 46.1067 174.706 46.2267 174.653 46.28C174.599 46.3333 174.546 46.3333 174.493 46.28C174.439 46.2267 174.386 46.12 174.333 45.96C174.226 45.64 174.173 45.4533 174.173 45.4C174.173 45.3467 174.173 45.28 174.173 45.2C174.199 45.12 174.159 44.9067 174.053 44.56C174.026 44.48 173.946 44.4 173.813 44.32C173.653 44.16 173.479 44.0933 173.293 44.12C173.133 44.1733 172.973 44.2533 172.813 44.36C172.759 44.3867 172.706 44.4267 172.653 44.48C172.599 44.5333 172.546 44.5733 172.493 44.6C172.413 44.68 172.333 44.7467 172.253 44.8C172.199 44.88 172.106 44.88 171.973 44.8C171.786 44.6667 171.639 44.5067 171.533 44.32C171.426 44.1333 171.319 43.96 171.213 43.8C171.213 43.7733 171.199 43.7467 171.173 43.72C171.173 43.72 171.173 43.7067 171.173 43.68C171.146 43.6533 171.119 43.6267 171.093 43.6C171.066 43.5733 171.039 43.5467 171.013 43.52L170.773 43.28C170.666 43.4133 170.599 43.5733 170.573 43.76C170.573 43.9467 170.533 44.12 170.453 44.28C170.453 44.3867 170.413 44.44 170.333 44.44C170.226 44.44 170.146 44.3333 170.093 44.12C170.066 43.9333 170.039 43.8667 170.013 43.92C169.986 44.1067 169.959 44.36 169.933 44.68C169.933 45.0267 169.933 45.3067 169.933 45.52C169.959 45.7333 169.946 45.76 169.893 45.6C169.573 45.2 169.466 44.8133 169.573 44.44C169.679 44.0933 169.786 43.76 169.893 43.44C170.026 43.12 169.933 42.8267 169.613 42.56L169.373 42.32C169.346 42.3733 169.333 42.4267 169.333 42.48C169.333 42.56 169.319 42.6267 169.293 42.68C169.266 42.7333 169.213 42.76 169.133 42.76C169.079 42.76 169.026 42.7733 168.973 42.8C168.866 42.8533 168.813 42.88 168.813 42.88C168.786 42.8267 168.759 42.76 168.733 42.68C168.733 42.6 168.719 42.5333 168.693 42.48L168.333 42.84C168.226 43 168.119 43.16 168.013 43.32C167.933 43.48 167.826 43.6267 167.693 43.76L167.333 44.12C167.253 44.28 167.199 44.3467 167.173 44.32C167.119 44.1333 167.093 43.9467 167.093 43.76C167.093 43.6 167.066 43.44 167.013 43.28C167.013 43.2533 166.986 43.2267 166.933 43.2C166.879 43.2 166.853 43.2133 166.853 43.24C166.826 43.4 166.826 43.6 166.853 43.84C166.906 44.08 166.933 44.2933 166.933 44.48C166.933 44.6667 166.853 44.7467 166.693 44.72C166.453 44.6667 166.373 44.4667 166.453 44.12C166.559 43.7733 166.586 43.4667 166.533 43.2C166.533 43.1733 166.519 43.16 166.493 43.16C166.466 43.1867 166.439 43.1867 166.413 43.16C166.333 43.16 166.279 43.1467 166.253 43.12C166.173 43.12 166.119 43.1067 166.093 43.08C166.066 43.08 166.039 43.0667 166.013 43.04C165.986 43.0133 165.959 43.0133 165.933 43.04C165.906 43.28 165.933 43.5867 166.013 43.96C166.093 44.36 166.133 44.6933 166.133 44.96C166.159 45.2533 166.053 45.36 165.813 45.28C165.573 45.1733 165.453 44.9733 165.453 44.68C165.453 44.4133 165.493 44.1067 165.573 43.76C165.653 43.44 165.679 43.1467 165.653 42.88C165.653 42.88 165.613 42.88 165.533 42.88C165.533 42.8533 165.519 42.84 165.493 42.84C165.466 42.8133 165.439 42.8 165.413 42.8C165.386 42.8 165.359 42.7867 165.333 42.76C165.306 42.7333 165.279 42.72 165.253 42.72C165.226 42.72 165.199 42.7067 165.173 42.68C165.066 42.5733 165.013 42.5467 165.013 42.6C164.986 42.76 164.986 42.9867 165.013 43.28C165.039 43.5733 165.053 43.8133 165.053 44C165.079 44.1867 165.013 44.24 164.853 44.16C164.613 44 164.559 43.7333 164.693 43.36C164.826 42.9867 164.826 42.6667 164.693 42.4C164.639 42.2667 164.613 42.36 164.613 42.68C164.639 43 164.613 43.2267 164.533 43.36C164.506 43.44 164.479 43.4 164.453 43.24C164.426 43.1067 164.399 43 164.373 42.92C164.373 42.8933 164.346 42.7333 164.293 42.44C164.239 42.1467 164.199 42 164.173 42L163.893 41.88C163.733 41.8 163.599 41.6933 163.493 41.56C163.439 41.5067 163.386 41.4 163.333 41.24C163.306 41.1333 163.279 41.0267 163.253 40.92C163.253 40.8133 163.253 40.7067 163.253 40.6C163.253 40.3867 163.253 40.1733 163.253 39.96C163.279 39.72 163.293 39.5067 163.293 39.32V23.24C163.293 23.08 163.279 22.92 163.253 22.76C163.253 22.5733 163.266 22.3867 163.293 22.2L163.333 21.92C163.359 21.8933 163.373 21.8667 163.373 21.84C163.373 21.8133 163.386 21.7867 163.413 21.76C163.466 21.6533 163.519 21.5867 163.573 21.56C163.679 21.4267 163.813 21.3333 163.973 21.28C164.026 21.2533 164.079 21.24 164.133 21.24C164.213 21.2133 164.306 21.2 164.413 21.2H169.013C169.333 21.2 169.786 21.2 170.373 21.2C170.959 21.2 171.586 21.2 172.253 21.2C172.946 21.1733 173.573 21.1733 174.133 21.2H174.653C174.946 21.2 175.226 21.2 175.493 21.2C175.786 21.2 176.066 21.2133 176.333 21.24C176.813 21.24 177.306 21.2667 177.813 21.32C178.319 21.3467 178.799 21.4267 179.253 21.56L179.453 21.64C180.466 21.8533 181.333 22.1467 182.053 22.52C182.773 22.8933 183.386 23.36 183.893 23.92C184.079 24.1333 184.239 24.3733 184.373 24.64C184.533 24.88 184.653 25.1333 184.733 25.4C184.813 25.5067 184.866 25.64 184.893 25.8C184.919 25.96 184.946 26.1067 184.973 26.24C185.053 26.48 185.093 26.72 185.093 26.96C185.119 27.1733 185.119 27.3867 185.093 27.6C185.093 27.7867 185.079 27.9867 185.053 28.2C185.026 28.68 184.919 29.0667 184.733 29.36C184.679 29.44 184.626 29.56 184.573 29.72C184.359 30.0933 184.053 30.5067 183.653 30.96L183.613 31C183.533 31.08 183.466 31.1333 183.413 31.16C183.386 31.1867 183.359 31.2133 183.333 31.24C183.306 31.2667 183.279 31.2933 183.253 31.32L183.573 31.52C183.626 31.5467 183.679 31.5867 183.733 31.64C183.813 31.6933 183.946 31.7867 184.133 31.92C184.373 32.1067 184.613 32.3333 184.853 32.6C185.066 32.8667 185.253 33.1333 185.413 33.4C185.679 33.88 185.839 34.5067 185.893 35.28C185.946 35.6267 185.946 35.96 185.893 36.28C185.866 36.5733 185.826 36.84 185.773 37.08ZM172.253 28.36V28.96C172.226 29.3067 172.199 29.48 172.173 29.48C172.173 29.48 172.173 29.4133 172.173 29.28C172.199 29.12 172.239 28.9733 172.293 28.84C172.346 28.68 172.439 28.64 172.573 28.72H175.053C175.186 28.72 175.306 28.72 175.413 28.72C175.546 28.72 175.666 28.7067 175.773 28.68C175.799 28.6533 175.839 28.64 175.893 28.64C176.106 28.56 176.266 28.44 176.373 28.28L176.453 28.08C176.479 28.0267 176.493 27.9067 176.493 27.72V27.52C176.439 27.36 176.399 27.2533 176.373 27.2C176.346 27.1467 176.279 27.0667 176.173 26.96C176.146 26.9067 176.106 26.88 176.053 26.88C175.999 26.8533 175.946 26.8267 175.893 26.8C175.759 26.7733 175.613 26.7733 175.453 26.8C175.319 26.8267 175.186 26.8533 175.053 26.88C174.866 26.9067 174.666 26.9333 174.453 26.96C174.266 26.96 174.066 26.9467 173.853 26.92C173.693 26.8933 173.533 26.8667 173.373 26.84C173.213 26.8133 173.053 26.7867 172.893 26.76C172.946 26.76 172.893 26.76 172.733 26.76C172.573 26.7333 172.466 26.72 172.413 26.72C172.413 26.72 172.399 26.72 172.373 26.72C172.373 26.6933 172.333 26.68 172.253 26.68V28.36ZM172.253 36.52H175.053C175.506 36.52 175.853 36.4533 176.093 36.32C176.359 36.1867 176.493 35.92 176.493 35.52V35.32C176.439 35.16 176.399 35.0533 176.373 35C176.346 34.9467 176.279 34.8667 176.173 34.76C176.013 34.6533 175.879 34.6 175.773 34.6C175.666 34.6 175.546 34.6133 175.413 34.64C175.306 34.64 175.186 34.6533 175.053 34.68C174.813 34.7333 174.573 34.7867 174.333 34.84C174.119 34.8667 173.893 34.8667 173.653 34.84C173.466 34.84 173.279 34.8133 173.093 34.76C172.933 34.7067 172.759 34.6533 172.573 34.6C172.546 34.5733 172.519 34.56 172.493 34.56C172.466 34.56 172.426 34.5467 172.373 34.52C172.346 34.4933 172.319 34.48 172.293 34.48C172.266 34.48 172.253 34.48 172.253 34.48V36.52ZM211.755 30.96C211.782 31.3867 211.782 31.8133 211.755 32.24C211.755 32.6667 211.742 33.08 211.715 33.48C211.662 34.3067 211.542 35.08 211.355 35.8C211.168 36.4933 210.902 37.1333 210.555 37.72C210.448 37.9067 210.342 38.0933 210.235 38.28C210.128 38.4667 210.008 38.6533 209.875 38.84C209.742 39 209.595 39.1467 209.435 39.28C209.435 39.3067 209.422 39.3333 209.395 39.36C209.288 39.52 209.155 39.6533 208.995 39.76C208.968 39.7867 208.942 39.8133 208.915 39.84C208.888 39.8667 208.848 39.9067 208.795 39.96C208.768 39.9867 208.742 40.0133 208.715 40.04C208.688 40.0667 208.662 40.0933 208.635 40.12L208.395 40.64C208.395 40.7467 208.395 40.8533 208.395 40.96C208.395 41.04 208.382 41.1333 208.355 41.24C208.328 41.4267 208.328 41.68 208.355 42C208.382 42.2933 208.328 42.3867 208.195 42.28C208.115 42.2 208.062 42.1067 208.035 42C208.035 41.8667 208.035 41.7467 208.035 41.64C208.035 41.6933 208.008 41.7467 207.955 41.8C207.928 41.88 207.875 41.96 207.795 42.04C207.742 42.1467 207.662 42.2133 207.555 42.24C207.368 42.32 207.208 42.2533 207.075 42.04C206.968 41.8533 206.888 41.7067 206.835 41.6C206.835 41.5733 206.822 41.5467 206.795 41.52C206.608 41.8667 206.528 42.2533 206.555 42.68C206.582 43.1333 206.568 43.5733 206.515 44C206.515 44.1067 206.502 44.2267 206.475 44.36C206.448 44.52 206.422 44.6667 206.395 44.8C206.368 44.96 206.302 45.1067 206.195 45.24C206.195 45.32 206.142 45.36 206.035 45.36C205.928 45.3067 205.875 45.24 205.875 45.16C205.822 44.7067 205.795 44.24 205.795 43.76C205.795 43.28 205.768 42.8133 205.715 42.36C205.715 42.36 205.702 42.3467 205.675 42.32C205.675 42.32 205.662 42.32 205.635 42.32C205.555 42.3467 205.475 42.3867 205.395 42.44C205.315 42.4933 205.248 42.5467 205.195 42.6C205.008 42.7867 204.848 43.0133 204.715 43.28C204.635 43.44 204.555 43.6 204.475 43.76C204.422 43.92 204.355 44.0667 204.275 44.2C204.248 44.2267 204.208 44.28 204.155 44.36C204.128 44.4667 204.115 44.5067 204.115 44.48C204.062 44.1867 204.035 43.8933 204.035 43.6C204.035 43.3067 204.008 43.0267 203.955 42.76C204.008 42.76 203.928 42.7467 203.715 42.72C203.528 42.72 203.448 42.7333 203.475 42.76C203.422 43.1867 203.395 43.6133 203.395 44.04C203.395 44.4667 203.368 44.8933 203.315 45.32C203.315 45.3467 203.262 45.4 203.155 45.48C203.075 45.56 203.022 45.6133 202.995 45.64C202.968 45.6667 202.928 45.68 202.875 45.68C202.848 45.7067 202.835 45.7067 202.835 45.68C202.782 45.2267 202.755 44.76 202.755 44.28C202.755 43.8267 202.715 43.3733 202.635 42.92C202.555 42.9467 202.488 42.9867 202.435 43.04C202.382 43.0933 202.355 43.12 202.355 43.12C202.328 43.1467 202.302 43.1867 202.275 43.24C202.275 43.32 202.248 43.3867 202.195 43.44C202.168 43.44 202.102 43.3867 201.995 43.28C201.968 43.2267 201.942 43.1733 201.915 43.12C201.915 43.0667 201.888 43.0267 201.835 43C201.835 42.9733 201.822 42.96 201.795 42.96C201.768 42.9333 201.755 42.92 201.755 42.92C201.755 42.9467 201.742 42.9467 201.715 42.92H201.475C201.475 43.0267 201.475 43.1333 201.475 43.24C201.475 43.3467 201.448 43.4667 201.395 43.6C201.395 43.6 201.288 43.48 201.075 43.24C200.942 43.1067 200.875 43.04 200.875 43.04C200.875 43.0667 200.835 43.0667 200.755 43.04C200.648 43.04 200.595 43.0267 200.595 43C200.568 43.3733 200.542 43.7333 200.515 44.08C200.515 44.4533 200.488 44.8267 200.435 45.2C200.435 45.2533 200.408 45.2267 200.355 45.12C200.328 45.0133 200.302 44.9333 200.275 44.88C200.248 44.8 200.222 44.72 200.195 44.64C200.168 44.5867 200.142 44.52 200.115 44.44C200.035 44.0933 199.968 43.7467 199.915 43.4C199.888 43.08 199.848 42.7467 199.795 42.4H199.555C195.928 42.32 193.195 41.48 191.355 39.88L191.115 39.64C189.542 38.1467 188.675 36.0933 188.515 33.48C188.435 32.2267 188.435 30.9733 188.515 29.72C188.728 26.76 189.848 24.5333 191.875 23.04C193.928 21.5467 196.728 20.8 200.275 20.8H200.635C201.008 20.8 201.382 20.8133 201.755 20.84C202.128 20.8667 202.488 20.9067 202.835 20.96C202.888 20.96 202.928 20.9733 202.955 21C205.702 21.4 207.902 22.44 209.555 24.12C209.608 24.1733 209.675 24.2667 209.755 24.4C209.862 24.5067 209.928 24.5867 209.955 24.64C210.702 25.6267 211.208 26.7333 211.475 27.96C211.475 27.9867 211.475 28.0133 211.475 28.04C211.502 28.0667 211.515 28.0933 211.515 28.12C211.622 28.5733 211.688 29.0533 211.715 29.56C211.742 30.04 211.755 30.5067 211.755 30.96ZM199.035 35.72C199.115 35.7733 199.208 35.8267 199.315 35.88C199.608 35.96 199.835 36 199.995 36C200.155 36 200.315 35.9867 200.475 35.96H200.715C200.822 35.9067 200.915 35.8667 200.995 35.84C201.102 35.7867 201.195 35.7333 201.275 35.68C201.488 35.4667 201.622 35.2133 201.675 34.92C201.755 34.6267 201.808 34.3467 201.835 34.08C201.862 33.92 201.875 33.7467 201.875 33.56C201.902 33.3733 201.915 33.1867 201.915 33C201.942 32.6267 201.955 32.1867 201.955 31.68C201.955 31.1733 201.942 30.72 201.915 30.32C201.915 30.1867 201.915 30.0533 201.915 29.92C201.915 29.7867 201.902 29.6667 201.875 29.56C201.875 29.4533 201.862 29.36 201.835 29.28C201.835 29.1733 201.835 29.0667 201.835 28.96C201.755 28.2667 201.568 27.8 201.275 27.56C201.168 27.4533 201.088 27.4 201.035 27.4C201.008 27.3733 200.968 27.36 200.915 27.36C200.888 27.36 200.862 27.36 200.835 27.36C200.808 27.3333 200.782 27.3333 200.755 27.36C200.728 27.3867 200.702 27.4533 200.675 27.56C200.675 27.64 200.648 27.7067 200.595 27.76C200.568 27.8133 200.488 27.8533 200.355 27.88C200.248 27.88 200.168 27.8667 200.115 27.84C199.955 27.8133 199.808 27.7333 199.675 27.6H199.435C199.408 27.5733 199.382 27.5467 199.355 27.52C199.328 27.4667 199.288 27.4267 199.235 27.4C199.155 27.4 199.075 27.44 198.995 27.52C198.808 27.68 198.675 27.9067 198.595 28.2C198.515 28.4667 198.448 28.7867 198.395 29.16C198.368 29.24 198.355 29.3467 198.355 29.48C198.355 29.56 198.342 29.6533 198.315 29.76C198.315 29.84 198.315 29.9333 198.315 30.04C198.288 30.2533 198.275 30.5067 198.275 30.8C198.275 31.0933 198.275 31.3867 198.275 31.68C198.275 31.8667 198.275 32.0533 198.275 32.24C198.302 32.4 198.315 32.5733 198.315 32.76C198.315 32.9467 198.315 33.1333 198.315 33.32C198.315 33.5067 198.328 33.6667 198.355 33.8C198.408 34.28 198.462 34.6533 198.515 34.92C198.595 35.1867 198.768 35.4533 199.035 35.72ZM238.179 32.24C238.179 32.4267 238.179 32.6 238.179 32.76C238.179 32.92 238.166 33.0667 238.139 33.2C238.112 33.5467 238.086 33.8933 238.059 34.24C238.032 34.56 237.992 34.88 237.939 35.2C237.886 35.6 237.806 36 237.699 36.4C237.619 36.8 237.486 37.1867 237.299 37.56L236.979 38.16C236.712 38.72 236.352 39.2533 235.899 39.76C235.872 39.8133 235.806 39.8933 235.699 40C235.592 40.1333 235.459 40.2667 235.299 40.4C235.139 40.5067 234.992 40.6267 234.859 40.76C234.699 40.9467 234.539 41.12 234.379 41.28C234.246 41.4133 234.112 41.5733 233.979 41.76C233.979 41.76 233.966 41.7733 233.939 41.8C233.939 41.8 233.926 41.8 233.899 41.8L233.539 42.4C233.219 42.8 232.926 43.32 232.659 43.96C232.392 44.6267 232.139 45.2933 231.899 45.96C231.659 46.6267 231.392 47.16 231.099 47.56C231.072 47.5867 231.046 47.6267 231.019 47.68C231.019 47.76 230.992 47.8267 230.939 47.88C230.939 47.9067 230.926 47.92 230.899 47.92C230.899 47.9467 230.872 48.0133 230.819 48.12C230.739 48.2533 230.659 48.3867 230.579 48.52C230.526 48.6533 230.432 48.7867 230.299 48.92C230.272 49 230.219 49.0533 230.139 49.08L230.019 49.2C229.966 49.7867 229.926 50.5067 229.899 51.36C229.899 52.24 229.872 52.9867 229.819 53.6C229.819 53.6267 229.779 53.6533 229.699 53.68C229.646 53.7333 229.619 53.7467 229.619 53.72C229.539 53.1067 229.499 52.3333 229.499 51.4C229.499 50.4933 229.472 49.7467 229.419 49.16C229.339 49.1067 229.299 49.0533 229.299 49C229.272 48.9733 229.259 48.9067 229.259 48.8C229.259 48.72 229.259 48.6667 229.259 48.64C229.259 48.56 229.272 48.4933 229.299 48.44C229.272 48.4933 229.192 48.5467 229.059 48.6C229.032 48.6 229.006 48.5867 228.979 48.56C228.979 48.56 228.966 48.56 228.939 48.56C228.886 48.5333 228.832 48.4933 228.779 48.44C228.806 48.7867 228.832 49.12 228.859 49.44C228.912 49.76 228.832 49.8667 228.619 49.76C228.352 49.6267 228.272 49.36 228.379 48.96C228.486 48.56 228.512 48.2 228.459 47.88C228.432 47.88 228.392 47.8667 228.339 47.84C228.312 47.8133 228.312 47.8 228.339 47.8C228.339 47.7733 228.326 47.7467 228.299 47.72C228.326 47.9867 228.339 48.2267 228.339 48.44C228.366 48.68 228.299 48.76 228.139 48.68C228.059 48.6267 227.992 48.56 227.939 48.48C227.992 48.8267 227.979 49.08 227.899 49.24C227.846 49.4267 227.712 49.4533 227.499 49.32C227.179 49.08 227.019 48.7467 227.019 48.32C227.046 47.92 227.112 47.48 227.219 47C227.352 46.52 227.406 46.08 227.379 45.68C227.326 45.6267 227.272 45.5467 227.219 45.44C227.192 45.4133 227.179 45.3867 227.179 45.36C227.126 45.2 227.099 45.04 227.099 44.88C227.099 44.5867 227.139 44.32 227.219 44.08C227.272 43.84 227.312 43.6 227.339 43.36C227.366 43.1467 227.366 42.9467 227.339 42.76C227.286 42.7067 227.232 42.6667 227.179 42.64C227.152 42.64 227.126 42.6133 227.099 42.56C227.072 42.5067 227.072 42.5067 227.099 42.56H227.019V43C227.019 43.0533 227.019 43.12 227.019 43.2C227.046 43.28 227.059 43.36 227.059 43.44C227.086 43.5467 227.099 43.6533 227.099 43.76C227.126 43.8933 227.139 44.0667 227.139 44.28C227.112 44.44 227.059 44.4933 226.979 44.44C226.926 44.3867 226.859 44.3333 226.779 44.28C226.752 44.28 226.739 44.2667 226.739 44.24C226.632 44.08 226.592 43.88 226.619 43.64C226.646 43.4267 226.672 43.2267 226.699 43.04C226.726 42.9067 226.739 42.7733 226.739 42.64C226.766 42.5333 226.766 42.4267 226.739 42.32C226.739 42.2933 226.726 42.28 226.699 42.28C226.699 42.28 226.699 42.2667 226.699 42.24L226.419 42.12L226.379 42.08C226.352 42.08 226.339 42.0667 226.339 42.04C226.339 42.04 226.326 42.04 226.299 42.04C226.139 41.9333 226.006 41.8 225.899 41.64C225.819 41.5867 225.739 41.5333 225.659 41.48C225.579 41.4 225.512 41.32 225.459 41.24C225.406 41.1333 225.352 41.0667 225.299 41.04C225.246 40.9867 225.192 40.9467 225.139 40.92C225.086 40.8667 225.019 40.8133 224.939 40.76C224.859 40.68 224.792 40.6 224.739 40.52C224.686 40.4667 224.632 40.4133 224.579 40.36C224.526 40.28 224.472 40.2 224.419 40.12C224.366 40.0667 224.326 40.0267 224.299 40C224.246 39.92 224.246 39.92 224.299 40C224.352 40.0533 224.366 40.16 224.339 40.32V48.04C224.339 48.1733 224.339 48.3067 224.339 48.44C224.366 48.6 224.352 48.7467 224.299 48.88C224.299 48.88 224.272 48.9333 224.219 49.04C224.192 49.0667 224.179 49.08 224.179 49.08C224.179 49.1067 224.166 49.1333 224.139 49.16C224.086 49.24 223.979 49.3333 223.819 49.44C223.739 49.5467 223.646 49.6533 223.539 49.76C223.432 49.8933 223.299 49.9733 223.139 50C223.032 50.0267 222.926 50.0133 222.819 49.96C222.739 49.9333 222.659 49.9067 222.579 49.88C222.472 49.9867 222.379 50.0933 222.299 50.2C222.219 50.3333 222.126 50.4533 222.019 50.56C221.752 50.8 221.486 50.8533 221.219 50.72C220.979 50.5867 220.712 50.5067 220.419 50.48H220.099C220.072 50.48 220.046 50.4933 220.019 50.52C219.992 50.5467 219.966 50.5467 219.939 50.52C219.912 50.44 219.899 50.3333 219.899 50.2L219.579 50.52C219.552 50.5467 219.512 50.5733 219.459 50.6C219.406 50.6267 219.352 50.6667 219.299 50.72C219.272 50.7467 219.232 50.8 219.179 50.88C219.152 50.9867 219.099 51.04 219.019 51.04C218.912 51.04 218.832 50.9867 218.779 50.88C218.752 50.8 218.712 50.7467 218.659 50.72C218.659 50.72 218.659 50.7067 218.659 50.68C218.659 50.68 218.646 50.68 218.619 50.68C218.566 50.6533 218.486 50.5867 218.379 50.48L218.099 50.24L217.979 50.12C217.979 50.12 217.979 50.1067 217.979 50.08C217.979 50.08 217.966 50.08 217.939 50.08C217.832 49.9733 217.752 49.9067 217.699 49.88L217.299 49.92C217.272 49.9467 217.206 49.9867 217.099 50.04C216.939 50.12 216.779 50.12 216.619 50.04C216.592 50.0667 216.566 50.0667 216.539 50.04C216.512 50.0133 216.472 50 216.419 50C216.419 50 216.259 49.92 215.939 49.76C215.646 49.6 215.499 49.5333 215.499 49.56C215.392 49.5067 215.299 49.4533 215.219 49.4C214.926 49.1867 214.779 48.8933 214.779 48.52V22.28C214.779 22.12 214.792 22 214.819 21.92C214.872 21.84 214.926 21.7467 214.979 21.64C215.219 21.3467 215.499 21.2 215.819 21.2C215.899 21.2 215.979 21.2 216.059 21.2C216.139 21.1733 216.219 21.16 216.299 21.16C216.459 21.16 216.606 21.1733 216.739 21.2C216.899 21.2 217.046 21.2 217.179 21.2H220.899C221.112 21.2 221.326 21.2 221.539 21.2C221.779 21.1733 222.006 21.16 222.219 21.16C222.326 21.16 222.432 21.16 222.539 21.16C222.646 21.16 222.752 21.1733 222.859 21.2C222.886 21.2 222.912 21.2133 222.939 21.24C222.966 21.24 222.992 21.24 223.019 21.24C223.259 21.32 223.446 21.48 223.579 21.72C223.632 21.8267 223.672 21.92 223.699 22C223.726 22.08 223.739 22.2667 223.739 22.56V23.48C223.792 23.4267 223.819 23.3867 223.819 23.36C223.846 23.36 223.859 23.36 223.859 23.36C223.859 23.3333 223.859 23.32 223.859 23.32L223.899 23.28C224.006 23.1733 224.072 23.0933 224.099 23.04C224.072 23.0667 224.126 23.0133 224.259 22.88C224.392 22.72 224.486 22.6267 224.539 22.6C224.619 22.5467 224.686 22.4933 224.739 22.44C224.819 22.36 224.886 22.3067 224.939 22.28C225.152 22.12 225.352 21.9733 225.539 21.84C225.752 21.7067 225.966 21.5867 226.179 21.48C226.232 21.4267 226.286 21.4 226.339 21.4C226.659 21.2133 227.006 21.08 227.379 21C227.779 20.92 228.166 20.8667 228.539 20.84C228.726 20.84 228.872 20.8267 228.979 20.8H229.619C230.232 20.7733 230.806 20.8 231.339 20.88C231.872 20.9333 232.272 21.0267 232.539 21.16C232.966 21.2667 233.352 21.4133 233.699 21.6C234.072 21.76 234.379 21.9467 234.619 22.16L234.979 22.4C235.086 22.48 235.179 22.56 235.259 22.64C235.366 22.72 235.459 22.8133 235.539 22.92C236.286 23.6667 236.886 24.6267 237.339 25.8C237.792 26.9467 238.059 28.36 238.139 30.04C238.166 30.4133 238.179 30.7467 238.179 31.04C238.179 31.3333 238.179 31.6667 238.179 32.04V32.24ZM224.379 33.6C224.432 33.84 224.499 34.08 224.579 34.32C224.686 34.5333 224.832 34.72 225.019 34.88C225.286 35.0667 225.606 35.1733 225.979 35.2C226.032 35.2267 226.099 35.24 226.179 35.24C226.259 35.24 226.326 35.24 226.379 35.24L226.699 35.2C226.806 35.1733 226.899 35.16 226.979 35.16C227.086 35.1333 227.179 35.1067 227.259 35.08L227.459 34.96C227.752 34.7467 227.952 34.4933 228.059 34.2C228.192 33.88 228.286 33.4533 228.339 32.92C228.366 32.7867 228.379 32.6533 228.379 32.52C228.379 32.3867 228.379 32.2667 228.379 32.16V31C228.379 30.8667 228.366 30.72 228.339 30.56C228.339 30.4 228.326 30.24 228.299 30.08C228.299 29.9467 228.286 29.84 228.259 29.76C228.232 29.44 228.152 29.16 228.019 28.92C227.886 28.6533 227.739 28.4533 227.579 28.32C227.472 28.24 227.366 28.2 227.259 28.2C227.179 28.2 227.072 28.2 226.939 28.2C226.726 28.2 226.499 28.2 226.259 28.2C226.019 28.2 225.792 28.2133 225.579 28.24C225.499 28.2667 225.406 28.2933 225.299 28.32C225.192 28.32 225.099 28.3467 225.019 28.4C224.832 28.5867 224.686 28.8 224.579 29.04C224.499 29.28 224.432 29.5333 224.379 29.8C224.379 29.9067 224.366 30.0267 224.339 30.16C224.339 30.2667 224.339 30.3733 224.339 30.48C224.312 30.6133 224.299 30.76 224.299 30.92C224.299 31.0533 224.299 31.1867 224.299 31.32C224.272 31.6133 224.259 31.9067 224.259 32.2C224.286 32.4933 224.312 32.84 224.339 33.24V33.44C224.366 33.4667 224.379 33.52 224.379 33.6ZM227.819 44.6C227.846 44.5467 227.859 44.48 227.859 44.4C227.859 44.3467 227.872 44.2933 227.899 44.24C227.926 44.08 227.939 43.92 227.939 43.76C227.966 43.6267 227.979 43.48 227.979 43.32C227.979 43.2133 227.979 43.16 227.979 43.16C227.979 43.16 227.939 43.1467 227.859 43.12C227.859 43.12 227.846 43.1067 227.819 43.08C227.792 43.0533 227.752 43.0133 227.699 42.96H227.659V43.32C227.659 43.4533 227.659 43.5867 227.659 43.72C227.686 43.88 227.712 44.0267 227.739 44.16C227.766 44.2133 227.779 44.28 227.779 44.36C227.779 44.44 227.792 44.52 227.819 44.6ZM228.299 43.32V43.68L228.379 44.48C228.406 44.3467 228.419 44.2267 228.419 44.12C228.446 44.04 228.459 43.9067 228.459 43.72V43.4C228.406 43.3467 228.352 43.32 228.299 43.32ZM228.859 43.68C228.966 43.8933 229.019 44.16 229.019 44.48C229.019 44.56 229.019 44.64 229.019 44.72C229.019 44.8 229.006 44.88 228.979 44.96V45C229.032 45.4267 229.099 45.8667 229.179 46.32C229.259 46.7733 229.312 47.2267 229.339 47.68V47.92C229.366 47.84 229.379 47.76 229.379 47.68C229.379 47.6267 229.392 47.5733 229.419 47.52C229.419 47.4667 229.419 47.3867 229.419 47.28C229.446 47.1733 229.459 47.12 229.459 47.12C229.539 46.5067 229.579 45.8667 229.579 45.2C229.606 44.56 229.446 44.0533 229.099 43.68C229.019 43.5733 228.952 43.52 228.899 43.52C228.872 43.5467 228.859 43.5867 228.859 43.64H228.819C228.819 43.64 228.819 43.6267 228.819 43.6C228.819 43.6 228.806 43.5867 228.779 43.56C228.699 43.4533 228.646 43.4 228.619 43.4C228.592 43.4267 228.579 43.4933 228.579 43.6C228.606 43.7333 228.619 43.8133 228.619 43.84C228.646 44.0533 228.672 44.2667 228.699 44.48C228.752 44.6933 228.792 44.9067 228.819 45.12L228.899 45.56C228.926 45.48 228.939 45.4 228.939 45.32C228.939 45.24 228.952 45.16 228.979 45.08V45.04C228.899 44.5867 228.846 44.2667 228.819 44.08C228.819 43.92 228.832 43.7867 228.859 43.68ZM227.899 48.08C227.926 47.8933 227.952 47.7067 227.979 47.52C228.006 47.3333 228.006 47.16 227.979 47C227.952 47 227.912 46.9867 227.859 46.96C227.832 46.9333 227.832 46.92 227.859 46.92C227.832 46.8933 227.819 46.8667 227.819 46.84C227.819 46.84 227.806 46.8267 227.779 46.8C227.752 46.7733 227.739 46.7333 227.739 46.68C227.739 46.6533 227.726 46.6267 227.699 46.6C227.726 46.84 227.752 47.08 227.779 47.32C227.832 47.5867 227.872 47.84 227.899 48.08ZM264.744 39.6C264.744 39.7867 264.744 39.9733 264.744 40.16C264.771 40.32 264.771 40.4933 264.744 40.68V41.04C264.718 41.28 264.638 41.48 264.504 41.64L264.264 41.88C264.158 41.96 264.024 42.04 263.864 42.12C263.731 42.2 263.611 42.28 263.504 42.36C263.424 42.4133 263.344 42.4667 263.264 42.52C263.184 42.6 263.104 42.68 263.024 42.76C262.998 42.7867 262.971 42.8267 262.944 42.88C262.918 42.9333 262.891 42.9467 262.864 42.92C262.678 42.6267 262.624 42.48 262.704 42.48C262.811 42.5067 262.904 42.5467 262.984 42.6C263.064 42.68 262.971 42.68 262.704 42.6H262.664H262.624C262.624 42.6 262.598 42.6267 262.544 42.68C262.518 42.76 262.491 42.84 262.464 42.92C262.464 43.0267 262.438 43.1333 262.384 43.24C262.358 43.2933 262.331 43.36 262.304 43.44C262.304 43.52 262.278 43.5867 262.224 43.64C262.171 43.6933 262.118 43.6933 262.064 43.64C262.011 43.56 261.984 43.4667 261.984 43.36C261.984 43.2533 261.958 43.16 261.904 43.08C261.851 43.1067 261.798 43.1467 261.744 43.2C261.664 43.28 261.598 43.3733 261.544 43.48C261.411 43.6667 261.291 43.8533 261.184 44.04C261.104 44.2533 260.998 44.4533 260.864 44.64C260.838 44.6667 260.811 44.6933 260.784 44.72C260.758 44.7733 260.718 44.8133 260.664 44.84C260.611 44.8933 260.544 44.92 260.464 44.92C260.358 44.92 260.264 44.8533 260.184 44.72C260.158 44.6667 260.131 44.6133 260.104 44.56C260.078 44.5067 260.051 44.4667 260.024 44.44C259.864 44.1467 259.718 43.8533 259.584 43.56C259.478 43.2667 259.358 42.9867 259.224 42.72C259.118 42.72 259.064 42.72 259.064 42.72C258.958 43.12 258.931 43.5333 258.984 43.96C259.064 44.3867 259.091 44.7467 259.064 45.04C259.038 45.36 258.824 45.5467 258.424 45.6C258.238 45.6267 258.078 45.5867 257.944 45.48C257.838 45.3733 257.731 45.24 257.624 45.08C257.411 44.76 257.224 44.4133 257.064 44.04C256.904 43.6933 256.731 43.3467 256.544 43L256.304 42.68C256.278 42.6267 256.251 42.56 256.224 42.48C256.224 42.4 256.198 42.3733 256.144 42.4C256.091 42.48 256.064 42.6133 256.064 42.8C256.064 43.0133 256.038 43.08 255.984 43C255.904 42.8133 255.878 42.6133 255.904 42.4C255.931 42.2133 255.918 42.0267 255.864 41.84C255.758 41.7333 255.678 41.64 255.624 41.56C255.571 41.4533 255.531 41.3867 255.504 41.36C255.504 41.3333 255.491 41.32 255.464 41.32C255.464 41.2933 255.464 41.2667 255.464 41.24C255.438 41.16 255.424 41.08 255.424 41C255.424 40.8933 255.424 40.7867 255.424 40.68C255.398 40.36 255.384 40.04 255.384 39.72C255.411 39.4 255.424 39.0933 255.424 38.8V32.8C255.318 32.9867 255.198 33.1867 255.064 33.4C254.931 33.5867 254.798 33.7867 254.664 34L253.544 35.68C253.358 36.0267 253.171 36.3733 252.984 36.72C252.798 37.04 252.598 37.3467 252.384 37.64C252.331 37.72 252.278 37.8 252.224 37.88C252.171 37.96 252.118 38.0267 252.064 38.08C251.958 38.24 251.851 38.3867 251.744 38.52C251.638 38.6533 251.531 38.7867 251.424 38.92L251.144 39.36C250.958 39.68 250.758 40.0133 250.544 40.36C250.358 40.68 250.118 41.0267 249.824 41.4C249.744 41.5067 249.651 41.6 249.544 41.68C249.518 41.7067 249.491 41.7333 249.464 41.76C249.438 41.7867 249.411 41.8133 249.384 41.84C249.278 42.2133 249.211 42.6 249.184 43C249.158 43.4 249.118 43.7867 249.064 44.16C249.038 44.2933 249.011 44.44 248.984 44.6C248.958 44.76 248.918 44.92 248.864 45.08C248.838 45.1867 248.811 45.3467 248.784 45.56C248.758 45.7733 248.731 45.8267 248.704 45.72C248.464 45.4267 248.344 45.1333 248.344 44.84C248.371 44.5467 248.424 44.2667 248.504 44C248.611 43.76 248.664 43.5333 248.664 43.32C248.691 43.1333 248.571 42.9867 248.304 42.88C248.251 42.9333 248.184 42.9867 248.104 43.04C248.024 43.0933 247.958 43.1467 247.904 43.2C247.798 43.28 247.691 43.3467 247.584 43.4C247.504 43.4533 247.398 43.48 247.264 43.48C247.238 43.48 247.211 43.48 247.184 43.48C247.158 43.5067 247.131 43.5067 247.104 43.48C247.078 43.3467 247.064 43.2 247.064 43.04C247.064 42.88 247.051 42.7333 247.024 42.6C246.971 42.68 246.918 42.8267 246.864 43.04C246.731 43.44 246.598 43.84 246.464 44.24C246.331 44.64 246.198 45.04 246.064 45.44C246.038 45.5467 245.971 45.6933 245.864 45.88C245.784 46.0933 245.664 46.2 245.504 46.2C245.424 46.2 245.371 46.1867 245.344 46.16C245.238 46.1067 245.144 46.0133 245.064 45.88C245.011 45.7733 244.958 45.68 244.904 45.6C244.851 45.4933 244.798 45.3867 244.744 45.28C244.691 45.2 244.638 45.12 244.584 45.04C244.504 44.88 244.411 44.72 244.304 44.56C244.224 44.4267 244.158 44.28 244.104 44.12C243.998 43.9067 243.891 43.6933 243.784 43.48C243.704 43.2667 243.598 43.0667 243.464 42.88C243.411 42.8267 243.358 42.7733 243.304 42.72C243.251 42.6933 243.198 42.6667 243.144 42.64C243.011 42.72 242.931 42.9333 242.904 43.28C242.904 43.6267 242.904 43.9333 242.904 44.2C242.931 44.4667 242.904 44.52 242.824 44.36C242.798 44.3067 242.798 44.0933 242.824 43.72C242.851 43.3733 242.838 43.04 242.784 42.72C242.784 42.8 242.744 42.8667 242.664 42.92C242.584 42.9733 242.544 42.9333 242.544 42.8C242.544 42.6667 242.531 42.56 242.504 42.48C242.478 42.4 242.451 42.32 242.424 42.24C242.398 42.1867 242.371 42.12 242.344 42.04C242.318 42.04 242.291 42.0267 242.264 42C242.238 42 242.198 42 242.144 42C242.118 42 242.091 42 242.064 42C242.064 41.9733 242.038 41.96 241.984 41.96C241.771 41.88 241.598 41.7467 241.464 41.56C241.411 41.5067 241.358 41.4 241.304 41.24C241.251 41.0533 241.224 40.84 241.224 40.6C241.251 40.36 241.264 40.1467 241.264 39.96V25.8C241.264 25.32 241.251 24.76 241.224 24.12C241.224 23.48 241.238 22.8667 241.264 22.28C241.264 21.9867 241.371 21.7333 241.584 21.52C241.638 21.4667 241.691 21.4133 241.744 21.36C241.824 21.3067 241.918 21.2667 242.024 21.24C242.158 21.1867 242.291 21.1733 242.424 21.2C242.584 21.2 242.731 21.2 242.864 21.2H248.384C248.571 21.2 248.771 21.2 248.984 21.2C249.198 21.1733 249.398 21.1733 249.584 21.2C249.664 21.2 249.744 21.2133 249.824 21.24C249.904 21.2667 249.984 21.3067 250.064 21.36C250.118 21.3867 250.171 21.4267 250.224 21.48C250.304 21.5067 250.358 21.56 250.384 21.64C250.438 21.6933 250.464 21.7467 250.464 21.8C250.518 21.9067 250.544 22.0133 250.544 22.12C250.571 22.2267 250.584 22.32 250.584 22.4V30.4L252.104 28.08C252.131 28.0533 252.171 27.9867 252.224 27.88C252.438 27.5067 252.664 27.12 252.904 26.72C253.144 26.32 253.384 25.9333 253.624 25.56L254.064 24.88C254.384 24.4267 254.651 24.0933 254.864 23.88C254.864 23.8533 254.864 23.84 254.864 23.84C254.891 23.8133 254.904 23.8 254.904 23.8L255.144 23.4L255.784 22.4C255.944 22.1333 256.131 21.8667 256.344 21.6C256.478 21.4933 256.598 21.4133 256.704 21.36C256.838 21.28 256.984 21.2267 257.144 21.2H263.664C263.771 21.2 263.904 21.2267 264.064 21.28C264.091 21.28 264.104 21.2933 264.104 21.32C264.131 21.32 264.158 21.32 264.184 21.32C264.398 21.4267 264.544 21.5867 264.624 21.8C264.704 21.9067 264.744 22.04 264.744 22.2C264.771 22.3867 264.771 22.5867 264.744 22.8C264.744 23.0133 264.744 23.2133 264.744 23.4V39.6ZM288.588 26.2C288.588 26.36 288.588 26.5333 288.588 26.72C288.614 26.88 288.614 27.04 288.588 27.2C288.588 27.3333 288.574 27.4267 288.548 27.48C288.521 27.5067 288.508 27.5333 288.508 27.56C288.508 27.5867 288.494 27.6133 288.468 27.64C288.521 27.5867 288.494 27.6133 288.388 27.72C288.308 27.8267 288.281 27.8667 288.308 27.84C288.281 27.8667 288.254 27.8933 288.228 27.92C288.201 27.9467 288.174 27.9733 288.148 28C288.148 28 288.134 28.0133 288.108 28.04C288.108 28.04 288.094 28.04 288.068 28.04C288.068 28.04 288.054 28.0533 288.028 28.08C288.028 28.08 288.014 28.08 287.988 28.08C287.961 28.1333 287.934 28.2 287.908 28.28C287.908 28.36 287.881 28.4267 287.828 28.48C287.774 28.64 287.721 28.7733 287.668 28.88C287.641 28.9333 287.614 29.0267 287.588 29.16C287.588 29.2667 287.561 29.2933 287.508 29.24C287.454 29.1867 287.428 29.0667 287.428 28.88C287.401 28.9067 287.374 28.9333 287.348 28.96C287.321 28.9867 287.294 29.0133 287.268 29.04C287.214 29.0933 287.188 29.12 287.188 29.12C287.161 29.1467 287.134 29.1733 287.108 29.2C287.081 29.2 287.054 29.2133 287.028 29.24C287.001 29.5867 286.974 29.9333 286.948 30.28C286.948 30.6267 286.921 30.9733 286.868 31.32C286.868 31.5067 286.868 31.7867 286.868 32.16C286.868 32.5333 286.854 32.84 286.828 33.08C286.828 33.32 286.788 33.3467 286.708 33.16C286.574 32.7067 286.521 32.24 286.548 31.76C286.601 31.2533 286.601 30.7733 286.548 30.32C286.548 30.2667 286.534 30.2667 286.508 30.32C286.481 30.3733 286.454 30.4 286.428 30.4C286.401 30.4267 286.374 30.44 286.348 30.44C286.321 30.4133 286.294 30.4 286.268 30.4C286.241 30.3733 286.201 30.32 286.148 30.24C286.121 30.16 286.108 30.1467 286.108 30.2C286.054 30.7333 286.041 31.28 286.068 31.84C286.121 32.4 286.081 32.9467 285.948 33.48C285.894 33.6667 285.854 33.64 285.828 33.4C285.828 33.1333 285.828 32.8133 285.828 32.44C285.828 32.04 285.814 31.7333 285.788 31.52C285.761 31.0933 285.748 30.8 285.748 30.64C285.748 30.48 285.734 30.32 285.708 30.16C285.708 30 285.654 29.72 285.548 29.32C285.548 29.32 285.534 29.3333 285.508 29.36C285.508 29.36 285.494 29.36 285.468 29.36L285.348 29.48C285.321 29.9067 285.294 30.3333 285.268 30.76C285.268 31.1867 285.241 31.6133 285.188 32.04C285.188 32.0667 285.161 32.1067 285.108 32.16C285.054 32.2133 285.014 32.2267 284.988 32.2C284.801 31.8 284.734 31.44 284.788 31.12C284.841 30.8 284.894 30.4933 284.948 30.2C285.001 29.88 284.894 29.52 284.628 29.12L284.388 28.68C284.334 28.9467 284.308 29.2133 284.308 29.48C284.308 29.72 284.281 29.9733 284.228 30.24C284.201 30.2933 284.174 30.2667 284.148 30.16C284.121 30.0267 284.094 29.9333 284.068 29.88C284.041 29.8 283.988 29.72 283.908 29.64C283.854 29.56 283.801 29.48 283.748 29.4C283.641 29.24 283.441 29.08 283.148 28.92C282.854 28.7333 282.588 28.5467 282.348 28.36C282.134 27.9333 282.028 27.72 282.028 27.72C282.028 27.72 282.054 27.8267 282.108 28.04C282.188 28.2267 282.214 28.3867 282.188 28.52C282.214 28.68 282.214 28.84 282.188 29C282.188 29.16 282.188 29.3333 282.188 29.52V40.76C282.188 40.84 282.188 40.9333 282.188 41.04C282.188 41.12 282.174 41.2 282.148 41.28L282.028 41.52L281.908 41.64C281.881 41.6667 281.854 41.6933 281.828 41.72C281.828 41.7467 281.801 41.7733 281.748 41.8C281.748 41.8 281.734 41.8133 281.708 41.84C281.708 41.84 281.694 41.84 281.668 41.84C281.668 41.84 281.654 41.8533 281.628 41.88C281.628 41.88 281.614 41.88 281.588 41.88C281.561 41.96 281.468 42.0933 281.308 42.28L281.268 42.32C281.241 42.3467 281.188 42.4267 281.108 42.56C281.054 42.72 280.974 42.8667 280.868 43C280.814 43.1067 280.748 43.2267 280.668 43.36C280.614 43.4933 280.561 43.6267 280.508 43.76L280.148 44.52C280.121 44.5733 280.094 44.6267 280.068 44.68C280.041 44.7333 280.001 44.7867 279.948 44.84C279.761 45.24 279.534 45.6667 279.268 46.12C279.108 46.3333 278.988 46.4533 278.908 46.48C278.881 46.6933 278.894 46.9733 278.948 47.32C279.001 47.6667 279.028 47.96 279.028 48.2C279.054 48.4667 278.948 48.5733 278.708 48.52C278.494 48.4667 278.388 48.3067 278.388 48.04C278.388 47.8 278.414 47.52 278.468 47.2C278.548 46.9067 278.574 46.64 278.548 46.4C278.521 46.3733 278.508 46.3467 278.508 46.32C278.481 46.32 278.454 46.3067 278.428 46.28L278.228 45.96C278.228 45.96 278.228 45.9467 278.228 45.92C278.228 45.92 278.214 45.92 278.188 45.92C278.188 45.8933 278.174 45.8667 278.148 45.84C278.148 45.84 278.148 45.8267 278.148 45.8C278.094 45.6933 278.068 45.6267 278.068 45.6C277.961 45.3067 277.841 45.0267 277.708 44.76C277.601 44.4933 277.468 44.24 277.308 44C277.281 43.9733 277.254 43.9467 277.228 43.92C277.201 43.8933 277.174 43.8667 277.148 43.84C277.068 43.7867 276.988 43.76 276.908 43.76C276.828 43.76 276.748 43.7733 276.668 43.8C276.588 43.88 276.481 43.92 276.348 43.92C276.161 43.92 275.974 43.8533 275.788 43.72C275.601 43.6133 275.441 43.4933 275.308 43.36L274.988 43.04C274.854 42.8533 274.721 42.6533 274.588 42.44C274.481 42.2533 274.321 42.1067 274.108 42C274.081 42.24 274.108 42.5333 274.188 42.88C274.294 43.2533 274.241 43.4267 274.028 43.4C273.814 43.3733 273.734 43.1867 273.788 42.84C273.868 42.52 273.854 42.2267 273.748 41.96L273.508 41.84C273.188 41.6 273.028 41.28 273.028 40.88C273.001 40.5867 272.988 40.2933 272.988 40C273.014 39.7067 273.028 39.44 273.028 39.2V28.84L272.868 28.2C272.868 28.2267 272.814 28.3733 272.708 28.64C272.601 28.88 272.548 29 272.548 29C272.441 29.3467 272.321 29.7067 272.188 30.08C272.054 30.4267 271.921 30.7867 271.788 31.16C271.681 31.4 271.574 31.6 271.468 31.76C271.441 31.8133 271.401 31.88 271.348 31.96C271.321 32.04 271.308 32.0667 271.308 32.04C271.254 31.5333 271.228 31.0267 271.228 30.52C271.228 30.0133 271.201 29.5067 271.148 29C271.148 29.0267 271.081 29.04 270.948 29.04C270.894 29.1467 270.841 29.2533 270.788 29.36C270.734 29.4667 270.668 29.5733 270.588 29.68C270.481 29.92 270.308 30.1067 270.068 30.24C270.068 30.2667 270.001 30.3733 269.868 30.56C269.761 30.72 269.708 30.8 269.708 30.8C269.601 30.8533 269.548 30.8 269.548 30.64C269.468 30.4533 269.428 30.36 269.428 30.36C269.454 30.3333 269.468 30.3067 269.468 30.28C269.468 30.2533 269.388 30.1467 269.228 29.96L268.508 29.24C268.428 29.16 268.348 29.08 268.268 29C268.188 28.8933 268.054 28.7867 267.868 28.68C267.814 28.6267 267.761 28.6 267.708 28.6C267.654 28.7333 267.628 28.9067 267.628 29.12C267.654 29.3067 267.614 29.4667 267.508 29.6C267.481 29.6533 267.454 29.6 267.428 29.44C267.428 29.28 267.401 29.1467 267.348 29.04L267.228 28.52C267.201 28.4667 267.174 28.4 267.148 28.32C267.148 28.24 267.134 28.16 267.108 28.08C266.894 27.92 266.748 27.7067 266.668 27.44C266.641 27.3867 266.628 27.3067 266.628 27.2C266.601 26.9867 266.588 26.7867 266.588 26.6C266.614 26.4133 266.628 26.2267 266.628 26.04V22.28C266.628 21.88 266.801 21.5733 267.148 21.36C267.174 21.3333 267.201 21.32 267.228 21.32C267.281 21.2667 267.334 21.24 267.388 21.24C267.468 21.24 267.534 21.2267 267.588 21.2H286.228C286.361 21.2 286.494 21.2 286.628 21.2C286.761 21.1733 286.894 21.16 287.028 21.16C287.188 21.16 287.348 21.1733 287.508 21.2C287.668 21.2 287.814 21.2267 287.948 21.28C288.054 21.3333 288.121 21.3733 288.148 21.4C288.308 21.48 288.428 21.64 288.508 21.88C288.561 21.9867 288.588 22.0933 288.588 22.2C288.614 22.3067 288.628 22.4133 288.628 22.52C288.628 22.6267 288.628 22.7333 288.628 22.84C288.601 23.4 288.588 23.96 288.588 24.52C288.588 25.08 288.588 25.64 288.588 26.2Z" fill="#EDF2FC"/>
<path d="M10 14.2632L27.1245 6.55211C28.8863 5.7588 30.9276 6.81343 31.3 8.70934L40 53L18.5714 36.1579L21.1429 16.7895L10 14.2632Z" fill="#EDF2FC"/>
<path d="M26 11.5C26 12.3284 25.3284 13 24.5 13C23.6716 13 23 12.3284 23 11.5C23 10.6716 23.6716 10 24.5 10C25.3284 10 26 10.6716 26 11.5Z" fill="#090B2D"/>
</g>
<defs>
<clipPath id="clip0_72_115">
<rect width="297" height="58" fill="white"/>
</clipPath>
</defs>
</svg>
