<svg width="444" height="254" viewBox="0 0 444 254" fill="none" xmlns="http://www.w3.org/2000/svg">
<path d="M123.6 20.92L124.2 17.64H137.8L137.2 20.92H123.6ZM148.944 19.88L149.424 16.96H150.704C153.317 16.96 155.411 16.4933 156.984 15.56C158.557 14.6 159.344 13.3067 159.344 11.68C159.344 10.4533 158.917 9.48 158.064 8.76C157.237 8.01333 156.171 7.64 154.864 7.64C153.637 7.64 152.584 7.84 151.704 8.24C150.824 8.61333 150.037 9.05333 149.344 9.56L147.944 6.84C148.877 6.17333 149.944 5.62667 151.144 5.2C152.371 4.74667 153.757 4.52 155.304 4.52C156.931 4.52 158.317 4.82667 159.464 5.44C160.637 6.05333 161.531 6.86667 162.144 7.88C162.757 8.86667 163.064 9.93333 163.064 11.08C163.064 12.9467 162.517 14.4667 161.424 15.64C160.331 16.7867 158.731 17.68 156.624 18.32C158.304 18.9067 159.597 19.7733 160.504 20.92C161.411 22.0667 161.864 23.4267 161.864 25C161.864 26.7067 161.424 28.2 160.544 29.48C159.664 30.76 158.451 31.7467 156.904 32.44C155.384 33.1333 153.637 33.48 151.664 33.48C150.144 33.48 148.704 33.28 147.344 32.88C146.011 32.4533 144.877 31.88 143.944 31.16L146.064 28.32C146.731 28.88 147.531 29.3467 148.464 29.72C149.397 30.0933 150.464 30.28 151.664 30.28C153.477 30.28 154.984 29.84 156.184 28.96C157.384 28.08 157.984 26.8133 157.984 25.16C157.984 23.6933 157.411 22.4533 156.264 21.44C155.117 20.4 153.357 19.88 150.984 19.88H148.944ZM176.928 33.48C174.262 33.48 172.222 32.5467 170.808 30.68C169.422 28.7867 168.728 26.2267 168.728 23C168.728 20.76 168.968 18.5467 169.448 16.36C169.928 14.1467 170.662 12.16 171.648 10.4C172.635 8.61333 173.888 7.18667 175.408 6.12C176.955 5.05333 178.768 4.52 180.848 4.52C183.515 4.52 185.542 5.46667 186.928 7.36C188.342 9.22667 189.048 11.7733 189.048 15C189.048 17.24 188.808 19.4667 188.328 21.68C187.848 23.8667 187.115 25.8533 186.128 27.64C185.142 29.4 183.875 30.8133 182.328 31.88C180.808 32.9467 179.008 33.48 176.928 33.48ZM177.328 30.2C178.608 30.2 179.728 29.7867 180.688 28.96C181.675 28.1067 182.502 26.96 183.168 25.52C183.835 24.08 184.328 22.44 184.648 20.6C184.995 18.7333 185.168 16.7867 185.168 14.76C185.168 12.52 184.768 10.8 183.968 9.6C183.195 8.4 182.022 7.8 180.448 7.8C179.168 7.8 178.035 8.22666 177.048 9.08C176.088 9.90667 175.275 11.04 174.608 12.48C173.942 13.92 173.435 15.5733 173.088 17.44C172.768 19.28 172.608 21.2133 172.608 23.24C172.608 25.48 173.008 27.2 173.808 28.4C174.608 29.6 175.782 30.2 177.328 30.2ZM208.745 32.96L231.265 3.4L233.465 5L210.945 34.56L208.745 32.96ZM219.065 11.12C219.065 12.1867 218.918 13.36 218.625 14.64C218.358 15.92 217.892 17.1333 217.225 18.28C216.585 19.4267 215.718 20.3733 214.625 21.12C213.558 21.84 212.225 22.2 210.625 22.2C208.758 22.2 207.305 21.6267 206.265 20.48C205.252 19.3067 204.745 17.7333 204.745 15.76C204.745 14.64 204.878 13.4533 205.145 12.2C205.438 10.92 205.905 9.72 206.545 8.6C207.212 7.45333 208.092 6.52 209.185 5.8C210.305 5.08 211.678 4.72 213.305 4.72C215.172 4.72 216.598 5.28 217.585 6.4C218.572 7.52 219.065 9.09333 219.065 11.12ZM210.865 19.52C211.852 19.52 212.665 19.2133 213.305 18.6C213.945 17.9867 214.438 17.2133 214.785 16.28C215.132 15.3467 215.372 14.4 215.505 13.44C215.638 12.48 215.705 11.6533 215.705 10.96C215.705 8.56 214.785 7.36 212.945 7.36C211.958 7.36 211.145 7.66667 210.505 8.28C209.892 8.89333 209.412 9.66667 209.065 10.6C208.718 11.5067 208.465 12.4533 208.305 13.44C208.172 14.4 208.105 15.2267 208.105 15.92C208.105 18.32 209.025 19.52 210.865 19.52ZM237.385 22.2C237.385 23.2667 237.238 24.44 236.945 25.72C236.678 27 236.212 28.2133 235.545 29.36C234.905 30.5067 234.038 31.4533 232.945 32.2C231.878 32.92 230.545 33.28 228.945 33.28C227.078 33.28 225.625 32.7067 224.585 31.56C223.572 30.3867 223.065 28.8133 223.065 26.84C223.065 25.72 223.198 24.5333 223.465 23.28C223.758 22 224.225 20.8 224.865 19.68C225.532 18.5333 226.412 17.6 227.505 16.88C228.625 16.16 229.998 15.8 231.625 15.8C233.492 15.8 234.918 16.36 235.905 17.48C236.892 18.6 237.385 20.1733 237.385 22.2ZM229.185 30.6C230.172 30.6 230.985 30.2933 231.625 29.68C232.265 29.0667 232.758 28.2933 233.105 27.36C233.452 26.4267 233.692 25.48 233.825 24.52C233.958 23.56 234.025 22.7333 234.025 22.04C234.025 19.64 233.105 18.44 231.265 18.44C230.278 18.44 229.465 18.7467 228.825 19.36C228.212 19.9733 227.732 20.7467 227.385 21.68C227.038 22.5867 226.785 23.5333 226.625 24.52C226.492 25.48 226.425 26.3067 226.425 27C226.425 29.4 227.345 30.6 229.185 30.6Z" fill="#EDF2FC"/>
<path d="M242.924 83.86L243.974 78.12H267.774L266.724 83.86H242.924ZM282.657 96.46C283.917 97.58 285.41 98.4667 287.137 99.12C288.864 99.7733 290.754 100.1 292.807 100.1C296.167 100.1 298.967 99.19 301.207 97.37C303.447 95.55 304.567 93.0533 304.567 89.88C304.567 87.1733 303.564 84.9567 301.557 83.23C299.597 81.5033 296.727 80.64 292.947 80.64H286.017L290.287 56H314.437L313.457 61.67H295.257L292.947 74.97H294.277C298.104 74.97 301.277 75.6233 303.797 76.93C306.317 78.19 308.207 79.8933 309.467 82.04C310.727 84.14 311.357 86.45 311.357 88.97C311.357 92.2833 310.564 95.2233 308.977 97.79C307.39 100.31 305.174 102.293 302.327 103.74C299.527 105.14 296.237 105.84 292.457 105.84C289.657 105.84 287.067 105.49 284.687 104.79C282.354 104.043 280.417 103.063 278.877 101.85L282.657 96.46ZM336.249 105.84C331.583 105.84 328.013 104.207 325.539 100.94C323.113 97.6267 321.899 93.1467 321.899 87.5C321.899 83.58 322.319 79.7067 323.159 75.88C323.999 72.0067 325.283 68.53 327.009 65.45C328.736 62.3233 330.929 59.8267 333.589 57.96C336.296 56.0933 339.469 55.16 343.109 55.16C347.776 55.16 351.323 56.8167 353.749 60.13C356.223 63.3967 357.459 67.8533 357.459 73.5C357.459 77.42 357.039 81.3167 356.199 85.19C355.359 89.0167 354.076 92.4933 352.349 95.62C350.623 98.7 348.406 101.173 345.699 103.04C343.039 104.907 339.889 105.84 336.249 105.84ZM336.949 100.1C339.189 100.1 341.149 99.3767 342.829 97.93C344.556 96.4367 346.003 94.43 347.169 91.91C348.336 89.39 349.199 86.52 349.759 83.3C350.366 80.0333 350.669 76.6267 350.669 73.08C350.669 69.16 349.969 66.15 348.569 64.05C347.216 61.95 345.163 60.9 342.409 60.9C340.169 60.9 338.186 61.6467 336.459 63.14C334.779 64.5867 333.356 66.57 332.189 69.09C331.023 71.61 330.136 74.5033 329.529 77.77C328.969 80.99 328.689 84.3733 328.689 87.92C328.689 91.84 329.389 94.85 330.789 96.95C332.189 99.05 334.243 100.1 336.949 100.1ZM391.928 104.93L431.338 53.2L435.188 56L395.778 107.73L391.928 104.93ZM409.988 66.71C409.988 68.5767 409.732 70.63 409.218 72.87C408.752 75.11 407.935 77.2333 406.768 79.24C405.648 81.2467 404.132 82.9033 402.218 84.21C400.352 85.47 398.018 86.1 395.218 86.1C391.952 86.1 389.408 85.0967 387.588 83.09C385.815 81.0367 384.928 78.2833 384.928 74.83C384.928 72.87 385.162 70.7933 385.628 68.6C386.142 66.36 386.958 64.26 388.078 62.3C389.245 60.2933 390.785 58.66 392.698 57.4C394.658 56.14 397.062 55.51 399.908 55.51C403.175 55.51 405.672 56.49 407.398 58.45C409.125 60.41 409.988 63.1633 409.988 66.71ZM395.638 81.41C397.365 81.41 398.788 80.8733 399.908 79.8C401.028 78.7267 401.892 77.3733 402.498 75.74C403.105 74.1067 403.525 72.45 403.758 70.77C403.992 69.09 404.108 67.6433 404.108 66.43C404.108 62.23 402.498 60.13 399.278 60.13C397.552 60.13 396.128 60.6667 395.008 61.74C393.935 62.8133 393.095 64.1667 392.488 65.8C391.882 67.3867 391.438 69.0433 391.158 70.77C390.925 72.45 390.808 73.8967 390.808 75.11C390.808 79.31 392.418 81.41 395.638 81.41ZM442.048 86.1C442.048 87.9667 441.792 90.02 441.278 92.26C440.812 94.5 439.995 96.6233 438.828 98.63C437.708 100.637 436.192 102.293 434.278 103.6C432.412 104.86 430.078 105.49 427.278 105.49C424.012 105.49 421.468 104.487 419.648 102.48C417.875 100.427 416.988 97.6733 416.988 94.22C416.988 92.26 417.222 90.1833 417.688 87.99C418.202 85.75 419.018 83.65 420.138 81.69C421.305 79.6833 422.845 78.05 424.758 76.79C426.718 75.53 429.122 74.9 431.968 74.9C435.235 74.9 437.732 75.88 439.458 77.84C441.185 79.8 442.048 82.5533 442.048 86.1ZM427.698 100.8C429.425 100.8 430.848 100.263 431.968 99.19C433.088 98.1167 433.952 96.7633 434.558 95.13C435.165 93.4967 435.585 91.84 435.818 90.16C436.052 88.48 436.168 87.0333 436.168 85.82C436.168 81.62 434.558 79.52 431.338 79.52C429.612 79.52 428.188 80.0567 427.068 81.13C425.995 82.2033 425.155 83.5567 424.548 85.19C423.942 86.7767 423.498 88.4333 423.218 90.16C422.985 91.84 422.868 93.2867 422.868 94.5C422.868 98.7 424.478 100.8 427.698 100.8Z" fill="#EDF2FC"/>
<path d="M76.7488 208.8L78.2488 200.6H112.249L110.749 208.8H76.7488ZM147.41 200.6C144.21 198.6 141.81 196.467 140.21 194.2C138.676 191.867 137.91 189.1 137.91 185.9C137.91 182.433 138.91 179.333 140.91 176.6C142.91 173.867 145.543 171.733 148.81 170.2C152.143 168.6 155.81 167.8 159.81 167.8C163.876 167.8 167.41 168.567 170.41 170.1C173.41 171.633 175.71 173.667 177.31 176.2C178.976 178.667 179.81 181.3 179.81 184.1C179.81 188.5 178.476 192.067 175.81 194.8C173.21 197.467 169.376 199.733 164.31 201.6C168.843 203.733 172.176 206.167 174.31 208.9C176.51 211.633 177.61 214.967 177.61 218.9C177.61 223.233 176.41 227 174.01 230.2C171.676 233.4 168.51 235.867 164.51 237.6C160.51 239.333 156.01 240.2 151.01 240.2C146.676 240.2 142.776 239.433 139.31 237.9C135.843 236.367 133.11 234.233 131.11 231.5C129.11 228.767 128.11 225.633 128.11 222.1C128.11 216.833 129.71 212.467 132.91 209C136.176 205.467 141.01 202.667 147.41 200.6ZM159.31 175.2C157.243 175.2 155.243 175.6 153.31 176.4C151.443 177.2 149.91 178.4 148.71 180C147.51 181.533 146.91 183.467 146.91 185.8C146.91 188.333 147.91 190.633 149.91 192.7C151.976 194.7 154.51 196.433 157.51 197.9C161.176 196.833 164.31 195.2 166.91 193C169.51 190.733 170.81 188.133 170.81 185.2C170.81 182.467 169.743 180.133 167.61 178.2C165.543 176.2 162.776 175.2 159.31 175.2ZM152.01 232.2C154.81 232.2 157.443 231.7 159.91 230.7C162.376 229.633 164.343 228.133 165.81 226.2C167.343 224.267 168.11 221.967 168.11 219.3C168.11 216.367 166.943 213.667 164.61 211.2C162.276 208.733 158.943 206.7 154.61 205.1C151.743 205.7 149.01 206.7 146.41 208.1C143.81 209.433 141.676 211.167 140.01 213.3C138.41 215.367 137.61 217.833 137.61 220.7C137.61 223.967 138.976 226.7 141.71 228.9C144.443 231.1 147.876 232.2 152.01 232.2ZM210.071 240.2C203.404 240.2 198.304 237.867 194.771 233.2C191.304 228.467 189.571 222.067 189.571 214C189.571 208.4 190.171 202.867 191.371 197.4C192.571 191.867 194.404 186.9 196.871 182.5C199.337 178.033 202.471 174.467 206.271 171.8C210.137 169.133 214.671 167.8 219.871 167.8C226.537 167.8 231.604 170.167 235.071 174.9C238.604 179.567 240.371 185.933 240.371 194C240.371 199.6 239.771 205.167 238.571 210.7C237.371 216.167 235.537 221.133 233.071 225.6C230.604 230 227.437 233.533 223.571 236.2C219.771 238.867 215.271 240.2 210.071 240.2ZM211.071 232C214.271 232 217.071 230.967 219.471 228.9C221.937 226.767 224.004 223.9 225.671 220.3C227.337 216.7 228.571 212.6 229.371 208C230.237 203.333 230.671 198.467 230.671 193.4C230.671 187.8 229.671 183.5 227.671 180.5C225.737 177.5 222.804 176 218.871 176C215.671 176 212.837 177.067 210.371 179.2C207.971 181.267 205.937 184.1 204.271 187.7C202.604 191.3 201.337 195.433 200.471 200.1C199.671 204.7 199.271 209.533 199.271 214.6C199.271 220.2 200.271 224.5 202.271 227.5C204.271 230.5 207.204 232 211.071 232ZM289.612 238.9L345.912 165L351.412 169L295.112 242.9L289.612 238.9ZM315.412 184.3C315.412 186.967 315.045 189.9 314.312 193.1C313.645 196.3 312.479 199.333 310.812 202.2C309.212 205.067 307.045 207.433 304.312 209.3C301.645 211.1 298.312 212 294.312 212C289.645 212 286.012 210.567 283.412 207.7C280.879 204.767 279.612 200.833 279.612 195.9C279.612 193.1 279.945 190.133 280.612 187C281.345 183.8 282.512 180.8 284.112 178C285.779 175.133 287.979 172.8 290.712 171C293.512 169.2 296.945 168.3 301.012 168.3C305.679 168.3 309.245 169.7 311.712 172.5C314.179 175.3 315.412 179.233 315.412 184.3ZM294.912 205.3C297.379 205.3 299.412 204.533 301.012 203C302.612 201.467 303.845 199.533 304.712 197.2C305.579 194.867 306.179 192.5 306.512 190.1C306.845 187.7 307.012 185.633 307.012 183.9C307.012 177.9 304.712 174.9 300.112 174.9C297.645 174.9 295.612 175.667 294.012 177.2C292.479 178.733 291.279 180.667 290.412 183C289.545 185.267 288.912 187.633 288.512 190.1C288.179 192.5 288.012 194.567 288.012 196.3C288.012 202.3 290.312 205.3 294.912 205.3ZM361.212 212C361.212 214.667 360.845 217.6 360.112 220.8C359.445 224 358.279 227.033 356.612 229.9C355.012 232.767 352.845 235.133 350.112 237C347.445 238.8 344.112 239.7 340.112 239.7C335.445 239.7 331.812 238.267 329.212 235.4C326.679 232.467 325.412 228.533 325.412 223.6C325.412 220.8 325.745 217.833 326.412 214.7C327.145 211.5 328.312 208.5 329.912 205.7C331.579 202.833 333.779 200.5 336.512 198.7C339.312 196.9 342.745 196 346.812 196C351.479 196 355.045 197.4 357.512 200.2C359.979 203 361.212 206.933 361.212 212ZM340.712 233C343.179 233 345.212 232.233 346.812 230.7C348.412 229.167 349.645 227.233 350.512 224.9C351.379 222.567 351.979 220.2 352.312 217.8C352.645 215.4 352.812 213.333 352.812 211.6C352.812 205.6 350.512 202.6 345.912 202.6C343.445 202.6 341.412 203.367 339.812 204.9C338.279 206.433 337.079 208.367 336.212 210.7C335.345 212.967 334.712 215.333 334.312 217.8C333.979 220.2 333.812 222.267 333.812 224C333.812 230 336.112 233 340.712 233Z" fill="#EDF2FC"/>
</svg>
